<svg width="246" height="258" viewBox="0 0 246 258" fill="none" xmlns="http://www.w3.org/2000/svg">
<path d="M242.932 181.961C244.91 185.757 245.898 190.124 245.898 195.06C245.898 199.997 244.902 204.408 242.907 208.205C240.916 212.002 238.13 214.974 234.558 217.115C230.986 219.259 226.807 220.329 222.023 220.329C217.238 220.329 213.059 219.251 209.487 217.094C205.915 214.937 203.146 211.961 201.183 208.16C199.217 204.363 198.234 199.997 198.234 195.06C198.234 190.124 199.237 185.634 201.249 181.85C203.256 178.066 206.046 175.109 209.622 172.982C213.195 170.854 217.328 169.788 222.023 169.788C226.717 169.788 231.031 170.87 234.603 173.027C238.175 175.183 240.953 178.16 242.932 181.961ZM231.502 206.057C233.567 203.219 234.603 199.554 234.603 195.06C234.603 190.567 233.555 186.721 231.457 183.953C229.36 181.19 226.218 179.808 222.023 179.808C219.159 179.808 216.804 180.452 214.96 181.739C213.113 183.023 211.744 184.81 210.859 187.102C209.975 189.394 209.532 192.047 209.532 195.06C209.532 199.702 210.585 203.404 212.699 206.167C214.809 208.931 217.918 210.313 222.023 210.313C226.127 210.313 229.433 208.894 231.502 206.057Z" fill="#252525"/>
<path d="M195.645 57.4049C198.099 63.3131 199.332 69.5821 199.332 76.0519C199.332 82.5218 198.099 88.8031 195.645 94.7154C195.506 95.0721 195.342 95.4329 195.198 95.7896C195.022 96.1668 194.858 96.5071 194.698 96.8638C189.365 108.237 180.057 116.909 168.8 121.46C164.257 132.706 155.609 142.038 144.245 147.36C144.085 147.45 143.942 147.52 143.782 147.594C143.225 147.844 142.651 148.094 142.082 148.328C136.175 150.78 129.911 152.018 123.451 152.018C116.99 152.018 110.706 150.78 104.799 148.328C104.442 148.184 104.082 148.024 103.726 147.881C103.349 147.7 103.009 147.54 102.652 147.36C91.2884 142.038 82.6241 132.706 78.0973 121.46C66.8399 116.909 57.5161 108.237 52.1987 96.8638C52.1086 96.7203 52.0553 96.5768 51.9652 96.4169C51.7153 95.8593 51.4654 95.2894 51.2319 94.7154C48.7986 88.8031 47.5655 82.5341 47.5655 76.0519C47.5655 69.5698 48.7986 63.3131 51.2319 57.4049C51.3753 57.0277 51.5351 56.6669 51.6989 56.3102C51.8587 55.9535 52.0185 55.6132 52.1987 55.2524C57.5161 43.8624 66.8399 35.2113 78.0973 30.6602C82.6241 19.4097 91.2884 10.078 102.652 4.7561C102.796 4.67 102.939 4.5962 103.099 4.5265C103.656 4.27639 104.225 4.02219 104.799 3.79259C110.706 1.33666 116.97 0.102539 123.451 0.102539C129.931 0.102539 136.175 1.33666 142.082 3.79259C142.455 3.93609 142.815 4.09599 143.172 4.23949C143.528 4.4158 143.889 4.5798 144.245 4.7561C155.609 10.078 164.257 19.3933 168.8 30.6602C180.041 35.2113 189.365 43.8624 194.698 55.2524C194.768 55.3959 194.842 55.5394 194.912 55.6993C195.161 56.2569 195.415 56.8309 195.645 57.4049ZM192.335 76.0519C192.335 75.4943 192.318 74.9408 192.298 74.3668C192.281 73.8625 192.245 73.3623 192.212 72.8785C192.191 72.6284 192.191 72.4152 192.159 72.1815C192.101 71.7346 192.068 71.2836 192.015 70.8367C191.941 70.2627 191.872 69.6928 191.761 69.1187C191.692 68.6718 191.601 68.2208 191.511 67.7739C191.479 67.5238 191.421 67.2901 191.368 67.0564C191.261 66.5726 191.155 66.0724 191.012 65.5886C190.921 65.195 190.815 64.8383 190.708 64.4406C190.512 63.76 190.315 63.0999 190.082 62.4357C189.795 61.6484 189.508 60.8612 189.184 60.0699C188.595 58.639 187.931 57.2409 187.198 55.9002H187.181C183.457 49.0736 178.001 43.5221 171.467 39.7214C172.057 42.7677 172.343 45.8837 172.343 49.0572C172.343 59.0326 169.357 68.311 164.22 76.0519C169.357 83.8051 172.343 93.0836 172.343 103.063C172.343 106.232 172.057 109.348 171.467 112.378C178.001 108.598 183.478 103.043 187.181 96.2201H187.198C187.931 94.8753 188.595 93.4772 189.184 92.0462C189.508 91.259 189.795 90.4677 190.082 89.6805C190.598 88.1594 191.028 86.6178 191.368 85.0598C191.421 84.8261 191.479 84.5924 191.511 84.3422C191.601 83.8953 191.692 83.4484 191.761 83.0015C191.872 82.4275 191.941 81.8535 192.015 81.2795C192.068 80.8326 192.101 80.3857 192.159 79.9388C192.191 79.7051 192.191 79.4714 192.212 79.2377C192.245 78.7539 192.281 78.2332 192.298 77.7535C192.318 77.1795 192.335 76.6218 192.335 76.0519ZM163.343 115.978C164.666 111.895 165.363 107.524 165.363 103.063C165.363 95.3591 163.29 88.1389 159.656 81.9437C154.753 87.3353 148.665 91.6526 141.812 94.4284C139.018 101.308 134.708 107.397 129.321 112.288C135.531 115.925 142.725 118 150.418 118C154.896 118 159.243 117.303 163.343 115.978ZM165.346 49.0572C165.346 44.5758 164.65 40.2257 163.323 36.1215C159.243 34.7972 154.896 34.1002 150.418 34.1002C142.725 34.1002 135.531 36.1953 129.321 39.8116C134.708 44.7193 139.018 50.812 141.812 57.6714C148.665 60.4676 154.753 64.785 159.636 70.1766C163.269 63.9609 165.346 56.7571 165.346 49.0572ZM143.581 139.853C150.402 136.13 155.949 130.648 159.746 124.125C156.703 124.72 153.589 125.007 150.418 125.007C140.468 125.007 131.181 122.014 123.451 116.872C115.7 122.014 106.429 125.007 96.4583 125.007C93.2916 125.007 90.1782 124.72 87.1549 124.125C90.9279 130.648 96.4787 136.13 103.295 139.853V139.873C104.656 140.587 106.036 141.267 107.466 141.862C108.252 142.182 109.043 142.469 109.83 142.739C111.349 143.256 112.89 143.686 114.446 144.047C114.68 144.101 114.913 144.137 115.163 144.191C115.626 144.277 116.056 144.367 116.503 144.441C117.076 144.531 117.65 144.601 118.223 144.691C118.686 144.744 119.116 144.781 119.563 144.834L120.264 144.888C120.747 144.925 121.267 144.957 121.746 144.957C122.32 144.994 122.877 145.015 123.451 145.015C124.024 145.015 124.557 144.994 125.13 144.957C125.634 144.957 126.134 144.925 126.634 144.888C126.867 144.871 127.08 144.851 127.314 144.834C127.76 144.781 128.211 144.744 128.657 144.691C129.231 144.601 129.821 144.531 130.374 144.441C130.825 144.367 131.271 144.277 131.718 144.191C131.967 144.137 132.201 144.101 132.434 144.047C132.918 143.937 133.418 143.814 133.901 143.686C134.294 143.596 134.671 143.49 135.048 143.383C135.728 143.186 136.388 142.973 137.051 142.739C137.838 142.469 138.645 142.182 139.415 141.862C140.845 141.267 142.242 140.587 143.581 139.873V139.853ZM159.726 27.9911C155.949 21.472 150.402 15.9697 143.581 12.2633V12.2469C142.242 11.513 140.845 10.8488 139.415 10.2584C138.645 9.93447 137.838 9.64746 137.051 9.36046C135.531 8.86025 133.991 8.41335 132.434 8.07304C132.201 8.01974 131.967 7.98284 131.718 7.92954C131.271 7.83934 130.825 7.74914 130.374 7.67944C129.821 7.56874 129.231 7.49904 128.657 7.42524C128.211 7.37193 127.76 7.33913 127.314 7.28173C127.08 7.26533 126.867 7.24893 126.634 7.22843C126.134 7.19563 125.634 7.15873 125.13 7.14233C124.557 7.12183 124.004 7.10543 123.451 7.10543C122.898 7.10543 122.32 7.12183 121.746 7.14233C121.267 7.15873 120.747 7.19563 120.264 7.22843C120.03 7.24893 119.796 7.26533 119.563 7.28173C119.116 7.33913 118.686 7.37193 118.223 7.42524C117.65 7.49904 117.076 7.56874 116.503 7.67944C116.056 7.74914 115.626 7.83934 115.163 7.92954C114.913 7.98284 114.68 8.01974 114.446 8.07304C113.963 8.17965 113.48 8.28625 112.98 8.42975C112.603 8.51995 112.226 8.62655 111.853 8.73315C111.169 8.92995 110.489 9.12676 109.83 9.36046C109.043 9.64746 108.252 9.93447 107.466 10.2584C106.036 10.8488 104.656 11.513 103.295 12.2469V12.2633C96.4787 15.9902 90.9279 21.472 87.1549 27.9911C90.1782 27.4007 93.2916 27.1137 96.4583 27.1137C106.429 27.1137 115.7 30.1026 123.451 35.2441C131.181 30.1026 140.468 27.1137 150.418 27.1137C153.589 27.1137 156.703 27.4007 159.726 27.9911ZM144.495 85.3304C148.686 82.8908 152.405 79.7379 155.502 76.0519C152.389 72.3619 148.665 69.2253 144.495 66.7899C141.939 65.2852 139.214 64.0675 136.351 63.1368C135.421 60.2708 134.188 57.5443 132.701 54.9859C130.267 50.7915 127.117 47.0687 123.43 43.969C119.764 47.0851 116.613 50.812 114.176 54.9859C112.673 57.5443 111.456 60.2708 110.526 63.1368C107.662 64.0675 104.942 65.3016 102.382 66.7899C98.2116 69.2253 94.4714 72.3783 91.3785 76.0683C94.4919 79.7584 98.2116 82.8908 102.382 85.3304C104.942 86.8351 107.662 88.0528 110.526 88.9835C111.456 91.8494 112.693 94.5719 114.196 97.1344C116.613 101.325 119.764 105.052 123.451 108.147C127.138 105.031 130.267 101.308 132.721 97.1344C134.204 94.5719 135.421 91.8494 136.351 88.9835C139.214 88.0528 141.939 86.8146 144.495 85.3304ZM105.086 57.6714C107.859 50.812 112.173 44.7193 117.56 39.8321C111.37 36.1953 104.156 34.1166 96.4583 34.1166C91.9848 34.1166 87.6342 34.8136 83.5376 36.142C82.2308 40.2257 81.5139 44.5758 81.5139 49.0572C81.5139 56.7571 83.6073 63.9609 87.2409 70.1766C92.1282 64.785 98.2116 60.4676 105.086 57.6714ZM117.56 112.305C112.173 107.397 107.859 101.308 105.086 94.4284C98.2116 91.6526 92.1282 87.3353 87.2409 81.9437C83.6073 88.1389 81.5344 95.3591 81.5344 103.063C81.5344 107.54 82.2308 111.895 83.554 115.995C87.6342 117.319 92.0012 118.02 96.4583 118.02C104.156 118.02 111.37 115.925 117.56 112.305ZM82.6609 76.0519C77.5402 68.311 74.5333 59.0326 74.5333 49.0572C74.5333 45.8837 74.8406 42.7677 75.4305 39.7419C68.8964 43.5221 63.4193 49.0736 59.6996 55.9002H59.6791C58.9663 57.2409 58.3026 58.639 57.6923 60.0699C57.3727 60.8612 57.086 61.6484 56.8156 62.4357C56.2994 63.9609 55.8693 65.4984 55.5088 67.0564C55.476 67.2901 55.4227 67.5238 55.3654 67.7739C55.2794 68.2208 55.1892 68.6718 55.1155 69.1187C55.0254 69.6928 54.9557 70.2627 54.882 70.8367C54.8124 71.2836 54.7755 71.7346 54.7222 72.1815C54.7058 72.4152 54.6854 72.6284 54.669 72.8785C54.6321 73.3623 54.5993 73.8625 54.5993 74.3668C54.5625 74.9408 54.5625 75.4943 54.5625 76.0519C54.5625 76.6096 54.5625 77.1795 54.5993 77.7535C54.5993 78.2332 54.6321 78.7539 54.669 79.2377L54.7222 79.9388C54.7755 80.3857 54.8124 80.8326 54.882 81.2795C54.9557 81.8535 55.0254 82.4275 55.1155 83.0015C55.1892 83.4484 55.2794 83.8953 55.3654 84.3422C55.4227 84.5924 55.476 84.8261 55.5088 85.0598C55.6358 85.5436 55.7423 86.0438 55.8693 86.5276C55.9594 86.9212 56.0659 87.282 56.1888 87.6756C56.3691 88.3562 56.5862 89.0204 56.8156 89.6805C57.086 90.4677 57.3727 91.259 57.6923 92.0462C58.3026 93.4772 58.9663 94.8753 59.6791 96.2201H59.6996C63.4193 103.043 68.8964 108.598 75.4305 112.378C74.8406 109.348 74.5333 106.232 74.5333 103.063C74.5333 93.0836 77.5402 83.8051 82.6609 76.0519Z" fill="#3A68B8"/>
<path d="M196.866 244.966C197.222 245.806 197.402 246.758 197.402 247.811C197.402 248.865 197.222 249.837 196.845 250.698C196.489 251.538 195.952 252.219 195.272 252.703C194.571 253.203 193.715 253.457 192.712 253.457C191.761 253.457 190.938 253.203 190.278 252.703C189.848 252.379 189.471 251.969 189.184 251.485V257.897H188.058V242.51H189.094V244.285C189.418 243.748 189.811 243.297 190.315 242.94C190.995 242.457 191.835 242.207 192.818 242.207C193.801 242.207 194.608 242.457 195.288 242.957C195.985 243.441 196.505 244.121 196.866 244.966ZM196.185 247.811C196.185 246.954 196.058 246.2 195.788 245.519C195.538 244.839 195.145 244.302 194.625 243.892C194.109 243.494 193.428 243.297 192.621 243.297C191.814 243.297 191.192 243.494 190.671 243.871C190.135 244.265 189.742 244.785 189.492 245.482C189.221 246.163 189.094 246.934 189.094 247.811C189.094 248.689 189.221 249.46 189.471 250.14C189.742 250.841 190.135 251.378 190.655 251.772C191.192 252.166 191.851 252.379 192.642 252.379C193.433 252.379 194.088 252.166 194.608 251.772C195.129 251.378 195.522 250.821 195.788 250.14C196.058 249.443 196.185 248.672 196.185 247.811Z" fill="#252525"/>
<path d="M196.919 171.112V181.087C195.485 180.677 193.859 180.55 192.015 180.694C190.172 180.837 188.504 181.358 187.038 182.252C185.551 183.043 184.355 184.064 183.425 185.298C182.491 186.553 181.794 187.967 181.364 189.546C180.918 191.12 180.7 192.822 180.7 194.667V218.992H169.984V171.112H179.414V178.795C179.771 178.135 180.184 177.508 180.631 176.897C181.614 175.589 182.814 174.498 184.191 173.654C185.375 172.85 186.681 172.223 188.111 171.755C189.545 171.309 191.012 171.022 192.515 170.915C194.035 170.825 195.485 170.878 196.919 171.112Z" fill="#252525"/>
<path d="M195.198 95.7896L194.752 96.8638H194.698C194.858 96.5071 195.022 96.1668 195.198 95.7896Z" fill="#499067"/>
<path d="M194.715 55.2524L194.912 55.6994C194.842 55.5394 194.768 55.3959 194.698 55.2524H194.715Z" fill="#499067"/>
<path d="M185.948 61.4148C186.231 62.0585 186.485 62.7596 186.735 63.4566C181.921 65.6256 178.554 70.4431 178.554 76.052C178.554 81.6609 181.921 86.5112 186.735 88.6597C186.485 89.3608 186.231 90.0578 185.948 90.7015C185.498 91.7962 184.998 92.8868 184.445 93.961L184.121 94.535C184.031 94.7155 183.924 94.8753 183.834 95.0353C176.604 91.7757 171.557 84.4858 171.557 76.052C171.557 67.6182 176.604 60.3406 183.834 57.0811C183.924 57.241 184.031 57.405 184.121 57.5813L184.514 58.2824C185.035 59.3033 185.518 60.357 185.948 61.4148Z" fill="#3A68B8"/>
<path d="M185.301 242.51V253.17H184.265V251.539C183.904 252.113 183.441 252.559 182.884 252.863C182.224 253.224 181.471 253.4 180.647 253.4C180.057 253.4 179.537 253.33 179.074 253.15C178.607 252.99 178.214 252.74 177.874 252.436C177.534 252.113 177.247 251.756 177.018 251.325C176.801 250.895 176.641 250.427 176.514 249.927C176.407 249.427 176.354 248.89 176.354 248.332V242.51H177.497V248.045C177.497 248.726 177.571 249.316 177.698 249.853C177.837 250.374 178.038 250.821 178.32 251.182C178.591 251.555 178.931 251.842 179.34 252.022C179.754 252.219 180.238 252.309 180.791 252.309C181.344 252.309 181.864 252.219 182.294 252.006C182.724 251.809 183.064 251.539 183.335 251.161C183.621 250.805 183.818 250.374 183.961 249.874C184.084 249.39 184.158 248.853 184.158 248.263V242.51H185.301Z" fill="#252525"/>
<path d="M173.81 244.904C174.195 245.749 174.388 246.717 174.388 247.816C174.388 248.914 174.195 249.927 173.806 250.772C173.421 251.616 172.856 252.272 172.114 252.748C171.368 253.219 170.475 253.457 169.431 253.457C168.386 253.457 167.477 253.215 166.743 252.74C166.006 252.256 165.445 251.596 165.056 250.747C164.671 249.898 164.474 248.923 164.474 247.816C164.474 246.708 164.675 245.729 165.068 244.88C165.461 244.035 166.026 243.379 166.768 242.916C167.505 242.449 168.394 242.215 169.431 242.215C170.467 242.215 171.389 242.453 172.126 242.928C172.868 243.404 173.429 244.064 173.81 244.904ZM172.245 251.091C172.868 250.247 173.179 249.156 173.179 247.816C173.179 246.475 172.864 245.36 172.241 244.54C171.618 243.724 170.68 243.318 169.431 243.318C168.583 243.318 167.886 243.51 167.333 243.896C166.78 244.281 166.371 244.81 166.096 245.483C165.826 246.159 165.686 246.934 165.686 247.816C165.686 249.185 166.006 250.284 166.637 251.108C167.272 251.94 168.202 252.354 169.431 252.354C170.66 252.354 171.627 251.932 172.245 251.091Z" fill="#252525"/>
<path d="M163.396 242.51V243.584C162.966 243.477 162.52 243.461 162.053 243.531C161.569 243.584 161.139 243.781 160.73 244.142C160.353 244.445 160.103 244.822 159.943 245.232C159.763 245.663 159.656 246.093 159.619 246.54C159.566 247.008 159.55 247.455 159.55 247.885V253.17H158.403V242.51H159.439V244.195C159.492 244.088 159.566 243.978 159.636 243.892C159.816 243.621 159.996 243.408 160.193 243.244C160.48 242.994 160.799 242.78 161.176 242.653C161.569 242.51 161.946 242.44 162.34 242.42C162.733 242.387 163.073 242.42 163.396 242.51Z" fill="#252525"/>
<path d="M161.123 155.15V218.992H151.693V215.462C151.082 216.02 150.455 216.536 149.775 217.004C146.625 219.226 142.705 220.337 138.035 220.337C133.631 220.337 129.8 219.226 126.527 217.004C123.25 214.782 120.71 211.772 118.903 207.959C117.097 204.142 116.2 199.845 116.2 195.06C116.2 190.276 117.113 185.888 118.92 182.092C120.747 178.295 123.324 175.286 126.654 173.1C130.001 170.899 133.917 169.788 138.448 169.788C142.979 169.788 146.805 170.899 149.882 173.1C150.046 173.207 150.205 173.334 150.349 173.457V155.15H161.123ZM151.693 195.06C151.693 191.928 151.279 189.185 150.455 186.84C149.652 184.494 148.399 182.649 146.678 181.342C144.962 180.034 142.741 179.369 140.038 179.369C137.174 179.369 134.815 180.066 132.951 181.465C131.091 182.879 129.714 184.761 128.817 187.143C127.941 189.525 127.494 192.157 127.494 195.06C127.494 197.963 127.941 200.632 128.801 203.014C129.677 205.397 131.001 207.278 132.807 208.672C134.618 210.054 136.908 210.751 139.681 210.751C142.455 210.751 144.855 210.091 146.609 208.783C148.362 207.475 149.652 205.63 150.455 203.265C151.279 200.899 151.693 198.16 151.693 195.06Z" fill="#252525"/>
<path d="M156.428 246.475C156.432 246.635 156.436 246.754 156.436 246.84C156.436 248.094 156.215 249.222 155.781 250.222C155.343 251.223 154.675 252.01 153.769 252.588C152.868 253.17 151.717 253.457 150.324 253.457C149.292 253.457 148.378 253.281 147.579 252.924C146.785 252.572 146.113 252.067 145.564 251.415C145.019 250.764 144.609 249.985 144.327 249.078C144.04 248.172 143.901 247.164 143.901 246.061C143.901 244.597 144.147 243.31 144.646 242.198C145.142 241.091 145.863 240.23 146.818 239.611C147.768 238.992 148.94 238.681 150.324 238.681C151.709 238.681 152.938 239.017 153.86 239.689C154.781 240.362 155.429 241.243 155.805 242.33L154.679 242.678C154.351 241.805 153.819 241.104 153.081 240.583C152.34 240.058 151.434 239.796 150.353 239.788C149.194 239.788 148.227 240.054 147.453 240.583C146.682 241.112 146.101 241.85 145.716 242.793C145.326 243.744 145.126 244.831 145.113 246.061C145.101 247.291 145.289 248.377 145.679 249.32C146.072 250.263 146.658 251.001 147.44 251.538C148.219 252.076 149.194 252.342 150.353 252.342C151.467 252.35 152.372 252.133 153.081 251.69C153.786 251.251 154.31 250.632 154.654 249.833C155.003 249.033 155.187 248.098 155.216 247.028H151.688V245.991H156.395C156.416 246.155 156.428 246.315 156.428 246.475Z" fill="#252525"/>
<path d="M144.245 147.36V147.397L143.782 147.594C143.942 147.52 144.085 147.45 144.245 147.36Z" fill="#499067"/>
<path d="M144.245 4.75611C143.889 4.57981 143.528 4.4158 143.172 4.2395L144.245 4.68641V4.75611Z" fill="#499067"/>
<path d="M142.401 136.487C142.242 136.593 142.082 136.684 141.902 136.774L141.201 137.167C140.181 137.688 139.128 138.188 138.088 138.619C137.428 138.885 136.728 139.156 136.031 139.39C133.864 134.588 129.051 131.222 123.451 131.222C117.851 131.222 112.996 134.588 110.85 139.39C110.149 139.156 109.453 138.885 108.809 138.619C107.716 138.172 106.626 137.651 105.569 137.098L104.979 136.774C104.799 136.684 104.655 136.593 104.496 136.487C107.753 129.25 115.02 124.215 123.451 124.215C131.881 124.215 139.145 129.25 142.401 136.487Z" fill="#3A68B8"/>
<path d="M141.902 15.3424C142.082 15.4162 142.242 15.5228 142.401 15.613C139.145 22.8496 131.861 27.9009 123.451 27.9009C115.04 27.9009 107.753 22.8496 104.496 15.613C104.655 15.5228 104.799 15.4162 104.979 15.3424L105.676 14.9324C106.716 14.4117 107.753 13.9279 108.809 13.4974C109.453 13.2309 110.149 12.9603 110.85 12.7102C113.013 17.5278 117.847 20.898 123.451 20.898C129.055 20.898 133.885 17.5278 136.031 12.7102C136.728 12.9603 137.428 13.2309 138.088 13.4974C139.161 13.9484 140.271 14.465 141.328 15.0226L141.902 15.3424Z" fill="#3A68B8"/>
<path d="M138.178 247.327V253.17H137.031V247.614C137.031 246.954 136.978 246.343 136.834 245.823C136.711 245.306 136.494 244.859 136.228 244.482C135.958 244.105 135.618 243.838 135.208 243.637C134.794 243.461 134.311 243.354 133.758 243.354C133.168 243.354 132.664 243.461 132.254 243.658C131.824 243.855 131.484 244.142 131.197 244.498C130.931 244.859 130.734 245.286 130.591 245.79C130.464 246.29 130.394 246.827 130.394 247.418V253.17H129.247V242.51H130.284V244.121C130.644 243.551 131.107 243.1 131.664 242.797C132.324 242.44 133.078 242.26 133.901 242.26C134.491 242.26 135.011 242.35 135.474 242.53C135.941 242.69 136.334 242.94 136.674 243.244C137.014 243.551 137.301 243.924 137.514 244.355C137.748 244.769 137.912 245.232 138.018 245.753C138.125 246.253 138.178 246.774 138.178 247.327Z" fill="#252525"/>
<path d="M126.503 244.904C126.888 245.749 127.08 246.717 127.08 247.816C127.08 248.914 126.888 249.927 126.499 250.772C126.109 251.616 125.548 252.272 124.803 252.748C124.061 253.219 123.168 253.457 122.123 253.457C121.079 253.457 120.169 253.215 119.436 252.74C118.699 252.256 118.137 251.596 117.748 250.747C117.363 249.898 117.167 248.923 117.167 247.816C117.167 246.708 117.363 245.729 117.756 244.88C118.154 244.035 118.719 243.379 119.461 242.916C120.198 242.449 121.087 242.215 122.123 242.215C123.16 242.215 124.082 242.453 124.819 242.928C125.56 243.404 126.122 244.064 126.503 244.904ZM124.938 251.091C125.56 250.247 125.868 249.156 125.868 247.816C125.868 246.475 125.556 245.36 124.934 244.54C124.307 243.724 123.373 243.318 122.123 243.318C121.275 243.318 120.579 243.51 120.026 243.896C119.473 244.281 119.059 244.81 118.789 245.483C118.514 246.159 118.379 246.934 118.379 247.816C118.379 249.185 118.699 250.284 119.33 251.108C119.964 251.94 120.894 252.354 122.123 252.354C123.352 252.354 124.315 251.932 124.938 251.091Z" fill="#252525"/>
<path d="M114.803 242.51H113.668V253.162H114.803V242.51Z" fill="#252525"/>
<path d="M114.803 238.91H113.668V240.362H114.803V238.91Z" fill="#252525"/>
<path d="M111.439 252.129V253.17C110.866 253.277 110.313 253.33 109.756 253.313C109.203 253.277 108.719 253.149 108.289 252.936C107.859 252.703 107.519 252.362 107.306 251.915C107.142 251.538 107.036 251.161 107.019 250.767C107.003 250.394 106.982 249.964 106.982 249.459V243.551H104.602V242.51H106.982V239.554H108.129V242.51H111.439V243.551H108.129V249.443C108.129 249.89 108.129 250.267 108.146 250.554C108.166 250.841 108.22 251.108 108.342 251.358C108.576 251.809 108.953 252.096 109.469 252.182C109.989 252.272 110.632 252.256 111.439 252.129Z" fill="#252525"/>
<path d="M108.809 183.096C110.489 187.324 111.116 192.301 110.706 198.033H76.0941C76.4505 201.473 77.4706 204.232 79.1338 206.327C81.2476 208.98 84.3611 210.304 88.4249 210.304C91.0549 210.304 93.3285 209.73 95.2252 208.566C97.1383 207.385 98.609 205.7 99.629 203.482L110.186 206.668C108.342 210.985 105.516 214.351 101.702 216.733C97.8716 219.136 93.648 220.337 89.0516 220.337C84.2013 220.337 79.9572 219.279 76.2908 217.184C72.6366 215.089 69.7731 212.166 67.7166 208.443C65.6765 204.716 64.636 200.436 64.636 195.597C64.636 190.37 65.6396 185.819 67.6634 181.969C69.6666 178.098 72.4605 175.105 76.0204 172.973C79.6008 170.862 83.7343 169.788 88.4249 169.788C93.3981 169.788 97.6053 170.952 101.075 173.281C104.549 175.589 107.126 178.869 108.809 183.096ZM76.344 189.956H99.8584C99.4856 186.84 98.6622 184.437 97.3718 182.736C95.5816 180.337 92.7386 179.136 88.8714 179.136C84.5044 179.136 81.2476 180.497 79.1338 183.203C77.7737 184.941 76.8438 187.18 76.344 189.956Z" fill="#252525"/>
<path d="M103.726 147.881L102.652 147.43V147.36C103.009 147.54 103.349 147.7 103.726 147.881Z" fill="#499067"/>
<path d="M103.226 246.524V253.17H102.185V251.305C102.349 251.054 102.472 250.767 102.579 250.464L102.185 250.357V251.305C101.866 251.862 101.436 252.325 100.878 252.686C100.092 253.203 99.1456 253.457 98.0354 253.457C97.2284 253.457 96.532 253.314 95.9953 253.027C95.4587 252.74 95.0449 252.346 94.7787 251.879C94.5083 251.395 94.3854 250.874 94.3854 250.321C94.3854 249.714 94.5083 249.209 94.7582 248.799C95.0081 248.385 95.3481 248.066 95.7618 247.811C96.192 247.561 96.6549 247.385 97.1752 247.258C97.7651 247.114 98.3918 247.008 99.0719 246.918C99.7355 246.811 100.379 246.737 101.005 246.667C101.415 246.614 101.792 246.577 102.095 246.524V246.721L102.509 246.471C102.382 246.487 102.259 246.503 102.095 246.524C102.079 245.466 101.866 244.679 101.452 244.158C100.989 243.584 100.182 243.318 99.035 243.318C98.2321 243.318 97.5684 243.494 97.0318 243.855C96.5115 244.211 96.1551 244.785 95.9421 245.54L94.7787 245.216C95.0285 244.248 95.5119 243.514 96.2452 242.994C96.9785 242.473 97.9289 242.207 99.0719 242.207C100.055 242.207 100.878 242.403 101.542 242.781C102.206 243.174 102.669 243.711 102.939 244.392C103.046 244.679 103.119 244.999 103.173 245.376C103.205 245.769 103.226 246.147 103.226 246.524ZM102.579 247.508L102.095 247.184V247.561C101.792 247.598 101.436 247.635 101.059 247.668C100.452 247.742 99.842 247.811 99.2316 247.902C98.609 247.975 98.0518 248.082 97.552 248.225C97.2489 248.295 96.9416 248.422 96.6221 248.582C96.3149 248.746 96.0486 248.976 95.852 249.263C95.6348 249.533 95.5447 249.89 95.5447 250.337C95.5447 250.661 95.6185 250.964 95.7782 251.288C95.9421 251.628 96.2084 251.879 96.5852 252.096C96.9621 252.309 97.4619 252.416 98.1051 252.416C98.822 252.416 99.4488 252.272 100.002 252.022C100.538 251.756 100.989 251.395 101.329 250.931C101.669 250.464 101.882 249.911 101.972 249.263C102.042 248.906 102.079 248.529 102.079 248.119C102.079 247.902 102.079 247.725 102.095 247.561C102.275 247.545 102.435 247.524 102.579 247.508Z" fill="#252525"/>
<path d="M102.652 4.72341L103.099 4.52661C102.939 4.59631 102.796 4.67011 102.652 4.75621V4.72341Z" fill="#499067"/>
<path d="M102.185 250.357L102.579 250.464C102.472 250.767 102.349 251.054 102.185 251.305V250.357Z" fill="#252525"/>
<path d="M102.509 246.471L102.095 246.721V246.524C102.259 246.504 102.382 246.487 102.509 246.471Z" fill="#252525"/>
<path d="M92.9351 245.003L91.8331 245.409C91.5628 244.745 91.1408 244.232 90.5591 243.867C89.9856 243.502 89.3219 243.318 88.5723 243.318C87.7284 243.318 87.036 243.51 86.4912 243.896C85.9463 244.281 85.5408 244.81 85.2704 245.491C85 246.167 84.8607 246.946 84.8444 247.836C84.8648 249.197 85.1885 250.288 85.8071 251.116C86.4256 251.94 87.3474 252.354 88.5723 252.354C89.326 252.354 89.9815 252.178 90.5345 251.829C91.0917 251.481 91.5177 250.973 91.8126 250.312L92.9351 250.698C92.5214 251.596 91.9437 252.28 91.2023 252.752C90.4608 253.223 89.5841 253.457 88.5723 253.457C87.5071 253.457 86.61 253.219 85.8808 252.74C85.1516 252.264 84.5986 251.604 84.2217 250.759C83.8407 249.915 83.6482 248.939 83.6359 247.836C83.6482 246.713 83.8448 245.729 84.2299 244.88C84.6149 244.035 85.1721 243.379 85.9013 242.916C86.6305 242.449 87.5235 242.215 88.5804 242.215C89.6374 242.215 90.5222 242.461 91.3047 242.961C92.0912 243.453 92.632 244.138 92.9351 245.003Z" fill="#252525"/>
<path d="M81.4606 242.51V253.17H80.4242V251.555C80.0637 252.129 79.6007 252.559 79.0436 252.863C78.384 253.224 77.6508 253.4 76.8069 253.4C76.2374 253.4 75.6967 253.33 75.2502 253.15C74.7872 252.99 74.3735 252.74 74.0335 252.436C73.6935 252.113 73.4067 251.756 73.1937 251.325C72.9602 250.895 72.8004 250.427 72.6898 249.927C72.5833 249.427 72.53 248.89 72.53 248.332V242.51H73.6771V248.045C73.6771 248.726 73.7303 249.316 73.8737 249.853C74.0171 250.374 74.2137 250.821 74.48 251.182C74.7504 251.555 75.0904 251.842 75.5001 252.022C75.9138 252.219 76.3972 252.309 76.9707 252.309C77.5442 252.309 78.044 252.219 78.4742 252.006C78.8838 251.809 79.2402 251.539 79.5106 251.161C79.781 250.805 79.994 250.374 80.121 249.874C80.2644 249.39 80.3176 248.853 80.3176 248.263V242.51H81.4606Z" fill="#252525"/>
<path d="M63.0629 57.0811C70.2933 60.3406 75.3239 67.6305 75.3239 76.052C75.3239 84.4735 70.2933 91.7757 63.0629 95.0353C62.9563 94.8753 62.8662 94.7155 62.7761 94.535L62.3828 93.838C61.8626 92.7966 61.3628 91.7593 60.9326 90.7015C60.6664 90.0578 60.396 89.3608 60.1625 88.6597C64.976 86.4948 68.3229 81.6568 68.3229 76.052C68.3229 70.4472 64.976 65.6051 60.1625 63.4566C60.396 62.7596 60.6664 62.0585 60.9326 61.4148C61.3996 60.3242 61.8994 59.2295 62.4525 58.1553L62.7761 57.5813C62.8662 57.405 62.9563 57.241 63.0629 57.0811Z" fill="#3A68B8"/>
<path d="M69.9697 238.963V253.17H68.9333V251.341C68.6097 251.895 68.2164 252.346 67.733 252.703C67.0734 253.203 66.2664 253.457 65.2996 253.457C64.3328 253.457 63.4562 253.203 62.7597 252.703C62.0592 252.219 61.5431 251.538 61.1662 250.698C60.8098 249.837 60.6295 248.89 60.6295 247.811C60.6295 246.733 60.8098 245.806 61.1662 244.966C61.5226 244.121 62.0428 243.441 62.7229 242.957C63.4029 242.457 64.2263 242.207 65.1931 242.207C66.1599 242.207 67.0202 242.457 67.7166 242.94C68.1631 243.244 68.5236 243.658 68.8268 244.121V238.963H69.9697ZM68.9333 247.811C68.9333 246.934 68.8063 246.163 68.54 245.482C68.2696 244.785 67.8764 244.265 67.3602 243.871C66.8195 243.494 66.1763 243.297 65.3897 243.297C64.6032 243.297 63.9232 243.494 63.4029 243.892C62.8663 244.302 62.473 244.839 62.2231 245.519C61.9732 246.2 61.8462 246.954 61.8462 247.811C61.8462 248.668 61.9732 249.443 62.2395 250.14C62.5098 250.821 62.9031 251.378 63.4193 251.772C63.9396 252.166 64.5827 252.379 65.3734 252.379C66.164 252.379 66.8399 252.166 67.3602 251.772C67.8969 251.378 68.2901 250.841 68.54 250.14C68.8063 249.46 68.9333 248.689 68.9333 247.811Z" fill="#252525"/>
<path d="M59.3268 174.224L48.565 177.192C47.3238 173.027 45.2099 169.767 42.2276 167.418C39.2453 165.068 35.3781 163.896 30.622 163.896C26.3411 163.896 22.7729 164.855 19.9258 166.774C17.0746 168.697 14.9362 171.395 13.5023 174.867C12.0685 178.34 11.3394 182.412 11.3107 187.082C11.3107 191.751 12.0276 195.823 13.4573 199.296C14.8911 202.768 17.0377 205.462 19.9012 207.385C22.7688 209.308 26.3411 210.267 30.622 210.267C35.3781 210.267 39.2453 209.087 42.2276 206.721C45.2099 204.355 47.3238 201.104 48.565 196.967L59.3268 199.935C57.3481 206.175 53.907 211.132 49.0075 214.81C44.1038 218.492 37.9754 220.329 30.622 220.329C24.2436 220.329 18.7829 218.935 14.2315 216.139C9.68433 213.346 6.19404 209.456 3.75657 204.458C1.3191 199.464 0.102417 193.67 0.102417 187.082C0.102417 180.493 1.3191 174.695 3.75657 169.701C6.19404 164.708 9.68433 160.812 14.2315 158.02C18.7829 155.228 24.2436 153.83 30.622 153.83C37.9754 153.83 44.1038 155.671 49.0075 159.349C53.907 163.026 57.3481 167.988 59.3268 174.224Z" fill="#252525"/>
<path d="M58.8515 252.059V253.162H50.0807V238.959H58.8515V240.062H51.2155V245.458H57.6676V246.561H51.2155V252.059H58.8515Z" fill="#252525"/>
<path d="M52.1291 55.2524H52.1987C52.0184 55.6132 51.8587 55.9536 51.6989 56.3103L52.1291 55.2524Z" fill="#499067"/>
<path d="M52.1987 96.8639H52.1618L51.9652 96.417C52.0553 96.5769 52.1086 96.7204 52.1987 96.8639Z" fill="#499067"/>
</svg>
