<svg width="180" height="56" viewBox="0 0 180 56" fill="none" xmlns="http://www.w3.org/2000/svg">
<g clip-path="url(#clip0_2303_130)">
<path d="M178.102 19.8712C179.071 21.7228 179.552 23.8586 179.552 26.2606C179.552 28.6626 179.071 30.8253 178.093 32.6799C177.12 34.5315 175.756 35.9853 174.018 37.0322C172.269 38.0732 170.232 38.5966 167.889 38.5966C165.547 38.5966 163.51 38.0732 161.769 37.0143C160.019 35.9673 158.664 34.5165 157.713 32.6619C156.75 30.8073 156.268 28.6745 156.268 26.2606C156.268 23.8466 156.759 21.6629 157.74 19.8173C158.727 17.9747 160.091 16.5299 161.829 15.4889C163.579 14.4509 165.598 13.9334 167.889 13.9334C170.181 13.9334 172.287 14.4599 174.036 15.5069C175.783 16.5658 177.138 18.0166 178.102 19.8712ZM172.523 31.6299C173.528 30.248 174.036 28.4562 174.036 26.2606C174.036 24.0649 173.519 22.1954 172.496 20.8403C171.473 19.4943 169.935 18.8212 167.889 18.8212C166.489 18.8212 165.344 19.1353 164.434 19.7665C163.534 20.3857 162.87 21.2591 162.442 22.3809C162.005 23.4996 161.787 24.7918 161.787 26.2606C161.787 28.525 162.302 30.3347 163.334 31.6838C164.366 33.0388 165.888 33.7119 167.889 33.7119C169.89 33.7119 171.509 33.0209 172.523 31.6299Z" fill="#252525"/>
<path d="M155.622 14.5796V19.4494C154.931 19.249 154.135 19.1802 153.226 19.249C152.326 19.3297 151.512 19.581 150.797 20.0118C150.07 20.4036 149.484 20.9032 149.029 21.5044C148.575 22.1086 148.243 22.7996 148.024 23.5684C147.806 24.3461 147.701 25.1777 147.701 26.0691V37.9505H142.463V14.5796H147.073V18.3306C147.246 18.0076 147.447 17.6935 147.665 17.4063C148.156 16.7572 148.733 16.2337 149.415 15.815C149.992 15.4201 150.63 15.115 151.33 14.8966C152.029 14.6693 152.747 14.5377 153.48 14.4838C154.216 14.433 154.931 14.4659 155.622 14.5796Z" fill="#252525"/>
<path d="M154.731 49.6136C154.907 50.0354 154.994 50.496 154.994 51.0045C154.994 51.5131 154.907 51.9917 154.731 52.4134C154.548 52.8232 154.294 53.1553 153.953 53.4006C153.612 53.6369 153.202 53.7595 152.711 53.7595C152.221 53.7595 151.847 53.6369 151.521 53.4006C151.312 53.242 151.129 53.0416 150.989 52.8143V55.9282H150.429V48.4171H150.938V49.2905C151.084 49.0273 151.285 48.7999 151.53 48.6265C151.871 48.3901 152.275 48.2765 152.762 48.2765C153.25 48.2765 153.639 48.3901 153.971 48.6354C154.303 48.8807 154.557 49.2038 154.731 49.6136ZM154.408 51.0045C154.408 50.5947 154.339 50.2178 154.216 49.8858C154.084 49.5538 153.89 49.2905 153.639 49.0991C153.385 48.8987 153.061 48.8 152.667 48.8C152.272 48.8 151.967 48.8987 151.706 49.0811C151.452 49.2726 151.261 49.5358 151.129 49.8678C150.997 50.1999 150.938 50.5858 150.938 51.0045C150.938 51.4233 150.997 51.8092 151.129 52.1502C151.252 52.4822 151.443 52.7455 151.706 52.9369C151.961 53.1373 152.284 53.233 152.676 53.233C153.067 53.233 153.376 53.1373 153.63 52.9369C153.884 52.7455 154.076 52.4733 154.207 52.1412C154.339 51.8092 154.408 51.4323 154.408 51.0045Z" fill="#252525"/>
<path d="M149.083 48.4171V53.6189H148.575V52.8322C148.401 53.1104 148.174 53.3288 147.902 53.4783C147.578 53.6548 147.219 53.7416 146.81 53.7416C146.528 53.7416 146.268 53.6967 146.05 53.61C145.823 53.5322 145.619 53.4095 145.455 53.26C145.287 53.1014 145.15 52.9279 145.045 52.7186C144.931 52.5092 144.85 52.2818 144.8 52.0365C144.746 51.7913 144.719 51.528 144.719 51.2678V48.4171H145.278V51.1272C145.278 51.4502 145.305 51.7404 145.377 52.0006C145.437 52.2549 145.541 52.4733 145.673 52.6557C145.805 52.8322 145.969 52.9728 146.173 53.0685C146.373 53.1553 146.609 53.2001 146.887 53.2001C147.166 53.2001 147.414 53.1553 147.623 53.0596C147.824 52.9638 147.997 52.8232 148.129 52.6468C148.26 52.4643 148.365 52.2549 148.428 52.0186C148.497 51.7733 148.524 51.5131 148.524 51.2229V48.4171H149.083Z" fill="#252525"/>
<path d="M143.474 49.5867C143.663 49.9995 143.756 50.4721 143.756 51.0075C143.756 51.543 143.66 52.0365 143.471 52.4493C143.283 52.8621 143.005 53.1852 142.643 53.4155C142.281 53.6459 141.844 53.7625 141.336 53.7625C140.827 53.7625 140.378 53.6459 140.019 53.4095C139.66 53.1762 139.385 52.8532 139.197 52.4374C139.008 52.0246 138.913 51.549 138.913 51.0075C138.913 50.4661 139.008 49.9875 139.203 49.5747C139.394 49.1649 139.669 48.8448 140.031 48.6145C140.393 48.3872 140.827 48.2735 141.336 48.2735C141.844 48.2735 142.29 48.3902 142.652 48.6235C143.011 48.8568 143.286 49.1769 143.474 49.5867ZM142.709 52.6049C143.011 52.1951 143.163 51.6626 143.163 51.0075C143.163 50.3524 143.011 49.808 142.706 49.4102C142.401 49.0123 141.943 48.8119 141.336 48.8119C140.92 48.8119 140.579 48.9076 140.31 49.0931C140.04 49.2816 139.837 49.5418 139.705 49.8708C139.571 50.1999 139.505 50.5798 139.505 51.0075C139.505 51.6746 139.66 52.213 139.969 52.6168C140.28 53.0207 140.734 53.2241 141.336 53.2241C141.937 53.2241 142.406 53.0177 142.709 52.6049Z" fill="#252525"/>
<path d="M138.38 48.4171V48.9405C138.18 48.8987 137.961 48.8897 137.725 48.9136C137.498 48.9405 137.279 49.0452 137.079 49.2128C136.903 49.3683 136.774 49.5448 136.693 49.7452C136.615 49.9546 136.562 50.164 136.538 50.3913C136.52 50.6097 136.511 50.831 136.511 51.0404V53.6189H135.951V48.4171H136.457V49.2307C136.484 49.1769 136.52 49.132 136.547 49.0901C136.633 48.9585 136.729 48.8628 136.816 48.785C136.956 48.6534 137.121 48.5577 137.306 48.4859C137.489 48.426 137.683 48.3812 137.866 48.3722C138.057 48.3632 138.234 48.3722 138.38 48.4171Z" fill="#252525"/>
<path d="M138.138 6.79023V37.9505H133.528V36.2365C133.241 36.4998 132.927 36.754 132.601 36.9814C131.055 38.0552 129.14 38.5967 126.867 38.5967C124.716 38.5967 122.837 38.0552 121.237 36.9814C119.637 35.8955 118.395 34.4178 117.519 32.5662C116.636 30.7026 116.2 28.6057 116.2 26.2606C116.2 23.9154 116.636 21.7856 117.528 19.931C118.413 18.0794 119.67 16.6166 121.306 15.5428C122.933 14.4659 124.848 13.9334 127.058 13.9334C129.269 13.9334 131.141 14.4659 132.655 15.5428C132.733 15.5936 132.813 15.6564 132.882 15.7163V6.79023H138.138ZM133.528 26.2606C133.528 24.741 133.328 23.3949 132.933 22.2492C132.532 21.1036 131.919 20.2122 131.081 19.5631C130.25 18.9259 129.167 18.6028 127.836 18.6028C126.439 18.6028 125.284 18.9439 124.375 19.6348C123.466 20.3169 122.793 21.2442 122.365 22.4048C121.928 23.5594 121.716 24.8547 121.716 26.2606C121.716 27.6665 121.928 28.9886 122.356 30.1522C122.775 31.3069 123.43 32.2342 124.315 32.9072C125.189 33.5892 126.307 33.9302 127.662 33.9302C129.017 33.9302 130.19 33.6072 131.055 32.9581C131.91 32.3209 132.532 31.4205 132.933 30.2659C133.328 29.1113 133.528 27.7831 133.528 26.2606Z" fill="#252525"/>
<path d="M134.982 50.3524C134.985 50.4302 134.985 50.49 134.985 50.5319C134.985 51.1451 134.877 51.6955 134.665 52.1831C134.453 52.6707 134.124 53.0566 133.684 53.3377C133.241 53.6219 132.682 53.7625 132 53.7625C131.497 53.7625 131.049 53.6758 130.66 53.5023C130.271 53.3288 129.942 53.0835 129.676 52.7664C129.409 52.4463 129.206 52.0664 129.068 51.6237C128.931 51.181 128.862 50.6904 128.862 50.152C128.862 49.4371 128.982 48.8089 129.224 48.2675C129.469 47.7261 129.822 47.3043 130.286 47.0022C130.752 46.7001 131.324 46.5505 132 46.5505C132.676 46.5505 133.277 46.715 133.726 47.0411C134.177 47.3701 134.495 47.7979 134.677 48.3303L134.127 48.5008C133.968 48.0731 133.708 47.7321 133.346 47.4778C132.984 47.2206 132.541 47.0919 132.015 47.0889C131.446 47.0889 130.974 47.2176 130.597 47.4778C130.22 47.7351 129.939 48.094 129.747 48.5577C129.559 49.0213 129.46 49.5508 129.454 50.152C129.448 50.7503 129.541 51.2827 129.729 51.7434C129.921 52.2011 130.208 52.563 130.591 52.8262C130.971 53.0865 131.446 53.2181 132.015 53.2181C132.559 53.2211 133.002 53.1164 133.346 52.901C133.69 52.6856 133.947 52.3835 134.115 51.9917C134.285 51.6028 134.375 51.1451 134.39 50.6216H132.664V50.1161H134.964C134.976 50.1969 134.982 50.2747 134.982 50.3524Z" fill="#252525"/>
<path d="M126.071 50.7682V53.6189H125.512V50.9088C125.512 50.5858 125.476 50.2956 125.416 50.0354C125.344 49.7811 125.248 49.5627 125.117 49.3773C124.979 49.2038 124.812 49.0632 124.611 48.9675C124.411 48.8807 124.175 48.8358 123.902 48.8358C123.63 48.8358 123.379 48.8807 123.169 48.9764C122.957 49.0722 122.793 49.2128 122.661 49.3863C122.529 49.5717 122.425 49.7811 122.365 50.0174C122.293 50.2627 122.26 50.5229 122.26 50.8131V53.6189H121.71V48.4171H122.206V49.2128C122.383 48.9226 122.601 48.7042 122.879 48.5577C123.202 48.3812 123.57 48.2944 123.974 48.2944C124.261 48.2944 124.516 48.3393 124.743 48.426C124.97 48.5038 125.171 48.6265 125.335 48.776C125.503 48.9316 125.643 49.1081 125.748 49.3174C125.853 49.5268 125.939 49.7542 125.993 49.9995C126.044 50.2447 126.071 50.505 126.071 50.7682Z" fill="#252525"/>
<path d="M120.364 49.5867C120.552 49.9995 120.645 50.4721 120.645 51.0075C120.645 51.543 120.549 52.0365 120.361 52.4493C120.172 52.8621 119.897 53.1852 119.532 53.4155C119.17 53.6459 118.733 53.7625 118.225 53.7625C117.716 53.7625 117.268 53.6459 116.909 53.4095C116.55 53.1762 116.275 52.8532 116.086 52.4374C115.898 52.0246 115.802 51.549 115.802 51.0075C115.802 50.4661 115.898 49.9875 116.092 49.5747C116.284 49.1649 116.562 48.8448 116.921 48.6145C117.283 48.3872 117.716 48.2735 118.225 48.2735C118.733 48.2735 119.179 48.3902 119.541 48.6235C119.903 48.8568 120.175 49.1769 120.364 49.5867ZM119.598 52.6049C119.903 52.1951 120.053 51.6626 120.053 51.0075C120.053 50.3524 119.9 49.808 119.595 49.4102C119.29 49.0123 118.832 48.8119 118.225 48.8119C117.809 48.8119 117.468 48.9076 117.199 49.0931C116.93 49.2816 116.726 49.5418 116.595 49.8708C116.46 50.1999 116.394 50.5798 116.394 51.0075C116.394 51.6746 116.55 52.213 116.858 52.6168C117.169 53.0207 117.624 53.2241 118.225 53.2241C118.826 53.2241 119.296 53.0177 119.598 52.6049Z" fill="#252525"/>
<path d="M114.647 48.4171H114.094V53.6159H114.647V48.4171Z" fill="#252525"/>
<path d="M114.647 46.6612H114.094V47.3701H114.647V46.6612Z" fill="#252525"/>
<path d="M112.58 20.4216C113.403 22.4855 113.717 24.9145 113.517 27.7143H96.6068C96.7743 29.3924 97.2709 30.7475 98.0845 31.7615C99.1255 33.0628 100.636 33.7119 102.631 33.7119C103.918 33.7119 105.018 33.4217 105.955 32.8534C106.879 32.285 107.597 31.4564 108.105 30.3796L113.253 31.935C112.362 34.0439 110.98 35.6771 109.11 36.8497C107.238 38.0133 105.183 38.5966 102.927 38.5966C100.672 38.5966 98.4853 38.0911 96.7025 37.0591C94.9107 36.0361 93.5108 34.6212 92.5147 32.8025C91.5096 30.9838 91.0101 28.8929 91.0101 26.5238C91.0101 23.9722 91.5007 21.7497 92.4788 19.8712C93.46 17.9896 94.824 16.5299 96.5709 15.4889C98.3118 14.4509 100.331 13.9334 102.631 13.9334C105.054 13.9334 107.106 14.4928 108.802 15.6295C110.498 16.7572 111.758 18.3576 112.58 20.4216ZM96.7295 23.7778H108.21C108.025 22.2582 107.624 21.0766 107.002 20.2451C106.119 19.0844 104.737 18.4982 102.841 18.4982C100.708 18.4982 99.1255 19.1532 98.0845 20.4724C97.4204 21.3219 96.9658 22.4227 96.7295 23.7778Z" fill="#252525"/>
<path d="M112.999 53.1194V53.6189C112.721 53.6788 112.449 53.6967 112.179 53.6877C111.916 53.6698 111.671 53.61 111.462 53.5053C111.252 53.4006 111.094 53.2331 110.989 53.0057C110.902 52.8232 110.857 52.6408 110.839 52.4553C110.833 52.2639 110.833 52.0545 110.833 51.8092V48.9226H109.661V48.4171H110.833V46.9753H111.393V48.4171H112.999V48.9226H111.393V52.3416C111.399 52.4912 111.435 52.6139 111.497 52.7365C111.611 52.9549 111.794 53.0955 112.039 53.1373C112.293 53.1822 112.616 53.1822 112.999 53.1194Z" fill="#252525"/>
<path d="M108.638 50.3494L108.437 50.4721V50.3823C108.515 50.3674 108.575 50.3584 108.638 50.3494Z" fill="#252525"/>
<path d="M108.437 50.3823V50.4721L108.638 50.3494C108.575 50.3584 108.515 50.3674 108.437 50.3823C108.446 49.8678 108.339 49.473 108.12 49.2217C107.902 48.9405 107.51 48.8089 106.942 48.8089C106.547 48.8089 106.224 48.8987 105.97 49.0722C105.718 49.2546 105.533 49.5268 105.437 49.9037L104.869 49.7452C104.982 49.2726 105.228 48.9046 105.587 48.6534C105.946 48.3991 106.4 48.2765 106.969 48.2765C107.438 48.2765 107.842 48.3632 108.174 48.5577C108.497 48.7401 108.725 49.0034 108.847 49.3354C108.907 49.473 108.943 49.6405 108.961 49.823C108.979 50.0084 108.988 50.1909 108.988 50.3764V53.6189H108.488V52.7006C108.339 52.9818 108.12 53.2091 107.851 53.3826C107.456 53.6369 106.993 53.7595 106.46 53.7595C106.059 53.7595 105.727 53.6877 105.464 53.5501C105.192 53.4095 105 53.2241 104.869 52.9878C104.737 52.7544 104.668 52.5002 104.668 52.228C104.668 51.9318 104.728 51.6865 104.851 51.4861C104.973 51.2917 105.141 51.1272 105.35 51.0045C105.56 50.8819 105.787 50.7951 106.032 50.7323C106.32 50.6725 106.628 50.6097 106.96 50.5678C107.292 50.5229 107.606 50.4811 107.902 50.4452C108.114 50.4182 108.288 50.4003 108.437 50.3823ZM108.437 51.1541V50.8909C108.279 50.8998 108.114 50.9178 107.929 50.9447C107.642 50.9686 107.343 51.0045 107.037 51.0494C106.741 51.0913 106.469 51.1451 106.224 51.2049C106.074 51.2498 105.919 51.3096 105.769 51.3904C105.614 51.4682 105.491 51.5729 105.386 51.7135C105.288 51.8541 105.237 52.0276 105.237 52.2369C105.237 52.3955 105.279 52.551 105.35 52.7096C105.428 52.8681 105.56 52.9967 105.742 53.0954C105.928 53.2001 106.182 53.251 106.487 53.251C106.846 53.251 107.151 53.1912 107.414 53.0596C107.684 52.9369 107.902 52.7544 108.06 52.5271C108.225 52.2998 108.333 52.0276 108.375 51.7135C108.41 51.546 108.428 51.3545 108.437 51.1541Z" fill="#252525"/>
<path d="M103.965 49.6345L103.427 49.8349C103.295 49.5089 103.089 49.2576 102.805 49.0811C102.524 48.9017 102.198 48.8119 101.833 48.8119C101.423 48.8119 101.085 48.9076 100.819 49.0931C100.549 49.2816 100.352 49.5418 100.22 49.8708C100.089 50.2029 100.02 50.5858 100.014 51.0165C100.023 51.6836 100.178 52.216 100.484 52.6168C100.786 53.0207 101.234 53.2241 101.833 53.2241C102.204 53.2241 102.524 53.1373 102.793 52.9668C103.065 52.7963 103.271 52.551 103.415 52.225L103.965 52.4134C103.762 52.8532 103.481 53.1882 103.119 53.4185C102.754 53.6458 102.326 53.7625 101.833 53.7625C101.312 53.7625 100.875 53.6458 100.519 53.4125C100.163 53.1792 99.8912 52.8562 99.7058 52.4434C99.5233 52.0335 99.4276 51.5579 99.4216 51.0165C99.4276 50.4691 99.5233 49.9875 99.7118 49.5747C99.9002 49.1649 100.172 48.8448 100.528 48.6145C100.884 48.3872 101.321 48.2735 101.839 48.2735C102.356 48.2735 102.784 48.3961 103.17 48.6384C103.553 48.8807 103.819 49.2128 103.965 49.6345Z" fill="#252525"/>
<path d="M98.3657 48.4171V53.6189H97.8572V52.8232C97.6837 53.1104 97.4623 53.3288 97.1841 53.4783C96.8611 53.6548 96.4931 53.7416 96.0923 53.7416C95.8021 53.7416 95.5479 53.6967 95.3206 53.61C95.0932 53.5322 94.9018 53.4095 94.7372 53.26C94.5697 53.1014 94.4291 52.9279 94.3155 52.7186C94.2108 52.5092 94.133 52.2818 94.0702 52.0365C94.0193 51.7913 93.9924 51.528 93.9924 51.2678V48.4171H94.5518V51.1272C94.5518 51.4502 94.5877 51.7404 94.6475 52.0006C94.7193 52.2549 94.815 52.4733 94.9556 52.6557C95.0842 52.8322 95.2518 52.9728 95.4522 53.0685C95.6526 53.1553 95.8889 53.2001 96.1611 53.2001C96.4333 53.2001 96.6846 53.1553 96.897 53.0596C97.1063 52.9638 97.2709 52.8232 97.4025 52.6468C97.5431 52.4643 97.6388 52.2549 97.7076 52.0186C97.7704 51.7733 97.8033 51.5131 97.8033 51.2229V48.4171H98.3657Z" fill="#252525"/>
<path d="M92.7421 46.6851V53.6189H92.2365V52.7365C92.087 52.9967 91.8955 53.2241 91.6592 53.4006C91.3362 53.6369 90.9323 53.7595 90.4687 53.7595C89.9811 53.7595 89.5593 53.6369 89.2183 53.4006C88.8863 53.1553 88.623 52.8232 88.4495 52.4134C88.2671 51.9917 88.1773 51.528 88.1773 51.0045C88.1773 50.4811 88.2671 50.0354 88.4495 49.6136C88.623 49.2038 88.8773 48.8807 89.2093 48.6354C89.5414 48.3901 89.9452 48.2765 90.4178 48.2765C90.8904 48.2765 91.3092 48.3901 91.6413 48.6265C91.8686 48.794 92.0511 48.9944 92.1917 49.2307V46.6851H92.7421ZM92.0511 52.1502C92.1737 51.8092 92.2365 51.4323 92.2365 51.0045C92.2365 50.5768 92.1737 50.1999 92.0421 49.8678C91.9195 49.5358 91.728 49.2726 91.4648 49.0811C91.2135 48.8987 90.8904 48.8 90.5135 48.8C90.1366 48.8 89.7867 48.8987 89.5324 49.0991C89.2811 49.2905 89.0867 49.5538 88.964 49.8858C88.8354 50.2178 88.7726 50.5947 88.7726 51.0045C88.7726 51.4143 88.8354 51.8092 88.964 52.1412C89.0957 52.4733 89.2901 52.7455 89.5414 52.9369C89.7956 53.1373 90.1187 53.2331 90.5046 53.2331C90.8904 53.2331 91.2135 53.1373 91.4737 52.9369C91.728 52.7455 91.9195 52.4822 92.0511 52.1502Z" fill="#252525"/>
<path d="M88.4107 16.0932L83.155 17.5439C82.5477 15.5099 81.5157 13.9185 80.059 12.7728C78.6022 11.6272 76.7117 11.0528 74.3905 11.0528C72.2996 11.0528 70.5556 11.5225 69.1647 12.4587C67.7707 13.398 66.7268 14.7142 66.0268 16.4072C65.3269 18.1033 64.9709 20.0895 64.9559 22.3689C64.9559 24.6483 65.3059 26.6375 66.0059 28.3305C66.7029 30.0266 67.7528 31.3428 69.1527 32.282C70.5526 33.2183 72.2996 33.6879 74.3905 33.6879C76.7117 33.6879 78.6022 33.1106 80.059 31.956C81.5157 30.8013 82.5477 29.216 83.155 27.1968L88.4107 28.6446C87.4445 31.6898 85.7634 34.1097 83.3703 35.9045C80.9743 37.7023 77.983 38.5996 74.3905 38.5996C71.2735 38.5996 68.6053 37.9176 66.3828 36.5536C64.1632 35.1896 62.4552 33.2901 61.2647 30.8522C60.0771 28.4143 59.4819 25.5875 59.4819 22.3689C59.4819 19.1503 60.0771 16.3265 61.2647 13.8886C62.4552 11.4507 64.1632 9.54821 66.3828 8.18418C68.6053 6.82314 71.2735 6.14112 74.3905 6.14112C77.983 6.14112 80.9743 7.03851 83.3703 8.83329C85.7634 10.6311 87.4445 13.051 88.4107 16.0932Z" fill="#252525"/>
<path d="M87.3129 53.0775V53.6159H83.0293V46.6851H87.3129V47.2235H83.5827V49.8589H86.7355V50.3973H83.5827V53.0775H87.3129Z" fill="#252525"/>
<path d="M48.441 18.7674C49.2457 20.6997 49.6465 22.7458 49.6465 24.8636C49.6465 26.9815 49.2457 29.0155 48.441 30.9479C48.3991 31.0616 48.3453 31.1842 48.2914 31.2979C48.2406 31.4205 48.1867 31.5342 48.1269 31.6479C46.395 35.3631 43.3528 38.1868 39.6735 39.6735C38.1868 43.3468 35.3631 46.389 31.6539 48.1269C31.603 48.1538 31.5581 48.1718 31.5073 48.1987C31.3218 48.2855 31.1394 48.3632 30.9479 48.444C29.0245 49.2397 26.9785 49.6405 24.8606 49.6405C22.7428 49.6405 20.6997 49.2397 18.7763 48.444C18.6537 48.3901 18.54 48.3393 18.4174 48.2944C18.2947 48.2316 18.1901 48.1808 18.0674 48.1269C14.3612 46.389 11.5284 43.3468 10.0507 39.6735C6.37744 38.1868 3.32632 35.3631 1.59735 31.6479C1.58838 31.6299 1.5794 31.621 1.57043 31.603C1.56146 31.603 1.56146 31.594 1.56146 31.594C1.54351 31.5611 1.53453 31.5342 1.51659 31.4983C1.43881 31.3248 1.35207 31.1304 1.28027 30.9479C0.475617 29.0155 0.0747833 26.9695 0.0747833 24.8636C0.0747833 22.7578 0.475617 20.6997 1.28027 18.7674C1.32514 18.6537 1.376 18.5341 1.42984 18.4204C1.48368 18.2977 1.53453 18.1841 1.59735 18.0704C3.32632 14.3522 6.36846 11.5284 10.0507 10.0418C11.5284 6.37145 14.3612 3.32931 18.0674 1.58838C18.1213 1.56145 18.1631 1.54351 18.217 1.51958C18.3994 1.42984 18.5849 1.35206 18.7763 1.27429C20.6997 0.478606 22.7458 0.0747814 24.8606 0.0747814C26.9755 0.0747814 29.0245 0.478606 30.9479 1.27429C31.0676 1.32514 31.1812 1.37899 31.3039 1.42385C31.4176 1.48368 31.5312 1.53752 31.6539 1.58838C35.3631 3.32931 38.1868 6.37145 39.6735 10.0418C43.3438 11.5284 46.395 14.3522 48.1269 18.0704C48.1359 18.0854 48.1449 18.0943 48.1538 18.1123C48.1628 18.1123 48.1628 18.1213 48.1628 18.1213C48.1778 18.1482 48.1867 18.1841 48.2047 18.217C48.2855 18.4024 48.3722 18.5849 48.441 18.7674ZM47.3582 24.8636C47.3582 24.6692 47.3582 24.4957 47.3492 24.3043C47.3402 24.1457 47.3312 23.9812 47.3223 23.8227C47.3133 23.7449 47.3133 23.6731 47.3043 23.5953C47.2864 23.4458 47.2774 23.3052 47.2535 23.1586C47.2355 22.9642 47.2086 22.7817 47.1727 22.5902C47.1488 22.4497 47.1218 22.3001 47.0949 22.1535C47.077 22.0727 47.059 21.995 47.0411 21.9172C47.0082 21.7587 46.9723 21.6001 46.9274 21.4446C46.9035 21.313 46.8676 21.1903 46.8227 21.0677C46.7719 20.8493 46.7001 20.6309 46.6223 20.4126C46.5355 20.1583 46.4398 19.8981 46.3351 19.6438C46.1407 19.1712 45.9223 18.7165 45.686 18.2798H45.68C44.4626 16.0483 42.6798 14.2386 40.547 13.0061C40.7384 13.9963 40.8341 15.0103 40.8341 16.0483C40.8341 19.3028 39.856 22.327 38.1779 24.8636C39.856 27.3883 40.8341 30.4155 40.8341 33.667C40.8341 34.708 40.7384 35.722 40.547 36.7091C42.6798 35.4767 44.4626 33.667 45.68 31.4385H45.686C45.9223 31.0018 46.1407 30.5471 46.3351 30.0745C46.4398 29.8202 46.5355 29.5659 46.6223 29.3027C46.7898 28.8062 46.9274 28.3066 47.0411 27.8011C47.059 27.7203 47.077 27.6425 47.0949 27.5648C47.1218 27.4152 47.1488 27.2656 47.1727 27.128C47.2086 26.9336 47.2355 26.7511 47.2535 26.5687C47.2774 26.4101 47.2864 26.2695 47.3043 26.123C47.3133 26.0512 47.3133 25.9734 47.3223 25.8956C47.3312 25.7371 47.3402 25.5696 47.3492 25.414C47.3582 25.2226 47.3582 25.0461 47.3582 24.8636ZM36.6822 22.9402C37.8698 20.9121 38.5518 18.558 38.5518 16.0483C38.5518 14.5796 38.3155 13.1647 37.8877 11.8276C36.5506 11.3998 35.1357 11.1635 33.673 11.1635C31.1573 11.1635 28.8032 11.8455 26.7751 13.0331C28.5429 14.6334 29.9488 16.6166 30.8582 18.8661C33.0987 19.7754 35.0909 21.1813 36.6822 22.9402ZM38.5518 33.667C38.5518 31.1573 37.8698 28.8062 36.6912 26.7781C35.0909 28.5339 33.0987 29.9428 30.8582 30.8612C29.9488 33.0987 28.5429 35.0819 26.7751 36.6822C28.8032 37.8638 31.1573 38.5458 33.673 38.5458C35.1357 38.5458 36.5506 38.3185 37.8877 37.8907C38.3244 36.5536 38.5518 35.1268 38.5518 33.667ZM36.7091 9.17729C35.4767 7.04449 33.667 5.25271 31.4355 4.03824C30.9988 3.80193 30.5441 3.58357 30.0715 3.38913C29.8172 3.28444 29.5659 3.18872 29.3027 3.10197C28.8121 2.92548 28.3066 2.78788 27.7981 2.67421C27.7203 2.65627 27.6425 2.63832 27.5618 2.62935C27.4152 2.59345 27.2746 2.56653 27.125 2.5426C26.9426 2.51568 26.7511 2.48875 26.5657 2.46183C26.4191 2.44688 26.2695 2.42893 26.1289 2.41996C26.0512 2.41098 25.9794 2.40201 25.9016 2.40201C25.7371 2.38406 25.5785 2.37509 25.411 2.37509C25.2286 2.36611 25.0461 2.35714 24.8606 2.35714C24.6752 2.35714 24.4927 2.36611 24.3102 2.37509C24.1457 2.37509 23.9782 2.38406 23.8197 2.40201C23.7419 2.40201 23.6731 2.41098 23.5923 2.41996C23.4547 2.42893 23.3052 2.44688 23.1556 2.46183C22.9731 2.48875 22.7817 2.51568 22.5962 2.5426C22.4497 2.56653 22.3091 2.59345 22.1595 2.62935C22.0728 2.63832 22.001 2.65627 21.9232 2.67421C21.7676 2.70712 21.6001 2.74301 21.4416 2.78788C21.3189 2.82079 21.1993 2.85668 21.0767 2.89258C20.8493 2.95241 20.6309 3.02121 20.4126 3.10197C20.1583 3.18872 19.8951 3.28444 19.6408 3.38913C19.1772 3.58357 18.7225 3.80193 18.2858 4.03824C16.0573 5.26168 14.2475 7.04449 13.0061 9.17729C14.0022 8.98584 15.0163 8.89012 16.0483 8.89012C19.2998 8.89012 22.336 9.86827 24.8606 11.5374C27.3883 9.86827 30.4215 8.89012 33.673 8.89012C34.705 8.89012 35.719 8.98584 36.7091 9.17729ZM31.4355 45.68C33.667 44.4566 35.4767 42.6738 36.7181 40.538C35.719 40.7324 34.705 40.8371 33.673 40.8371C30.4215 40.8371 27.3883 39.847 24.8606 38.1779C22.336 39.847 19.2998 40.8371 16.0483 40.8371C15.0163 40.8371 14.0022 40.7324 13.0151 40.538C14.2475 42.6738 16.0573 44.4656 18.2858 45.68C18.7225 45.9163 19.1772 46.1347 19.6408 46.3262C19.8951 46.4308 20.1583 46.5266 20.4126 46.6253C20.9091 46.7898 21.4177 46.9304 21.9232 47.0441C22.001 47.062 22.0728 47.08 22.1595 47.0889C22.3091 47.1218 22.4497 47.1488 22.5962 47.1757C22.7817 47.2026 22.9731 47.2265 23.1556 47.2535C23.3052 47.2714 23.4547 47.2893 23.5923 47.2983C23.6731 47.3073 23.7419 47.3163 23.8197 47.3163C23.9782 47.3312 24.1457 47.3402 24.3102 47.3402C24.4927 47.3492 24.6782 47.3582 24.8606 47.3582C25.0431 47.3582 25.2286 47.3492 25.411 47.3402C25.5785 47.3402 25.7371 47.3312 25.9016 47.3163C25.9794 47.3163 26.0512 47.3073 26.1289 47.2983C26.2695 47.2893 26.4191 47.2714 26.5657 47.2535C26.7511 47.2265 26.9426 47.2026 27.125 47.1757C27.2746 47.1488 27.4152 47.1218 27.5618 47.0889C27.6425 47.08 27.7203 47.062 27.7981 47.0441C27.9566 47.0082 28.1152 46.9753 28.2797 46.9304C28.4023 46.8945 28.525 46.8616 28.6476 46.8257C28.875 46.7629 29.0933 46.6941 29.3027 46.6253C29.5659 46.5266 29.8172 46.4308 30.0715 46.3262C30.5441 46.1347 30.9988 45.9163 31.4355 45.68ZM35.3361 24.8547C34.3131 23.6551 33.0987 22.6321 31.7346 21.8275C30.903 21.3489 30.0116 20.945 29.0754 20.6399C28.7792 19.7036 28.3664 18.8122 27.8878 17.9807C27.0921 16.6166 26.0601 15.4022 24.8517 14.3881C23.6551 15.4022 22.6321 16.6166 21.8364 17.9807C21.3459 18.8122 20.945 19.7036 20.6459 20.6399C19.7126 20.945 18.8212 21.3489 17.9807 21.8364C16.6166 22.6321 15.4022 23.6551 14.3881 24.8636C15.4022 26.0601 16.6256 27.0832 17.9807 27.8878C18.8212 28.3784 19.7126 28.7703 20.6459 29.0784C20.945 30.0116 21.3459 30.903 21.8364 31.7346C22.6321 33.0987 23.6641 34.3221 24.8606 35.3272C26.0691 34.3131 27.0921 33.0987 27.8878 31.7346C28.3754 30.903 28.7792 30.0116 29.0754 29.0784C30.0116 28.7703 30.903 28.3694 31.7346 27.8788C33.1046 27.0832 34.3221 26.0601 35.3361 24.8547ZM18.8631 18.8661C19.7724 16.6166 21.1813 14.6334 22.9372 13.0331C20.9181 11.8545 18.558 11.1725 16.0483 11.1725C14.5885 11.1725 13.1707 11.3998 11.8246 11.8365C11.3968 13.1647 11.1695 14.5885 11.1695 16.0483C11.1695 18.558 11.8515 20.9121 13.0331 22.9402C14.6334 21.1813 16.6256 19.7754 18.8631 18.8661ZM22.9372 36.6822C21.1813 35.0819 19.7724 33.0987 18.8631 30.8612C16.6256 29.9428 14.6334 28.5339 13.042 26.7781C11.8515 28.8062 11.1695 31.1573 11.1695 33.667C11.1695 35.1357 11.4058 36.5536 11.8336 37.8907C13.1707 38.3185 14.5885 38.5548 16.0483 38.5548C18.558 38.5548 20.9181 37.8728 22.9372 36.6822ZM11.5464 24.8636C9.86828 22.327 8.88713 19.3028 8.88713 16.0483C8.88713 15.0103 8.98285 13.9963 9.17729 13.0061C7.04151 14.2386 5.25869 16.0483 4.04423 18.2798H4.03526C3.79894 18.7165 3.58058 19.1712 3.38914 19.6438C3.28444 19.8981 3.18872 20.1583 3.09898 20.4126C2.93446 20.9121 2.78489 21.4087 2.6802 21.9172C2.66225 21.995 2.6443 22.0727 2.62636 22.1535C2.60243 22.3001 2.5755 22.4497 2.54858 22.5902C2.51269 22.7817 2.48876 22.9642 2.47081 23.1586C2.44389 23.3052 2.43491 23.4458 2.41697 23.5953C2.40799 23.6731 2.40799 23.7449 2.39902 23.8227C2.39304 23.9812 2.37509 24.1457 2.37509 24.3043C2.36611 24.4957 2.36611 24.6692 2.36611 24.8636C2.36611 25.0461 2.36611 25.2226 2.37509 25.414C2.37509 25.5696 2.39304 25.7371 2.39902 25.8956C2.40799 25.9734 2.40799 26.0512 2.41697 26.123C2.43491 26.2695 2.44389 26.4101 2.47081 26.5687C2.48876 26.7511 2.51269 26.9336 2.54858 27.128C2.5755 27.2656 2.60243 27.4152 2.62636 27.5648C2.6443 27.6425 2.66225 27.7203 2.6802 27.8011C2.7161 27.9566 2.749 28.1152 2.79387 28.2737C2.82079 28.4023 2.85369 28.525 2.88959 28.6476C2.95241 28.866 3.02121 29.0843 3.09898 29.3027C3.18872 29.5659 3.28444 29.8202 3.38914 30.0745C3.58058 30.5471 3.79894 31.0018 4.03526 31.4385H4.04423C5.25869 33.667 7.04151 35.4767 9.17729 36.7091C8.98285 35.722 8.88713 34.708 8.88713 33.667C8.88713 30.4155 9.86828 27.3883 11.5464 24.8636Z" fill="#3A68B8"/>
<path d="M48.2914 31.2979L48.1538 31.6479H48.1269C48.1867 31.5342 48.2406 31.4205 48.2914 31.2979Z" fill="#499067"/>
<path d="M48.1359 18.0704L48.1538 18.1123C48.1449 18.0943 48.1359 18.0854 48.1269 18.0704H48.1359Z" fill="#499067"/>
<path d="M45.5305 28.9707C45.4527 29.198 45.363 29.4253 45.2762 29.6377C45.1266 29.9937 44.9621 30.3526 44.7767 30.7026L44.672 30.8881C44.648 30.9479 44.6121 31.0018 44.5852 31.0526C42.2251 29.9847 40.5739 27.6066 40.5739 24.8636C40.5739 22.1206 42.2251 19.7306 44.5852 18.6627C44.6121 18.7165 44.648 18.7674 44.672 18.8302L44.8036 19.0575C44.9711 19.3896 45.1356 19.7395 45.2762 20.0805C45.363 20.2899 45.4527 20.5173 45.5305 20.7446C43.9571 21.4536 42.8622 23.027 42.8622 24.8636C42.8622 26.7003 43.9571 28.2737 45.5305 28.9707Z" fill="#3A68B8"/>
<path d="M31.6539 48.1269V48.1359L31.5073 48.1987C31.5581 48.1718 31.603 48.1538 31.6539 48.1269Z" fill="#499067"/>
<path d="M31.6539 1.58838C31.5312 1.53752 31.4176 1.48368 31.3039 1.42385L31.6539 1.57043V1.58838Z" fill="#499067"/>
<path d="M30.8941 5.04332C30.9479 5.06725 30.9988 5.10315 31.0526 5.13904C29.9847 7.49917 27.6066 9.14139 24.8606 9.14139C22.1146 9.14139 19.7366 7.49917 18.6717 5.13904C18.7225 5.10315 18.7763 5.06725 18.8272 5.04332L19.0635 4.9117C19.3955 4.74419 19.7366 4.58864 20.0776 4.44805C20.2989 4.35233 20.5173 4.27157 20.7536 4.18482C21.4506 5.75824 23.033 6.86203 24.8606 6.86203C26.6883 6.86203 28.2707 5.75824 28.9707 4.18482C29.198 4.27157 29.4254 4.35233 29.6437 4.44805C29.9937 4.59762 30.3527 4.75316 30.7026 4.93862L30.8941 5.04332Z" fill="#3A68B8"/>
<path d="M31.0526 44.5792C30.9988 44.6121 30.9479 44.648 30.8941 44.675L30.6578 44.8066C30.3257 44.9711 29.9847 45.1296 29.6437 45.2792C29.4254 45.366 29.198 45.4437 28.9707 45.5305C28.2617 43.9571 26.6883 42.8563 24.8606 42.8563C23.033 42.8563 21.4506 43.9571 20.7536 45.5305C20.5173 45.4437 20.2989 45.366 20.0776 45.2792C19.7306 45.1207 19.3716 44.9621 19.0216 44.7797L18.8272 44.675C18.7763 44.648 18.7225 44.6121 18.6717 44.5792C19.7366 42.2191 22.1146 40.5739 24.8606 40.5739C27.6066 40.5739 29.9847 42.2191 31.0526 44.5792Z" fill="#3A68B8"/>
<path d="M18.4174 48.2944L18.0674 48.1449V48.1269C18.1901 48.1808 18.2948 48.2316 18.4174 48.2944Z" fill="#499067"/>
<path d="M18.0674 1.5794L18.217 1.51958C18.1631 1.54351 18.1213 1.56145 18.0674 1.58837V1.5794Z" fill="#499067"/>
<path d="M5.13605 18.6627C7.49618 19.7306 9.14139 22.1086 9.14139 24.8636C9.14139 27.6186 7.49618 29.9847 5.13605 31.0526C5.11212 31.0018 5.07623 30.9479 5.0493 30.8881L4.91769 30.6608C4.74419 30.3257 4.58565 29.9787 4.44506 29.6377C4.35832 29.4253 4.27157 29.198 4.19379 28.9707C5.76721 28.2647 6.85904 26.6913 6.85904 24.8636C6.85904 23.0359 5.76721 21.4536 4.19379 20.7446C4.27157 20.5173 4.35832 20.2899 4.44506 20.0805C4.59463 19.7216 4.76214 19.3626 4.94461 19.0216L5.0493 18.8302C5.07623 18.7674 5.11212 18.7165 5.13605 18.6627Z" fill="#3A68B8"/>
<path d="M1.57043 18.0704H1.59735C1.53454 18.1841 1.48368 18.2977 1.42984 18.4204L1.57043 18.0704Z" fill="#499067"/>
<path d="M1.59735 31.6479H1.58837L1.57043 31.603C1.5794 31.621 1.58837 31.6299 1.59735 31.6479Z" fill="#499067"/>
</g>
<defs>
<clipPath id="clip0_2303_130">
<rect width="179.627" height="56" fill="white"/>
</clipPath>
</defs>
</svg>
