<svg width="355" height="1314" viewBox="0 0 355 1314" fill="none" xmlns="http://www.w3.org/2000/svg">
<g clip-path="url(#clip0_2306_67)">
<path opacity="0.1" d="M282.046 495.545C303.375 546.773 314 601.014 314 657.159C314 713.303 303.375 767.227 282.046 818.455C280.936 821.468 279.509 824.719 278.082 827.733C276.734 830.984 275.306 833.997 273.72 837.011C227.811 935.501 147.173 1010.36 49.646 1049.77C10.2386 1147.15 -64.6115 1227.8 -162.932 1273.87C-164.279 1274.59 -165.469 1275.06 -166.817 1275.78C-171.733 1278.08 -176.57 1280.14 -181.644 1282.28C-232.628 1303.37 -286.862 1314 -343 1314C-399.138 1314 -453.293 1303.37 -504.277 1282.28C-507.527 1280.85 -510.541 1279.5 -513.791 1278.32C-517.042 1276.65 -519.818 1275.3 -523.068 1273.87C-621.309 1227.8 -696.397 1147.15 -735.567 1049.77C-832.935 1010.36 -913.811 935.501 -959.641 837.011C-959.879 836.535 -960.117 836.297 -960.355 835.821C-960.593 835.821 -960.593 835.583 -960.593 835.583C-961.068 834.711 -961.306 833.997 -961.782 833.046C-963.844 828.447 -966.143 823.292 -968.046 818.455C-989.375 767.227 -1000 712.986 -1000 657.159C-1000 601.331 -989.375 546.773 -968.046 495.545C-966.857 492.532 -965.509 489.36 -964.081 486.347C-962.654 483.095 -961.306 480.082 -959.641 477.068C-913.811 378.499 -833.173 303.639 -735.567 264.227C-696.397 166.926 -621.309 86.2783 -523.068 40.1258C-521.641 39.4121 -520.531 38.9363 -519.104 38.3019C-514.267 35.9229 -509.351 33.8611 -504.277 31.7993C-453.293 10.7055 -399.058 0 -343 0C-286.942 0 -232.628 10.7055 -181.644 31.7993C-178.472 33.1474 -175.459 34.5748 -172.208 35.7643C-169.195 37.3503 -166.182 38.7777 -162.932 40.1258C-64.6115 86.2783 10.2386 166.926 49.646 264.227C146.935 303.639 227.811 378.499 273.72 477.068C273.958 477.465 274.196 477.703 274.434 478.179C274.672 478.179 274.672 478.417 274.672 478.417C275.068 479.13 275.306 480.082 275.782 480.954C277.923 485.871 280.222 490.708 282.046 495.545ZM253.343 657.159C253.343 652.004 253.343 647.405 253.105 642.33C252.867 638.127 252.629 633.765 252.391 629.562C252.154 627.5 252.154 625.597 251.916 623.535C251.44 619.57 251.202 615.843 250.568 611.958C250.092 606.803 249.378 601.966 248.427 596.891C247.793 593.164 247.079 589.199 246.365 585.313C245.89 583.172 245.414 581.11 244.938 579.048C244.066 574.845 243.115 570.642 241.925 566.519C241.291 563.03 240.339 559.778 239.15 556.527C237.802 550.738 235.899 544.949 233.838 539.16C231.538 532.42 229.001 525.521 226.226 518.78C221.072 506.251 215.283 494.197 209.02 482.619H208.861C176.59 423.462 129.333 375.485 72.7987 342.814C77.8733 369.062 80.4105 395.945 80.4105 423.462C80.4105 509.74 54.4827 589.912 10.0007 657.159C54.4827 724.088 80.4105 804.339 80.4105 890.538C80.4105 918.135 77.8733 945.017 72.7987 971.186C129.333 938.515 176.59 890.538 208.861 831.46H209.02C215.283 819.882 221.072 807.828 226.226 795.299C229.001 788.559 231.538 781.818 233.838 774.84C238.278 761.676 241.925 748.433 244.938 735.031C245.414 732.89 245.89 730.828 246.365 728.766C247.079 724.801 247.793 720.836 248.427 717.189C249.378 712.034 250.092 707.197 250.568 702.36C251.202 698.157 251.44 694.43 251.916 690.544C252.154 688.641 252.154 686.579 252.391 684.517C252.629 680.314 252.867 675.873 253.105 671.75C253.343 666.675 253.343 661.996 253.343 657.159ZM-29.6445 606.169C1.8338 552.403 19.9121 489.994 19.9121 423.462C19.9121 384.525 13.6481 347.017 2.30963 311.569C-33.1332 300.23 -70.6376 293.965 -109.411 293.965C-176.094 293.965 -238.495 312.045 -292.254 343.527C-245.393 385.953 -208.127 438.529 -184.023 498.162C-124.634 522.269 -71.827 559.54 -29.6445 606.169ZM19.9121 890.538C19.9121 824.006 1.83386 761.676 -29.4066 707.911C-71.8269 754.46 -124.634 791.81 -184.023 816.155C-208.127 875.471 -245.393 928.047 -292.254 970.473C-238.495 1001.8 -176.094 1019.88 -109.411 1019.88C-70.6376 1019.88 -33.1332 1013.85 2.30963 1002.51C13.886 967.063 19.9121 929.237 19.9121 890.538ZM-28.9308 241.31C-61.5984 184.769 -109.569 137.268 -168.72 105.072C-180.296 98.8077 -192.348 93.0188 -204.876 87.8643C-211.616 85.0888 -218.276 82.5512 -225.254 80.2515C-238.257 75.5728 -251.657 71.925 -265.137 68.9116C-267.198 68.4358 -269.26 67.9601 -271.401 67.7222C-275.286 66.7706 -279.013 66.0569 -282.977 65.4225C-287.814 64.7088 -292.888 63.9951 -297.805 63.2814C-301.69 62.8849 -305.654 62.4091 -309.381 62.1712C-311.442 61.9333 -313.345 61.6954 -315.407 61.6954C-319.768 61.2196 -323.97 60.9817 -328.411 60.9817C-333.247 60.7438 -338.084 60.5059 -343 60.5059C-347.916 60.5059 -352.753 60.7438 -357.589 60.9817C-361.95 60.9817 -366.391 61.2196 -370.593 61.6954C-372.655 61.6954 -374.478 61.9333 -376.619 62.1712C-380.266 62.4091 -384.231 62.8849 -388.195 63.2814C-393.032 63.9951 -398.107 64.7088 -403.023 65.4225C-406.908 66.0569 -410.635 66.7706 -414.599 67.7222C-416.899 67.9601 -418.802 68.4358 -420.863 68.9116C-424.986 69.7839 -429.427 70.7355 -433.629 71.925C-436.88 72.7973 -440.051 73.7489 -443.302 74.7005C-449.328 76.2865 -455.117 78.1104 -460.905 80.2515C-467.644 82.5512 -474.622 85.0888 -481.362 87.8643C-493.652 93.0188 -505.704 98.8077 -517.28 105.072C-576.352 137.506 -624.322 184.769 -657.228 241.31C-630.824 236.235 -603.945 233.697 -576.589 233.697C-490.401 233.697 -409.921 259.628 -343 303.877C-276 259.628 -195.599 233.697 -109.411 233.697C-82.0554 233.697 -55.1759 236.235 -28.9308 241.31ZM-168.72 1209.01C-109.569 1176.57 -61.5984 1129.31 -28.6929 1072.69C-55.176 1077.84 -82.0554 1080.62 -109.411 1080.62C-195.599 1080.62 -276 1054.37 -343 1010.12C-409.921 1054.37 -490.401 1080.62 -576.589 1080.62C-603.945 1080.62 -630.824 1077.84 -656.99 1072.69C-624.322 1129.31 -576.352 1176.81 -517.28 1209.01C-505.704 1215.27 -493.652 1221.06 -481.362 1226.14C-474.622 1228.91 -467.644 1231.45 -460.905 1234.07C-447.743 1238.43 -434.263 1242.15 -420.863 1245.17C-418.802 1245.64 -416.899 1246.12 -414.599 1246.36C-410.635 1247.23 -406.908 1247.94 -403.023 1248.66C-398.107 1249.37 -393.032 1250.01 -388.195 1250.72C-384.231 1251.19 -380.266 1251.67 -376.619 1251.91C-374.478 1252.15 -372.655 1252.38 -370.593 1252.38C-366.391 1252.78 -361.95 1253.02 -357.589 1253.02C-352.753 1253.26 -347.837 1253.49 -343 1253.49C-338.163 1253.49 -333.247 1253.26 -328.411 1253.02C-323.97 1253.02 -319.768 1252.78 -315.407 1252.38C-313.345 1252.38 -311.442 1252.15 -309.381 1251.91C-305.654 1251.67 -301.69 1251.19 -297.805 1250.72C-292.888 1250.01 -287.814 1249.37 -282.977 1248.66C-279.013 1247.94 -275.286 1247.23 -271.401 1246.36C-269.26 1246.12 -267.198 1245.64 -265.137 1245.17C-260.934 1244.22 -256.732 1243.34 -252.371 1242.15C-249.12 1241.2 -245.869 1240.33 -242.618 1239.38C-236.592 1237.71 -230.804 1235.89 -225.254 1234.07C-218.276 1231.45 -211.616 1228.91 -204.876 1226.14C-192.348 1221.06 -180.296 1215.27 -168.72 1209.01ZM-65.3251 656.921C-92.4424 625.121 -124.634 598.001 -160.791 576.669C-182.833 563.981 -206.462 553.276 -231.28 545.187C-239.13 520.366 -250.072 496.735 -262.758 474.689C-283.849 438.529 -311.205 406.333 -343.238 379.45C-374.954 406.333 -402.071 438.529 -423.163 474.689C-436.166 496.735 -446.791 520.366 -454.72 545.187C-479.459 553.276 -503.087 563.981 -525.368 576.907C-561.524 598.001 -593.716 625.121 -620.596 657.159C-593.716 688.879 -561.286 715.999 -525.368 737.331C-503.087 750.336 -479.459 760.724 -454.72 768.892C-446.791 793.634 -436.166 817.265 -423.163 839.311C-402.071 875.471 -374.716 907.905 -343 934.55C-310.967 907.667 -283.849 875.471 -262.758 839.311C-249.834 817.265 -239.13 793.634 -231.28 768.892C-206.462 760.724 -182.833 750.098 -160.791 737.093C-124.476 715.999 -92.2046 688.879 -65.3251 656.921ZM-501.977 498.162C-477.873 438.529 -440.527 385.953 -393.984 343.527C-447.505 312.283 -510.065 294.203 -576.589 294.203C-615.283 294.203 -652.867 300.23 -688.547 311.807C-699.886 347.017 -705.912 384.763 -705.912 423.462C-705.912 489.994 -687.834 552.403 -656.514 606.169C-614.094 559.54 -561.286 522.269 -501.977 498.162ZM-393.984 970.473C-440.527 928.047 -477.873 875.471 -501.977 816.155C-561.286 791.81 -614.094 754.46 -656.276 707.911C-687.834 761.676 -705.912 824.006 -705.912 890.538C-705.912 929.475 -699.648 967.063 -688.31 1002.51C-652.867 1013.85 -615.283 1020.11 -576.589 1020.11C-510.065 1020.11 -447.505 1002.03 -393.984 970.473ZM-695.921 657.159C-740.403 589.912 -766.411 509.74 -766.411 423.462C-766.411 395.945 -763.873 369.062 -758.719 342.814C-815.333 375.485 -862.59 423.462 -894.782 482.619H-895.02C-901.283 494.197 -907.072 506.251 -912.146 518.78C-914.921 525.521 -917.459 532.42 -919.837 539.16C-924.198 552.403 -928.163 565.567 -930.938 579.048C-931.414 581.11 -931.89 583.172 -932.365 585.313C-933 589.199 -933.713 593.164 -934.427 596.891C-935.378 601.966 -936.013 606.803 -936.488 611.958C-937.202 615.843 -937.44 619.57 -937.916 623.535C-938.154 625.597 -938.154 627.5 -938.391 629.562C-938.55 633.765 -939.026 638.127 -939.026 642.33C-939.264 647.405 -939.264 652.004 -939.264 657.159C-939.264 661.996 -939.264 666.675 -939.026 671.75C-939.026 675.873 -938.55 680.314 -938.391 684.517C-938.154 686.579 -938.154 688.641 -937.916 690.544C-937.44 694.43 -937.202 698.157 -936.488 702.36C-936.013 707.197 -935.378 712.034 -934.427 717.189C-933.713 720.836 -933 724.801 -932.365 728.766C-931.89 730.828 -931.414 732.89 -930.938 735.031C-929.987 739.155 -929.114 743.358 -927.925 747.561C-927.211 750.97 -926.339 754.222 -925.388 757.473C-923.723 763.262 -921.899 769.051 -919.837 774.84C-917.459 781.818 -914.921 788.559 -912.146 795.299C-907.072 807.828 -901.283 819.882 -895.02 831.46H-894.782C-862.59 890.538 -815.333 938.515 -758.719 971.186C-763.873 945.017 -766.411 918.135 -766.411 890.538C-766.411 804.339 -740.403 724.088 -695.921 657.159Z" fill="#3A68B8"/>
</g>
<defs>
<clipPath id="clip0_2306_67">
<rect width="355" height="1314" fill="white"/>
</clipPath>
</defs>
</svg>
