<svg width="343" height="1314" viewBox="0 0 343 1314" fill="none" xmlns="http://www.w3.org/2000/svg">
<g clip-path="url(#clip0_2336_67)">
<path opacity="0.1" d="M1282.05 495.545C1303.38 546.773 1314 601.014 1314 657.159C1314 713.303 1303.38 767.227 1282.05 818.455C1280.94 821.468 1279.51 824.719 1278.08 827.733C1276.73 830.984 1275.31 833.997 1273.72 837.011C1227.81 935.501 1147.17 1010.36 1049.65 1049.77C1010.24 1147.15 935.388 1227.8 837.068 1273.87C835.721 1274.59 834.531 1275.06 833.183 1275.78C828.267 1278.08 823.43 1280.14 818.356 1282.28C767.372 1303.37 713.138 1314 657 1314C600.862 1314 546.707 1303.37 495.723 1282.28C492.473 1280.85 489.459 1279.5 486.209 1278.32C482.958 1276.65 480.182 1275.3 476.932 1273.87C378.691 1227.8 303.603 1147.15 264.433 1049.77C167.065 1010.36 86.1886 935.501 40.3588 837.011C40.1209 836.535 39.8831 836.297 39.6452 835.821C39.4073 835.821 39.4073 835.583 39.4073 835.583C38.9316 834.711 38.6937 833.997 38.218 833.046C36.1564 828.447 33.857 823.292 31.954 818.455C10.6249 767.227 0 712.986 0 657.159C0 601.331 10.6249 546.773 31.954 495.545C33.1434 492.532 34.4913 489.36 35.9185 486.347C37.3458 483.095 38.6937 480.082 40.3588 477.068C86.1886 378.499 166.827 303.639 264.433 264.227C303.603 166.926 378.691 86.2783 476.932 40.1258C478.359 39.4121 479.469 38.9363 480.896 38.3019C485.733 35.9229 490.649 33.8611 495.723 31.7993C546.707 10.7055 600.942 0 657 0C713.058 0 767.372 10.7055 818.356 31.7993C821.528 33.1474 824.541 34.5748 827.792 35.7643C830.805 37.3503 833.818 38.7777 837.068 40.1258C935.388 86.2783 1010.24 166.926 1049.65 264.227C1146.94 303.639 1227.81 378.499 1273.72 477.068C1273.96 477.465 1274.2 477.703 1274.43 478.179C1274.67 478.179 1274.67 478.417 1274.67 478.417C1275.07 479.13 1275.31 480.082 1275.78 480.954C1277.92 485.871 1280.22 490.708 1282.05 495.545ZM1253.34 657.159C1253.34 652.004 1253.34 647.405 1253.1 642.33C1252.87 638.127 1252.63 633.765 1252.39 629.562C1252.15 627.5 1252.15 625.597 1251.92 623.535C1251.44 619.57 1251.2 615.843 1250.57 611.958C1250.09 606.803 1249.38 601.966 1248.43 596.891C1247.79 593.164 1247.08 589.199 1246.37 585.313C1245.89 583.172 1245.41 581.11 1244.94 579.048C1244.07 574.845 1243.11 570.642 1241.93 566.519C1241.29 563.03 1240.34 559.778 1239.15 556.527C1237.8 550.738 1235.9 544.949 1233.84 539.16C1231.54 532.42 1229 525.521 1226.23 518.78C1221.07 506.251 1215.28 494.197 1209.02 482.619H1208.86C1176.59 423.462 1129.33 375.485 1072.8 342.814C1077.87 369.062 1080.41 395.945 1080.41 423.462C1080.41 509.74 1054.48 589.912 1010 657.159C1054.48 724.088 1080.41 804.339 1080.41 890.538C1080.41 918.135 1077.87 945.017 1072.8 971.186C1129.33 938.515 1176.59 890.538 1208.86 831.46H1209.02C1215.28 819.882 1221.07 807.828 1226.23 795.299C1229 788.559 1231.54 781.818 1233.84 774.84C1238.28 761.676 1241.93 748.433 1244.94 735.031C1245.41 732.89 1245.89 730.828 1246.37 728.766C1247.08 724.801 1247.79 720.836 1248.43 717.189C1249.38 712.034 1250.09 707.197 1250.57 702.36C1251.2 698.157 1251.44 694.43 1251.92 690.544C1252.15 688.641 1252.15 686.579 1252.39 684.517C1252.63 680.314 1252.87 675.873 1253.1 671.75C1253.34 666.675 1253.34 661.996 1253.34 657.159ZM970.356 606.169C1001.83 552.403 1019.91 489.994 1019.91 423.462C1019.91 384.525 1013.65 347.017 1002.31 311.569C966.867 300.23 929.362 293.965 890.589 293.965C823.906 293.965 761.505 312.045 707.746 343.527C754.607 385.953 791.873 438.529 815.977 498.162C875.366 522.269 928.173 559.54 970.356 606.169ZM1019.91 890.538C1019.91 824.006 1001.83 761.676 970.593 707.911C928.173 754.46 875.366 791.81 815.977 816.155C791.873 875.471 754.607 928.047 707.746 970.473C761.505 1001.8 823.906 1019.88 890.589 1019.88C929.362 1019.88 966.867 1013.85 1002.31 1002.51C1013.89 967.063 1019.91 929.237 1019.91 890.538ZM971.069 241.31C938.402 184.769 890.431 137.268 831.28 105.072C819.704 98.8077 807.652 93.0188 795.124 87.8643C788.384 85.0888 781.724 82.5512 774.746 80.2515C761.743 75.5728 748.343 71.925 734.863 68.9116C732.802 68.4358 730.74 67.9601 728.599 67.7222C724.714 66.7706 720.987 66.0569 717.023 65.4225C712.186 64.7088 707.112 63.9951 702.195 63.2814C698.31 62.8849 694.346 62.4091 690.619 62.1712C688.558 61.9333 686.655 61.6954 684.593 61.6954C680.232 61.2196 676.03 60.9817 671.589 60.9817C666.753 60.7438 661.916 60.5059 657 60.5059C652.084 60.5059 647.247 60.7438 642.411 60.9817C638.05 60.9817 633.609 61.2196 629.407 61.6954C627.345 61.6954 625.522 61.9333 623.381 62.1712C619.734 62.4091 615.769 62.8849 611.805 63.2814C606.968 63.9951 601.893 64.7088 596.977 65.4225C593.092 66.0569 589.365 66.7706 585.401 67.7222C583.101 67.9601 581.198 68.4358 579.137 68.9116C575.014 69.7839 570.573 70.7355 566.371 71.925C563.12 72.7973 559.949 73.7489 556.698 74.7005C550.672 76.2865 544.883 78.1104 539.095 80.2515C532.356 82.5512 525.378 85.0888 518.638 87.8643C506.348 93.0188 494.296 98.8077 482.72 105.072C423.648 137.506 375.678 184.769 342.772 241.31C369.176 236.235 396.055 233.697 423.411 233.697C509.599 233.697 590.079 259.628 657 303.877C724 259.628 804.401 233.697 890.589 233.697C917.945 233.697 944.824 236.235 971.069 241.31ZM831.28 1209.01C890.431 1176.57 938.402 1129.31 971.307 1072.69C944.824 1077.84 917.945 1080.62 890.589 1080.62C804.401 1080.62 724 1054.37 657 1010.12C590.079 1054.37 509.599 1080.62 423.411 1080.62C396.055 1080.62 369.176 1077.84 343.01 1072.69C375.678 1129.31 423.648 1176.81 482.72 1209.01C494.296 1215.27 506.348 1221.06 518.638 1226.14C525.378 1228.91 532.356 1231.45 539.095 1234.07C552.257 1238.43 565.737 1242.15 579.137 1245.17C581.198 1245.64 583.101 1246.12 585.401 1246.36C589.365 1247.23 593.092 1247.94 596.977 1248.66C601.893 1249.37 606.968 1250.01 611.805 1250.72C615.769 1251.19 619.734 1251.67 623.381 1251.91C625.522 1252.15 627.345 1252.38 629.407 1252.38C633.609 1252.78 638.05 1253.02 642.411 1253.02C647.247 1253.26 652.163 1253.49 657 1253.49C661.837 1253.49 666.753 1253.26 671.589 1253.02C676.03 1253.02 680.232 1252.78 684.593 1252.38C686.655 1252.38 688.558 1252.15 690.619 1251.91C694.346 1251.67 698.31 1251.19 702.195 1250.72C707.112 1250.01 712.186 1249.37 717.023 1248.66C720.987 1247.94 724.714 1247.23 728.599 1246.36C730.74 1246.12 732.802 1245.64 734.863 1245.17C739.066 1244.22 743.268 1243.34 747.629 1242.15C750.88 1241.2 754.131 1240.33 757.382 1239.38C763.408 1237.71 769.196 1235.89 774.746 1234.07C781.724 1231.45 788.384 1228.91 795.124 1226.14C807.652 1221.06 819.704 1215.27 831.28 1209.01ZM934.675 656.921C907.558 625.121 875.366 598.001 839.209 576.669C817.167 563.981 793.538 553.276 768.72 545.187C760.87 520.366 749.928 496.735 737.242 474.689C716.151 438.529 688.795 406.333 656.762 379.45C625.046 406.333 597.929 438.529 576.837 474.689C563.834 496.735 553.209 520.366 545.28 545.187C520.541 553.276 496.913 563.981 474.632 576.907C438.476 598.001 406.284 625.121 379.404 657.159C406.284 688.879 438.714 715.999 474.632 737.331C496.913 750.336 520.541 760.724 545.28 768.892C553.209 793.634 563.834 817.265 576.837 839.311C597.929 875.471 625.284 907.905 657 934.55C689.033 907.667 716.151 875.471 737.242 839.311C750.166 817.265 760.87 793.634 768.72 768.892C793.538 760.724 817.167 750.098 839.209 737.093C875.524 715.999 907.795 688.879 934.675 656.921ZM498.023 498.162C522.127 438.529 559.473 385.953 606.016 343.527C552.495 312.283 489.935 294.203 423.411 294.203C384.717 294.203 347.133 300.23 311.453 311.807C300.114 347.017 294.088 384.763 294.088 423.462C294.088 489.994 312.166 552.403 343.486 606.169C385.906 559.54 438.714 522.269 498.023 498.162ZM606.016 970.473C559.473 928.047 522.127 875.471 498.023 816.155C438.714 791.81 385.906 754.46 343.724 707.911C312.166 761.676 294.088 824.006 294.088 890.538C294.088 929.475 300.352 967.063 311.69 1002.51C347.133 1013.85 384.717 1020.11 423.411 1020.11C489.935 1020.11 552.495 1002.03 606.016 970.473ZM304.079 657.159C259.597 589.912 233.589 509.74 233.589 423.462C233.589 395.945 236.127 369.062 241.281 342.814C184.667 375.485 137.41 423.462 105.218 482.619H104.98C98.7165 494.197 92.9283 506.251 87.8537 518.78C85.0786 525.521 82.5413 532.42 80.1626 539.16C75.8016 552.403 71.8371 565.567 69.0619 579.048C68.5862 581.11 68.1104 583.172 67.6347 585.313C67.0004 589.199 66.2868 593.164 65.5731 596.891C64.6217 601.966 63.9873 606.803 63.5116 611.958C62.798 615.843 62.5601 619.57 62.0844 623.535C61.8465 625.597 61.8465 627.5 61.6086 629.562C61.45 633.765 60.9743 638.127 60.9743 642.33C60.7364 647.405 60.7364 652.004 60.7364 657.159C60.7364 661.996 60.7364 666.675 60.9743 671.75C60.9743 675.873 61.45 680.314 61.6086 684.517C61.8465 686.579 61.8465 688.641 62.0844 690.544C62.5601 694.43 62.798 698.157 63.5116 702.36C63.9873 707.197 64.6217 712.034 65.5731 717.189C66.2868 720.836 67.0004 724.801 67.6347 728.766C68.1104 730.828 68.5862 732.89 69.0619 735.031C70.0134 739.155 70.8856 743.358 72.075 747.561C72.7886 750.97 73.6608 754.222 74.6122 757.473C76.2773 763.262 78.101 769.051 80.1626 774.84C82.5413 781.818 85.0786 788.559 87.8537 795.299C92.9283 807.828 98.7165 819.882 104.98 831.46H105.218C137.41 890.538 184.667 938.515 241.281 971.186C236.127 945.017 233.589 918.135 233.589 890.538C233.589 804.339 259.597 724.088 304.079 657.159Z" fill="#3A68B8"/>
</g>
<defs>
<clipPath id="clip0_2336_67">
<rect width="343" height="1314" fill="white"/>
</clipPath>
</defs>
</svg>
