<svg width="348" height="348" viewBox="0 0 348 348" fill="none" xmlns="http://www.w3.org/2000/svg">
<path d="M339.537 131.24C345.186 144.807 348 159.173 348 174.042C348 188.911 345.186 203.193 339.537 216.76C339.243 217.558 338.865 218.419 338.487 219.217C338.13 220.078 337.752 220.876 337.332 221.674C325.174 247.758 303.818 267.584 277.988 278.022C267.552 303.812 247.728 325.171 221.689 337.373C221.332 337.562 221.017 337.688 220.66 337.877C219.358 338.486 218.077 339.032 216.734 339.599C203.231 345.186 188.867 348 174 348C159.133 348 144.79 345.186 131.287 339.599C130.427 339.221 129.629 338.864 128.768 338.549C127.907 338.108 127.172 337.751 126.311 337.373C100.293 325.171 80.4062 303.812 70.0326 278.022C44.2455 267.584 22.8262 247.758 10.6886 221.674C10.6256 221.548 10.5626 221.485 10.4996 221.359C10.4366 221.359 10.4366 221.296 10.4366 221.296C10.3106 221.065 10.2476 220.876 10.1217 220.624C9.57567 219.406 8.96669 218.041 8.46271 216.76C2.8139 203.193 0 188.827 0 174.042C0 159.257 2.8139 144.807 8.46271 131.24C8.7777 130.442 9.13469 129.602 9.51267 128.804C9.89066 127.943 10.2476 127.145 10.6886 126.347C22.8262 100.242 44.1825 80.4159 70.0326 69.978C80.4062 44.2088 100.293 22.85 126.311 10.6269C126.689 10.4379 126.983 10.3119 127.361 10.1439C128.642 9.51382 129.944 8.96777 131.287 8.42173C144.79 2.83524 159.154 0 174 0C188.846 0 203.231 2.83524 216.734 8.42173C217.574 8.77876 218.371 9.15679 219.232 9.47182C220.03 9.89185 220.828 10.2699 221.689 10.6269C247.728 22.85 267.552 44.2088 277.988 69.978C303.755 80.4159 325.174 100.242 337.332 126.347C337.395 126.452 337.458 126.515 337.521 126.641C337.584 126.641 337.584 126.704 337.584 126.704C337.689 126.893 337.752 127.145 337.878 127.376C338.445 128.678 339.054 129.959 339.537 131.24ZM331.936 174.042C331.936 172.677 331.936 171.459 331.873 170.115C331.81 169.002 331.747 167.846 331.684 166.733C331.621 166.187 331.621 165.683 331.558 165.137C331.432 164.087 331.369 163.1 331.201 162.071C331.075 160.706 330.886 159.425 330.634 158.081C330.466 157.094 330.277 156.043 330.088 155.014C329.962 154.447 329.836 153.901 329.71 153.355C329.479 152.242 329.227 151.129 328.912 150.037C328.744 149.113 328.492 148.252 328.177 147.391C327.82 145.858 327.316 144.324 326.77 142.791C326.161 141.006 325.489 139.179 324.754 137.394C323.389 134.076 321.856 130.883 320.197 127.817H320.155C311.608 112.15 299.093 99.4436 284.12 90.7908C285.464 97.7424 286.136 104.862 286.136 112.15C286.136 135 279.269 156.232 267.489 174.042C279.269 191.768 286.136 213.021 286.136 235.85C286.136 243.159 285.464 250.279 284.12 257.209C299.093 248.556 311.608 235.85 320.155 220.204H320.197C321.856 217.138 323.389 213.945 324.754 210.627C325.489 208.842 326.161 207.057 326.77 205.209C327.946 201.722 328.912 198.215 329.71 194.666C329.836 194.099 329.962 193.553 330.088 193.007C330.277 191.957 330.466 190.906 330.634 189.94C330.886 188.575 331.075 187.294 331.201 186.013C331.369 184.9 331.432 183.913 331.558 182.884C331.621 182.38 331.621 181.834 331.684 181.288C331.747 180.175 331.81 178.998 331.873 177.906C331.936 176.562 331.936 175.323 331.936 174.042ZM256.989 160.538C265.326 146.299 270.114 129.77 270.114 112.15C270.114 101.838 268.455 91.9039 265.452 82.5161C256.065 79.5129 246.133 77.8537 235.864 77.8537C218.203 77.8537 201.677 82.6421 187.44 90.9798C199.85 102.216 209.72 116.14 216.104 131.933C231.832 138.318 245.818 148.189 256.989 160.538ZM270.114 235.85C270.114 218.23 265.326 201.722 257.052 187.483C245.818 199.811 231.832 209.703 216.104 216.151C209.72 231.86 199.85 245.784 187.44 257.02C201.677 265.316 218.203 270.104 235.864 270.104C246.133 270.104 256.065 268.508 265.452 265.505C268.518 256.117 270.114 246.099 270.114 235.85ZM257.178 63.9085C248.526 48.9342 235.822 36.3541 220.156 27.8274C217.091 26.1683 213.899 24.6351 210.581 23.27C208.796 22.5349 207.032 21.8629 205.184 21.2538C201.74 20.0147 198.191 19.0486 194.621 18.2506C194.075 18.1246 193.529 17.9986 192.962 17.9355C191.933 17.6835 190.946 17.4945 189.896 17.3265C188.616 17.1375 187.272 16.9485 185.97 16.7594C184.941 16.6544 183.891 16.5284 182.904 16.4654C182.358 16.4024 181.854 16.3394 181.308 16.3394C180.153 16.2134 179.04 16.1504 177.864 16.1504C176.583 16.0874 175.302 16.0244 174 16.0244C172.698 16.0244 171.417 16.0874 170.136 16.1504C168.981 16.1504 167.805 16.2134 166.692 16.3394C166.146 16.3394 165.663 16.4024 165.096 16.4654C164.13 16.5284 163.08 16.6544 162.03 16.7594C160.749 16.9485 159.406 17.1375 158.104 17.3265C157.075 17.4945 156.088 17.6835 155.038 17.9355C154.429 17.9986 153.925 18.1246 153.379 18.2506C152.287 18.4816 151.111 18.7336 149.998 19.0486C149.137 19.2797 148.297 19.5317 147.436 19.7837C145.84 20.2037 144.307 20.6868 142.774 21.2538C140.989 21.8629 139.141 22.5349 137.356 23.27C134.101 24.6351 130.91 26.1683 127.844 27.8274C112.199 36.4171 99.4946 48.9342 90.7799 63.9085C97.7726 62.5644 104.891 61.8923 112.136 61.8923C134.962 61.8923 156.277 68.7599 174 80.4789C191.744 68.7599 213.038 61.8923 235.864 61.8923C243.109 61.8923 250.227 62.5644 257.178 63.9085ZM220.156 320.194C235.822 311.604 248.526 299.087 257.241 284.091C250.227 285.457 243.109 286.192 235.864 286.192C213.038 286.192 191.744 279.24 174 267.521C156.277 279.24 134.962 286.192 112.136 286.192C104.891 286.192 97.7726 285.457 90.8429 284.091C99.4946 299.087 112.199 311.667 127.844 320.194C130.91 321.853 134.101 323.386 137.356 324.73C139.141 325.465 140.989 326.137 142.774 326.83C146.26 327.985 149.83 328.972 153.379 329.77C153.925 329.896 154.429 330.022 155.038 330.085C156.088 330.316 157.075 330.506 158.104 330.695C159.406 330.884 160.749 331.052 162.03 331.241C163.08 331.367 164.13 331.493 165.096 331.556C165.663 331.619 166.146 331.682 166.692 331.682C167.805 331.787 168.981 331.85 170.136 331.85C171.417 331.913 172.719 331.976 174 331.976C175.281 331.976 176.583 331.913 177.864 331.85C179.04 331.85 180.153 331.787 181.308 331.682C181.854 331.682 182.358 331.619 182.904 331.556C183.891 331.493 184.941 331.367 185.97 331.241C187.272 331.052 188.616 330.884 189.896 330.695C190.946 330.506 191.933 330.316 192.962 330.085C193.529 330.022 194.075 329.896 194.621 329.77C195.734 329.518 196.847 329.287 198.002 328.972C198.863 328.72 199.724 328.489 200.585 328.237C202.181 327.796 203.714 327.313 205.184 326.83C207.032 326.137 208.796 325.465 210.581 324.73C213.899 323.386 217.091 321.853 220.156 320.194ZM247.539 173.979C240.358 165.557 231.832 158.375 222.256 152.725C216.419 149.365 210.161 146.53 203.588 144.387C201.509 137.814 198.611 131.555 195.251 125.717C189.665 116.14 182.421 107.613 173.937 100.494C165.537 107.613 158.356 116.14 152.77 125.717C149.326 131.555 146.512 137.814 144.412 144.387C137.86 146.53 131.602 149.365 125.702 152.788C116.126 158.375 107.6 165.557 100.482 174.042C107.6 182.443 116.189 189.625 125.702 195.275C131.602 198.719 137.86 201.47 144.412 203.634C146.512 210.186 149.326 216.445 152.77 222.283C158.356 231.86 165.6 240.45 174 247.506C182.484 240.387 189.665 231.86 195.251 222.283C198.674 216.445 201.509 210.186 203.588 203.634C210.161 201.47 216.419 198.656 222.256 195.212C231.874 189.625 240.421 182.443 247.539 173.979ZM131.896 131.933C138.28 116.14 148.171 102.216 160.497 90.9798C146.323 82.7051 129.755 77.9167 112.136 77.9167C101.888 77.9167 91.9348 79.5129 82.4852 82.5791C79.4823 91.9039 77.8863 101.901 77.8863 112.15C77.8863 129.77 82.6741 146.299 90.9689 160.538C102.203 148.189 116.189 138.318 131.896 131.933ZM160.497 257.02C148.171 245.784 138.28 231.86 131.896 216.151C116.189 209.703 102.203 199.811 91.0319 187.483C82.6741 201.722 77.8863 218.23 77.8863 235.85C77.8863 246.162 79.5453 256.117 82.5482 265.505C91.9348 268.508 101.888 270.167 112.136 270.167C129.755 270.167 146.323 265.379 160.497 257.02ZM80.5322 174.042C68.7516 156.232 61.8639 135 61.8639 112.15C61.8639 104.862 62.5358 97.7424 63.9008 90.7908C48.9073 99.4436 36.3917 112.15 27.866 127.817H27.803C26.1441 130.883 24.6112 134.076 23.2672 137.394C22.5322 139.179 21.8602 141.006 21.2303 142.791C20.0753 146.299 19.0253 149.785 18.2904 153.355C18.1644 153.901 18.0384 154.447 17.9124 155.014C17.7444 156.043 17.5554 157.094 17.3664 158.081C17.1144 159.425 16.9464 160.706 16.8204 162.071C16.6314 163.1 16.5684 164.087 16.4424 165.137C16.3794 165.683 16.3794 166.187 16.3164 166.733C16.2744 167.846 16.1484 169.002 16.1484 170.115C16.0854 171.459 16.0854 172.677 16.0854 174.042C16.0854 175.323 16.0854 176.562 16.1484 177.906C16.1484 178.998 16.2744 180.175 16.3164 181.288C16.3794 181.834 16.3794 182.38 16.4424 182.884C16.5684 183.913 16.6314 184.9 16.8204 186.013C16.9464 187.294 17.1144 188.575 17.3664 189.94C17.5554 190.906 17.7444 191.957 17.9124 193.007C18.0384 193.553 18.1644 194.099 18.2904 194.666C18.5424 195.758 18.7734 196.871 19.0883 197.984C19.2773 198.887 19.5083 199.748 19.7603 200.609C20.2013 202.142 20.6843 203.676 21.2303 205.209C21.8602 207.057 22.5322 208.842 23.2672 210.627C24.6112 213.945 26.1441 217.138 27.803 220.204H27.866C36.3917 235.85 48.9073 248.556 63.9008 257.209C62.5358 250.279 61.8639 243.159 61.8639 235.85C61.8639 213.021 68.7516 191.768 80.5322 174.042Z" fill="#3A68B8"/>
</svg>
