<svg width="129" height="128" viewBox="0 0 129 128" fill="none" xmlns="http://www.w3.org/2000/svg">
<g style="mix-blend-mode:screen" opacity="0.3">
<path d="M124.172 81.5038H124.217L124.601 80.6009C124.466 80.9169 124.33 81.2103 124.172 81.5038ZM124.172 46.4285C124.24 46.5639 124.308 46.6767 124.353 46.8122L124.195 46.4285H124.172ZM110.562 63.9661C110.562 59.2488 113.383 55.1634 117.446 53.3578C117.243 52.7709 117.017 52.1841 116.791 51.6198C116.43 50.7395 116.001 49.8593 115.573 48.979L115.234 48.3921C115.166 48.2567 115.076 48.1213 114.986 47.9859C108.892 50.7395 104.648 56.8788 104.648 63.9661C104.648 71.0534 108.892 77.1927 114.986 79.9464C115.076 79.8109 115.144 79.6755 115.234 79.5401L115.505 79.0435C115.979 78.1407 116.408 77.2153 116.791 76.3124C117.017 75.7707 117.243 75.1839 117.446 74.5745C113.383 72.7688 110.562 68.6835 110.562 63.9661Z" fill="#F9FEFF"/>
<path d="M124.985 48.2567C124.781 47.7601 124.578 47.2861 124.353 46.8121C124.285 46.6767 124.24 46.5413 124.172 46.4284C119.68 36.8357 111.826 29.5453 102.346 25.7308C99.9082 24.7377 97.3351 23.9929 94.6943 23.4737C92.1438 22.9772 89.5255 22.7289 86.8396 22.7289C78.4432 22.7289 70.6111 25.2568 64.0881 29.5905C62.3501 30.7416 60.6798 32.0281 59.145 33.4501C54.6082 37.5806 50.9743 42.7042 48.6044 48.4824C47.6112 50.92 46.8438 53.4931 46.3473 56.1565C48.4915 54.8925 50.7937 53.8543 53.2088 53.0869C53.9988 50.6718 55.0145 48.3695 56.2785 46.2253C58.3324 42.7042 60.9733 39.5668 64.0881 36.9486C65.6454 35.6395 67.2931 34.4658 69.0537 33.4501C74.2901 30.3804 80.3617 28.6425 86.8396 28.6425C90.6089 28.6425 94.288 29.2293 97.7188 30.3579C100.111 31.1253 102.414 32.141 104.58 33.405C110.088 36.61 114.692 41.2822 117.83 47.0153C118.439 48.1438 119.003 49.3175 119.5 50.5363C119.771 51.1909 120.019 51.868 120.245 52.5226C120.448 53.0869 120.628 53.6511 120.786 54.2154C120.877 54.5314 120.967 54.8474 121.057 55.1634C121.17 55.5697 121.26 55.9985 121.351 56.4048C121.396 56.6079 121.441 56.8111 121.486 57.0142C121.554 57.3979 121.621 57.7816 121.689 58.1428C121.779 58.6167 121.825 59.1133 121.892 59.5873C121.937 59.971 121.983 60.3547 122.028 60.7158C122.028 60.919 122.05 61.0995 122.073 61.3027C122.095 61.709 122.141 62.1378 122.141 62.5667C122.141 63.0407 122.163 63.5146 122.163 63.9886C122.163 64.4626 122.163 64.9366 122.141 65.4106C122.141 65.8169 122.095 66.2457 122.073 66.6746C122.073 66.8777 122.073 67.0583 122.028 67.2614C121.983 67.6451 121.96 68.0063 121.892 68.39C121.825 68.864 121.757 69.3605 121.689 69.8345C121.621 70.2182 121.554 70.5794 121.486 70.9631C121.441 71.1662 121.396 71.3693 121.351 71.5725C121.057 72.8816 120.696 74.1907 120.267 75.4547C120.042 76.1318 119.793 76.7864 119.522 77.4409C119.026 78.6372 118.462 79.8335 117.852 80.962C114.715 86.7176 110.11 91.3898 104.603 94.5723C102.459 95.8137 100.156 96.8294 97.7639 97.6194C94.3106 98.7254 90.6541 99.3348 86.8622 99.3348C80.3843 99.3348 74.3127 97.5742 69.0762 94.5272C67.3383 93.5115 65.668 92.3378 64.1332 91.0512C61.0184 88.433 58.3776 85.2956 56.3236 81.7746C55.0597 79.6303 54.0214 77.3281 53.254 74.913C50.8389 74.123 48.5366 73.1073 46.3924 71.8433C46.9115 74.5067 47.6564 77.0572 48.6495 79.5175C50.9969 85.2956 54.6308 90.4418 59.1901 94.5723C60.7475 95.9717 62.3952 97.2583 64.1332 98.4319C70.6562 102.766 78.4883 105.294 86.8847 105.294C89.5481 105.294 92.1889 105.045 94.7394 104.549C97.3802 104.052 99.9308 103.285 102.368 102.292C111.848 98.4545 119.726 91.1641 124.195 81.594C124.33 81.3006 124.465 81.0071 124.623 80.6912C124.759 80.3977 124.894 80.0817 125.007 79.7657C127.061 74.8001 128.099 69.496 128.099 64.0563C128.099 58.6167 127.061 53.3126 125.007 48.3469L124.985 48.2567Z" fill="#F9FEFF"/>
<path d="M80.7228 3.45337C81.0388 3.5888 81.3322 3.72422 81.6256 3.88222V3.83708L80.7228 3.45337ZM46.5729 3.85965C46.7083 3.8145 46.8212 3.74679 46.9566 3.70165L46.5729 3.85965ZM79.662 12.7978L79.1654 12.5269C78.2626 12.0529 77.3372 11.6241 76.4343 11.2404C75.8926 11.0146 75.3058 10.7889 74.6963 10.5858C72.8907 14.6486 68.8053 17.4699 64.088 17.4699C59.3707 17.4699 55.2853 14.6486 53.4796 10.5858C52.8928 10.7889 52.3059 11.0146 51.7417 11.2404C50.8614 11.6015 49.9811 12.0303 49.1009 12.4592L48.514 12.7978C48.3786 12.8655 48.2432 12.9558 48.1077 13.046C50.8614 19.1402 57.0007 23.3835 64.088 23.3835C71.1753 23.3835 77.3146 19.1402 80.0682 13.046C79.9328 12.9558 79.7974 12.888 79.662 12.7978Z" fill="#F9FEFF"/>
<path d="M104.603 33.3599C104.106 30.7191 103.339 28.1686 102.346 25.7309C98.5087 16.2511 91.2183 8.37383 81.6482 3.90478C81.3548 3.76935 81.0614 3.63393 80.7454 3.47593C80.452 3.3405 80.136 3.20508 79.82 3.09222C74.8544 1.03827 69.5502 0 64.1106 0C58.671 0 53.3668 1.03827 48.4012 3.09222C47.9046 3.29536 47.4306 3.4985 46.9566 3.72421C46.8212 3.79192 46.6858 3.83707 46.5729 3.90478C36.9802 8.3964 29.6898 16.2511 25.8753 25.7309C24.8822 28.1686 24.1374 30.7417 23.6182 33.3825C23.1217 35.933 22.8734 38.5512 22.8734 41.2372C22.8734 49.6336 25.4013 57.4657 29.735 63.9887C30.8861 65.7267 32.1726 67.3969 33.5946 68.9318C37.7251 73.4685 42.8487 77.1025 48.6269 79.4724C51.0645 80.4655 53.6376 81.233 56.301 81.7295C55.037 79.5853 53.9988 77.283 53.2314 74.8679C50.8163 74.078 48.514 73.0623 46.3698 71.7983C42.8487 69.7443 39.7113 67.1035 37.0931 63.9887C35.784 62.4313 34.6103 60.7836 33.5946 59.0231C30.5249 53.7866 28.787 47.7151 28.787 41.2372C28.787 37.4678 29.3738 33.7888 30.5024 30.358C31.2698 27.9654 32.2855 25.6632 33.5495 23.4964C36.7545 17.9891 41.4267 13.3846 47.1598 10.2472C48.2883 9.61524 49.462 9.05096 50.6808 8.5544C51.3354 8.28355 52.0125 8.03527 52.6671 7.80956C53.2314 7.60642 53.7956 7.42585 54.3599 7.26786C54.6759 7.17757 54.9919 7.08729 55.3079 6.997C55.7142 6.88415 56.143 6.79386 56.5493 6.70358C56.7524 6.65844 56.9556 6.6133 57.1587 6.56816C57.5424 6.50044 57.9261 6.43273 58.2873 6.36502C58.7612 6.27473 59.2578 6.22959 59.7318 6.16188C60.1155 6.11674 60.4992 6.07159 60.8603 6.02645C61.0635 6.02645 61.244 6.00388 61.4472 5.98131C61.8535 5.95874 62.2823 5.9136 62.7112 5.9136C63.1852 5.9136 63.6591 5.89103 64.1331 5.89103C64.6071 5.89103 65.0811 5.89103 65.5551 5.9136C65.9614 5.9136 66.3902 5.95874 66.8191 5.98131C67.0222 5.98131 67.2028 5.98131 67.4059 6.02645C67.7896 6.07159 68.1508 6.09416 68.5345 6.16188C69.0085 6.22959 69.505 6.2973 69.979 6.36502C70.3627 6.43273 70.7239 6.50044 71.1076 6.56816C71.3107 6.6133 71.5138 6.65844 71.717 6.70358C73.0261 6.997 74.3352 7.35814 75.5992 7.78699C76.2763 8.0127 76.9309 8.26098 77.5854 8.53183C78.7817 9.02839 79.978 9.59267 81.1065 10.2021C86.8621 13.3394 91.5343 17.9665 94.7168 23.4738C95.9582 25.6181 96.9739 27.9203 97.7639 30.3128C98.8699 33.7662 99.4793 37.4227 99.4793 41.2146C99.4793 47.6925 97.7187 53.7641 94.6717 59.0005C93.656 60.7385 92.4823 62.4088 91.1957 63.9436C88.5775 67.0584 85.4401 69.6992 81.9191 71.7531C79.7748 73.0171 77.4726 74.0554 75.0575 74.8228C74.2675 77.2379 73.2518 79.5401 71.9878 81.6844C74.6512 81.1652 77.2017 80.4204 79.662 79.4273C85.4401 77.0799 90.5863 73.446 94.7168 68.8866C96.1162 67.3292 97.4028 65.6816 98.5765 63.9436C102.91 57.4206 105.438 49.5884 105.438 41.192C105.438 38.5287 105.19 35.8879 104.693 33.3373L104.603 33.3599Z" fill="#F9FEFF"/>
<path d="M3.98167 46.4285L3.59796 47.3313C3.73339 47.0153 3.86881 46.7219 4.02681 46.4285H3.98167ZM3.84624 81.1201L4.00424 81.5038C3.93653 81.3683 3.86881 81.2555 3.82367 81.1201H3.84624ZM13.1906 47.9859C13.1003 48.1213 13.0326 48.2567 12.9423 48.3921L12.6715 48.8887C12.1975 49.7915 11.7687 50.717 11.3849 51.6198C11.1592 52.1615 10.9335 52.7483 10.7304 53.3578C14.7932 55.1634 17.6145 59.2488 17.6145 63.9661C17.6145 68.6835 14.7932 72.7688 10.7304 74.5745C10.9335 75.1613 11.1592 75.7482 11.3849 76.3124C11.7461 77.1927 12.1749 78.073 12.6038 78.9533L12.9423 79.5401C13.0101 79.6755 13.1003 79.8109 13.1906 79.9464C19.2848 77.1927 23.5281 71.0534 23.5281 63.9661C23.5281 56.8788 19.2848 50.7395 13.1906 47.9859Z" fill="#F9FEFF"/>
<path d="M71.9202 81.7069C69.8663 85.228 67.2255 88.3654 64.1107 90.9836C62.5533 92.2927 60.9056 93.4664 59.145 94.4821C53.9086 97.5517 47.837 99.2897 41.3591 99.2897C37.5898 99.2897 33.9107 98.7029 30.4799 97.5743C28.0874 96.8069 25.7851 95.7912 23.6183 94.5272C18.111 91.3222 13.5065 86.65 10.3692 80.9169C9.75974 79.7884 9.19547 78.6147 8.69891 77.3959C8.42806 76.7413 8.17978 76.0642 7.95407 75.4096C7.75093 74.8453 7.57036 74.2811 7.41236 73.7168C7.32208 73.4008 7.23179 73.0848 7.14151 72.7688C7.02866 72.3625 6.93837 71.9337 6.84809 71.5274C6.80295 71.3243 6.7578 71.1211 6.71266 70.918C6.64495 70.5343 6.57724 70.1506 6.50952 69.7894C6.41924 69.3155 6.3741 68.8189 6.30638 68.3449C6.26124 67.9612 6.2161 67.5775 6.17096 67.2164C6.17096 67.0132 6.14839 66.8327 6.12582 66.6295C6.10325 66.2232 6.0581 65.7944 6.0581 65.3655C6.0581 64.8915 6.03553 64.4176 6.03553 63.9436C6.03553 63.4696 6.03553 62.9956 6.0581 62.5216C6.0581 62.1153 6.10325 61.6865 6.12582 61.2576C6.12582 61.0545 6.12582 60.8739 6.17096 60.6708C6.2161 60.2871 6.23867 59.9259 6.30638 59.5422C6.3741 59.0682 6.44181 58.5717 6.50952 58.0977C6.57724 57.714 6.64495 57.3528 6.71266 56.9691C6.7578 56.766 6.80295 56.5629 6.84809 56.3597C7.14151 55.0506 7.50265 53.7415 7.9315 52.4775C8.15721 51.8004 8.40549 51.1458 8.67634 50.4913C9.1729 49.295 9.73717 48.0987 10.3466 46.9702C13.484 41.2146 18.0884 36.5424 23.5958 33.3599C25.74 32.1185 28.0422 31.1028 30.4348 30.3128C33.8881 29.2068 37.5446 28.5974 41.3365 28.5974C47.8144 28.5974 53.886 30.3579 59.1225 33.405C60.8604 34.4207 62.5307 35.5944 64.0655 36.881C67.1803 39.4992 69.8211 42.6366 71.8751 46.1576C73.1391 48.3019 74.1773 50.6041 74.9447 53.0192C77.3598 53.8092 79.6621 54.8249 81.8063 56.0889C81.2872 53.4255 80.5423 50.875 79.5492 48.4147C77.2018 42.6366 73.5679 37.4904 69.0086 33.3599C67.4512 31.9605 65.8035 30.6739 64.0655 29.5002C57.5425 25.1666 49.7104 22.6387 41.314 22.6387C38.6506 22.6387 36.0098 22.887 33.4593 23.3835C30.8185 23.8801 28.2679 24.6475 25.8303 25.6406C16.3505 29.4777 8.4732 36.7681 4.00414 46.3382C3.86872 46.6316 3.73329 46.925 3.5753 47.241C3.43987 47.5345 3.30444 47.8505 3.19159 48.1665C1.13763 53.1321 0.0993652 58.4362 0.0993652 63.8759C0.0993652 69.3155 1.13763 74.6196 3.19159 79.5853C3.39473 80.0818 3.59787 80.5558 3.82358 81.0298C3.89129 81.1652 3.93643 81.3006 4.00414 81.4135C8.49577 91.0062 16.3505 98.2966 25.8303 102.111C28.2679 103.104 30.841 103.849 33.4818 104.368C36.0324 104.865 38.6506 105.113 41.3365 105.113C49.733 105.113 57.5651 102.585 64.0881 98.2515C65.8261 97.1003 67.4963 95.8138 69.0311 94.3918C73.5679 90.2613 77.2018 85.1377 79.5718 79.3595C80.5649 76.9219 81.3323 74.3488 81.8289 71.6854C79.6846 72.9494 77.3824 73.9877 74.9673 74.7551C74.1773 77.1702 73.1616 79.4724 71.8977 81.6166L71.9202 81.7069Z" fill="#F9FEFF"/>
<path d="M46.5729 124.028V124.073L47.4757 124.456C47.1598 124.321 46.8663 124.186 46.5729 124.028ZM81.2645 124.208L81.6482 124.05C81.5128 124.095 81.3999 124.163 81.2645 124.208ZM64.1106 104.526C57.0233 104.526 50.884 108.77 48.1303 114.864C48.2657 114.954 48.4012 115.022 48.5366 115.112L49.0331 115.383C49.936 115.857 50.8614 116.286 51.7642 116.669C52.3059 116.895 52.8928 117.121 53.5022 117.324C55.3079 113.261 59.3932 110.44 64.1106 110.44C68.8279 110.44 72.9132 113.261 74.7189 117.324C75.3058 117.121 75.8926 116.895 76.4569 116.669C77.3372 116.308 78.2174 115.879 79.0977 115.451L79.6845 115.112C79.82 115.044 79.9554 114.954 80.0908 114.864C77.3372 108.77 71.1978 104.526 64.1106 104.526Z" fill="#F9FEFF"/>
<path d="M98.4864 63.9661C97.3353 62.2282 96.0487 60.5579 94.6267 59.0231C90.4963 54.4863 85.3726 50.8524 79.5945 48.4824C77.1568 47.4893 74.5837 46.7219 71.9203 46.2253C73.1843 48.3696 74.2226 50.6718 74.99 53.0869C77.4051 53.8769 79.7073 54.8926 81.8516 56.1566C85.3726 58.2105 88.51 60.8513 91.1282 63.9661C92.4374 65.5235 93.6111 67.1712 94.6267 68.9317C97.6964 74.1682 99.4344 80.2398 99.4344 86.7177C99.4344 90.487 98.8475 94.1661 97.719 97.5969C96.9516 99.9894 95.9359 102.292 94.6719 104.458C91.4668 109.966 86.7946 114.57 81.0616 117.708C79.933 118.34 78.7594 118.904 77.5405 119.4C76.886 119.671 76.2088 119.92 75.5543 120.145C74.99 120.348 74.4257 120.529 73.8614 120.687C73.5455 120.777 73.2295 120.868 72.9135 120.958C72.5072 121.071 72.0783 121.161 71.6721 121.251C71.4689 121.296 71.2658 121.342 71.0626 121.387C70.6789 121.454 70.2952 121.522 69.9341 121.59C69.4601 121.68 68.9635 121.725 68.4896 121.793C68.1059 121.838 67.7221 121.883 67.361 121.928C67.1579 121.928 66.9773 121.951 66.7742 121.974C66.3679 121.996 65.939 122.041 65.5102 122.041C65.0362 122.041 64.5622 122.064 64.0882 122.064C63.6142 122.064 63.1402 122.064 62.6662 122.041C62.26 122.041 61.8311 121.996 61.4023 121.974C61.1991 121.974 61.0186 121.974 60.8154 121.928C60.4317 121.883 60.0706 121.861 59.6869 121.793C59.2129 121.725 58.7163 121.658 58.2423 121.59C57.8586 121.522 57.4975 121.454 57.1138 121.387C56.9106 121.342 56.7075 121.296 56.5044 121.251C55.1953 120.958 53.8861 120.597 52.6222 120.168C51.945 119.942 51.2905 119.694 50.6359 119.423C49.4397 118.926 48.2434 118.362 47.1148 117.753C41.3592 114.615 36.687 109.988 33.5045 104.481C32.2631 102.337 31.2474 100.035 30.4575 97.642C29.3515 94.1887 28.7421 90.5322 28.7421 86.7402C28.7421 80.2624 30.5026 74.1908 33.5497 68.9543C34.5654 67.2164 35.7391 65.5461 37.0256 64.0113C39.6438 60.8965 42.7812 58.2557 46.3023 56.2017C48.4465 54.9377 50.7488 53.8995 53.1639 53.1321C53.9538 50.717 54.9695 48.4147 56.2335 46.2705C53.5701 46.7896 51.0196 47.5345 48.5594 48.5276C42.7812 50.875 37.635 54.5089 33.5045 59.0682C32.1051 60.6256 30.8186 62.2733 29.6449 64.0113C25.3113 70.5343 22.7833 78.3664 22.7833 86.7628C22.7833 89.4262 23.0316 92.067 23.5282 94.6175C24.0247 97.2583 24.7921 99.8089 25.7853 102.247C29.6223 111.726 36.9128 119.604 46.4829 124.073C46.7763 124.208 47.0697 124.344 47.3857 124.501C47.6791 124.637 47.9951 124.772 48.3111 124.885C53.2767 126.939 58.5809 127.977 64.0205 127.977C69.4601 127.977 74.7643 126.939 79.7299 124.885C80.2265 124.682 80.7005 124.479 81.1744 124.253C81.3099 124.186 81.4453 124.14 81.5582 124.073C91.1508 119.581 98.4412 111.726 102.256 102.247C103.249 99.8089 103.994 97.2358 104.513 94.5949C105.009 92.0444 105.258 89.4262 105.258 86.7402C105.258 78.3438 102.73 70.5117 98.3961 63.9887L98.4864 63.9661Z" fill="#F9FEFF"/>
</g>
</svg>
