<svg width="181" height="56" viewBox="0 0 181 56" fill="none" xmlns="http://www.w3.org/2000/svg">
<path d="M49.1879 31.6606H49.2054L49.3545 31.3099C49.3019 31.4326 49.2493 31.5466 49.1879 31.6606ZM49.1879 18.0354C49.2142 18.088 49.2405 18.1319 49.258 18.1845L49.1967 18.0354H49.1879ZM43.9009 24.848C43.9009 23.0155 44.9969 21.4286 46.5751 20.7271C46.4962 20.4992 46.4085 20.2712 46.3208 20.052C46.1805 19.7101 46.014 19.3681 45.8474 19.0262L45.7158 18.7982C45.6895 18.7456 45.6545 18.693 45.6194 18.6404C43.2521 19.7101 41.6037 22.0949 41.6037 24.848C41.6037 27.6011 43.2521 29.9859 45.6194 31.0556C45.6545 31.003 45.6808 30.9504 45.7158 30.8978L45.8211 30.7049C46.0052 30.3542 46.1718 29.9947 46.3208 29.644C46.4085 29.4336 46.4962 29.2056 46.5751 28.9689C44.9969 28.2675 43.9009 26.6805 43.9009 24.848Z" fill="#F9FEFF"/>
<path d="M49.5035 18.7456C49.4246 18.5527 49.3457 18.3686 49.258 18.1845C49.2317 18.1319 49.2141 18.0793 49.1878 18.0354C47.4431 14.3091 44.3919 11.4771 40.7094 9.99536C39.7624 9.60957 38.7629 9.32024 37.7371 9.11858C36.7463 8.92568 35.7292 8.82924 34.6859 8.82924C31.4242 8.82924 28.3818 9.81123 25.8479 11.4947C25.1728 11.9418 24.524 12.4416 23.9278 12.994C22.1654 14.5985 20.7538 16.5888 19.8332 18.8333C19.4474 19.7802 19.1493 20.7798 18.9564 21.8144C19.7894 21.3234 20.6837 20.9201 21.6218 20.622C21.9287 19.6838 22.3233 18.7895 22.8143 17.9565C23.6121 16.5888 24.638 15.37 25.8479 14.353C26.4529 13.8444 27.0929 13.3885 27.7768 12.994C29.811 11.8015 32.1695 11.1264 34.6859 11.1264C36.1501 11.1264 37.5793 11.3544 38.912 11.7928C39.8414 12.0909 40.7357 12.4854 41.5774 12.9764C43.7167 14.2214 45.5054 16.0364 46.7241 18.2634C46.9608 18.7018 47.18 19.1577 47.3729 19.6312C47.4781 19.8855 47.5746 20.1485 47.6622 20.4028C47.7412 20.622 47.8113 20.8411 47.8727 21.0603C47.9077 21.1831 47.9428 21.3058 47.9779 21.4286C48.0217 21.5864 48.0568 21.753 48.0919 21.9108C48.1094 21.9897 48.1269 22.0686 48.1445 22.1476C48.1708 22.2966 48.1971 22.4457 48.2234 22.5859C48.2585 22.7701 48.276 22.963 48.3023 23.1471C48.3198 23.2961 48.3374 23.4452 48.3549 23.5855C48.3549 23.6644 48.3637 23.7345 48.3724 23.8134C48.3812 23.9713 48.3987 24.1378 48.3987 24.3044C48.3987 24.4886 48.4075 24.6727 48.4075 24.8568C48.4075 25.0409 48.4075 25.2251 48.3987 25.4092C48.3987 25.567 48.3812 25.7336 48.3724 25.9002C48.3724 25.9791 48.3724 26.0492 48.3549 26.1281C48.3374 26.2772 48.3286 26.4175 48.3023 26.5665C48.276 26.7507 48.2497 26.9435 48.2234 27.1277C48.1971 27.2767 48.1708 27.417 48.1445 27.5661C48.1269 27.645 48.1094 27.7239 48.0919 27.8028C47.9779 28.3113 47.8376 28.8199 47.671 29.3109C47.5833 29.5739 47.4869 29.8282 47.3817 30.0824C47.1888 30.5471 46.9696 31.0118 46.7329 31.4502C45.5141 33.686 43.7255 35.5009 41.5862 36.7372C40.7532 37.2194 39.8589 37.614 38.9295 37.9209C37.588 38.3505 36.1676 38.5872 34.6946 38.5872C32.1783 38.5872 29.8197 37.9033 27.7856 36.7197C27.1105 36.3251 26.4617 35.8692 25.8655 35.3694C24.6555 34.3524 23.6297 33.1336 22.8318 31.7658C22.3408 30.9329 21.9375 30.0386 21.6394 29.1004C20.7012 28.7936 19.8069 28.399 18.9739 27.908C19.1756 28.9426 19.4649 29.9334 19.8507 30.8891C20.7626 33.1336 22.1742 35.1327 23.9453 36.7372C24.5503 37.2808 25.1903 37.7806 25.8655 38.2365C28.3994 39.9199 31.4418 40.9019 34.7034 40.9019C35.738 40.9019 36.7638 40.8055 37.7546 40.6126C38.7804 40.4197 39.7712 40.1216 40.7181 39.7358C44.4006 38.2453 47.4606 35.4133 49.1966 31.6957C49.2492 31.5817 49.3018 31.4677 49.3632 31.345C49.4158 31.231 49.4684 31.1083 49.5123 30.9855C50.3101 29.0566 50.7134 26.9962 50.7134 24.8831C50.7134 22.7701 50.3101 20.7096 49.5123 18.7807L49.5035 18.7456Z" fill="#F9FEFF"/>
<path d="M32.3099 1.34147C32.4326 1.39408 32.5466 1.44668 32.6606 1.50806V1.49052L32.3099 1.34147ZM19.0442 1.49929C19.0968 1.48175 19.1406 1.45545 19.1932 1.43791L19.0442 1.49929ZM31.8978 4.97134L31.7049 4.86613C31.3542 4.68201 30.9947 4.51542 30.644 4.36637C30.4336 4.27869 30.2056 4.19101 29.9689 4.1121C29.2675 5.69031 27.6805 6.78628 25.848 6.78628C24.0155 6.78628 22.4286 5.69031 21.7271 4.1121C21.4992 4.19101 21.2712 4.27869 21.052 4.36637C20.7101 4.50665 20.3681 4.67324 20.0262 4.83983L19.7982 4.97134C19.7456 4.99765 19.693 5.03272 19.6404 5.06779C20.7101 7.4351 23.0949 9.08345 25.848 9.08345C28.6011 9.08345 30.9859 7.4351 32.0556 5.06779C32.003 5.03272 31.9504 5.00642 31.8978 4.97134Z" fill="#F9FEFF"/>
<path d="M41.5862 12.9589C41.3933 11.933 41.0952 10.9423 40.7094 9.99534C39.2189 6.31286 36.3869 3.25289 32.6693 1.51686C32.5553 1.46426 32.4414 1.41165 32.3186 1.35027C32.2046 1.29767 32.0819 1.24506 31.9591 1.20122C30.0302 0.40335 27.9698 3.05176e-05 25.8567 3.05176e-05C23.7437 3.05176e-05 21.6833 0.40335 19.7543 1.20122C19.5614 1.28013 19.3773 1.35904 19.1932 1.44672C19.1406 1.47302 19.088 1.49056 19.0441 1.51686C15.3178 3.26166 12.4858 6.31286 11.0041 9.99534C10.6183 10.9423 10.3289 11.9418 10.1273 12.9676C9.93438 13.9584 9.83794 14.9755 9.83794 16.0188C9.83794 19.2805 10.8199 22.3229 12.5034 24.8568C12.9505 25.5319 13.4503 26.1807 14.0026 26.7769C15.6072 28.5393 17.5975 29.9509 19.842 30.8715C20.7889 31.2573 21.7885 31.5554 22.8231 31.7483C22.3321 30.9154 21.9288 30.021 21.6307 29.0829C20.6925 28.776 19.7982 28.3815 18.9652 27.8905C17.5975 27.0926 16.3787 26.0668 15.3617 24.8568C14.8531 24.2518 14.3972 23.6118 14.0026 22.9279C12.8102 20.8937 12.1351 18.5352 12.1351 16.0188C12.1351 14.5546 12.3631 13.1255 12.8015 11.7927C13.0996 10.8634 13.4941 9.96904 13.9851 9.12733C15.2301 6.98798 17.0451 5.19935 19.2721 3.98062C19.7105 3.73512 20.1664 3.51593 20.6399 3.32303C20.8942 3.21782 21.1572 3.12137 21.4115 3.0337C21.6307 2.95478 21.8498 2.88464 22.069 2.82327C22.1918 2.7882 22.3145 2.75312 22.4373 2.71805C22.5951 2.67421 22.7617 2.63914 22.9195 2.60407C22.9984 2.58654 23.0773 2.569 23.1563 2.55147C23.3053 2.52516 23.4544 2.49886 23.5946 2.47255C23.7788 2.43748 23.9717 2.41995 24.1558 2.39364C24.3048 2.37611 24.4539 2.35857 24.5942 2.34104C24.6731 2.34104 24.7432 2.33227 24.8221 2.3235C24.98 2.31473 25.1465 2.2972 25.3131 2.2972C25.4973 2.2972 25.6814 2.28843 25.8655 2.28843C26.0496 2.28843 26.2338 2.28843 26.4179 2.2972C26.5757 2.2972 26.7423 2.31473 26.9089 2.3235C26.9878 2.3235 27.0579 2.3235 27.1368 2.34104C27.2859 2.35857 27.4262 2.36734 27.5752 2.39364C27.7594 2.41995 27.9522 2.44625 28.1364 2.47255C28.2854 2.49886 28.4257 2.52516 28.5748 2.55147C28.6537 2.569 28.7326 2.58654 28.8115 2.60407C29.32 2.71805 29.8286 2.85834 30.3196 3.02493C30.5826 3.11261 30.8369 3.20905 31.0911 3.31427C31.5558 3.50716 32.0205 3.72635 32.4589 3.96308C34.6947 5.18181 36.5096 6.97921 37.7459 9.11856C38.2281 9.9515 38.6227 10.8458 38.9296 11.7752C39.3592 13.1167 39.5959 14.5371 39.5959 16.0101C39.5959 18.5264 38.912 20.885 37.7284 22.9191C37.3338 23.5942 36.8779 24.243 36.3781 24.8393C35.361 26.0492 34.1423 27.075 32.7745 27.8729C31.9416 28.3639 31.0473 28.7672 30.1091 29.0653C29.8023 30.0035 29.4077 30.8978 28.9167 31.7308C29.9513 31.5291 30.9421 31.2398 31.8978 30.854C34.1423 29.9421 36.1414 28.5305 37.7459 26.7594C38.2895 26.1544 38.7893 25.5144 39.2452 24.8393C40.9286 22.3054 41.9106 19.2629 41.9106 16.0013C41.9106 14.9667 41.8142 13.9409 41.6213 12.9501L41.5862 12.9589Z" fill="#F9FEFF"/>
<path d="M2.49929 18.0354L2.35023 18.3861C2.40284 18.2634 2.45545 18.1494 2.51682 18.0354H2.49929ZM2.44668 31.5116L2.50806 31.6606C2.48175 31.608 2.45545 31.5642 2.43791 31.5116H2.44668ZM6.07656 18.6404C6.04149 18.693 6.01518 18.7456 5.98011 18.7982L5.8749 18.9911C5.69077 19.3418 5.52418 19.7013 5.37513 20.052C5.28745 20.2624 5.19978 20.4904 5.12087 20.7271C6.69907 21.4286 7.79505 23.0155 7.79505 24.848C7.79505 26.6805 6.69907 28.2675 5.12087 28.9689C5.19978 29.1968 5.28745 29.4248 5.37513 29.644C5.51542 29.9859 5.68201 30.3279 5.84859 30.6698L5.98011 30.8978C6.00641 30.9504 6.04149 31.003 6.07656 31.0556C8.44387 29.9859 10.0922 27.6011 10.0922 24.848C10.0922 22.0949 8.44387 19.7101 6.07656 18.6404Z" fill="#F9FEFF"/>
<path d="M28.8904 31.7395C28.0925 33.1073 27.0667 34.326 25.8567 35.3431C25.2518 35.8516 24.6117 36.3076 23.9278 36.7021C21.8937 37.8945 19.5351 38.5697 17.0188 38.5697C15.5546 38.5697 14.1254 38.3417 12.7927 37.9033C11.8633 37.6052 10.969 37.2106 10.1273 36.7196C7.98793 35.4746 6.19929 33.6597 4.98057 31.4326C4.74384 30.9943 4.52464 30.5383 4.33175 30.0649C4.22654 29.8106 4.13009 29.5476 4.04241 29.2933C3.9635 29.0741 3.89336 28.8549 3.83198 28.6357C3.79691 28.513 3.76184 28.3902 3.72677 28.2675C3.68293 28.1096 3.64786 27.9431 3.61279 27.7852C3.59525 27.7063 3.57772 27.6274 3.56018 27.5485C3.53388 27.3995 3.50757 27.2504 3.48127 27.1101C3.4462 26.926 3.42866 26.7331 3.40236 26.549C3.38482 26.3999 3.36729 26.2509 3.34975 26.1106C3.34975 26.0317 3.34099 25.9615 3.33222 25.8826C3.32345 25.7248 3.30591 25.5582 3.30591 25.3916C3.30591 25.2075 3.29715 25.0234 3.29715 24.8392C3.29715 24.6551 3.29715 24.471 3.30591 24.2869C3.30591 24.1291 3.32345 23.9625 3.33222 23.7959C3.33222 23.717 3.33222 23.6468 3.34975 23.5679C3.36729 23.4189 3.37606 23.2786 3.40236 23.1295C3.42866 22.9454 3.45497 22.7525 3.48127 22.5684C3.50757 22.4193 3.53388 22.279 3.56018 22.13C3.57772 22.0511 3.59525 21.9722 3.61279 21.8933C3.72677 21.3847 3.86705 20.8762 4.03364 20.3852C4.12132 20.1222 4.21777 19.8679 4.32298 19.6136C4.51587 19.1489 4.73507 18.6842 4.9718 18.2459C6.19053 16.0101 7.97916 14.1951 10.1185 12.9589C10.9515 12.4766 11.8458 12.0821 12.7752 11.7752C14.1166 11.3456 15.537 11.1088 17.01 11.1088C19.5264 11.1088 21.8849 11.7927 23.9191 12.9764C24.5942 13.3709 25.243 13.8269 25.8392 14.3266C27.0492 15.3437 28.075 16.5624 28.8729 17.9302C29.3639 18.7632 29.7672 19.6575 30.0653 20.5956C31.0034 20.9025 31.8978 21.2971 32.7307 21.788C32.529 20.7534 32.2397 19.7627 31.8539 18.807C30.9421 16.5624 29.5305 14.5634 27.7594 12.9589C27.1544 12.4153 26.5143 11.9155 25.8392 11.4596C23.3053 9.77614 20.2629 8.79414 17.0012 8.79414C15.9666 8.79414 14.9408 8.89059 13.95 9.08348C12.9242 9.27637 11.9334 9.57448 10.9865 9.96026C7.30404 11.4508 4.24407 14.2828 2.50804 18.0004C2.45544 18.1143 2.40283 18.2283 2.34145 18.3511C2.28885 18.465 2.23624 18.5878 2.1924 18.7105C1.39453 20.6395 0.991211 22.6999 0.991211 24.8129C0.991211 26.926 1.39453 28.9864 2.1924 30.9153C2.27131 31.1082 2.35022 31.2924 2.4379 31.4765C2.4642 31.5291 2.48174 31.5817 2.50804 31.6255C4.25284 35.3519 7.30404 38.1839 10.9865 39.6656C11.9334 40.0514 12.933 40.3408 13.9588 40.5424C14.9496 40.7353 15.9666 40.8318 17.01 40.8318C20.2716 40.8318 23.3141 39.8498 25.848 38.1663C26.5231 37.7192 27.1719 37.2194 27.7681 36.667C29.5305 35.0625 30.9421 33.0722 31.8627 30.8277C32.2485 29.8807 32.5466 28.8812 32.7395 27.8466C31.9065 28.3376 31.0122 28.7409 30.0741 29.039C29.7672 29.9772 29.3726 30.8715 28.8816 31.7044L28.8904 31.7395Z" fill="#F9FEFF"/>
<path d="M19.0442 48.1792V48.1967L19.3949 48.3458C19.2721 48.2932 19.1582 48.2405 19.0442 48.1792ZM32.5203 48.2493L32.6694 48.1879C32.6168 48.2055 32.5729 48.2318 32.5203 48.2493ZM25.8568 40.6038C23.1037 40.6038 20.7188 42.2521 19.6492 44.6194C19.7018 44.6545 19.7544 44.6808 19.807 44.7159L19.9999 44.8211C20.3506 45.0052 20.7101 45.1718 21.0608 45.3209C21.2712 45.4085 21.4992 45.4962 21.7359 45.5751C22.4373 43.9969 24.0243 42.9009 25.8568 42.9009C27.6892 42.9009 29.2762 43.9969 29.9776 45.5751C30.2056 45.4962 30.4336 45.4085 30.6528 45.3209C30.9947 45.1806 31.3367 45.014 31.6786 44.8474L31.9066 44.7159C31.9592 44.6896 32.0118 44.6545 32.0644 44.6194C30.9947 42.2521 28.6099 40.6038 25.8568 40.6038Z" fill="#F9FEFF"/>
<path d="M39.2101 24.8481C38.7629 24.1729 38.2632 23.5241 37.7108 22.9279C36.1063 21.1656 34.116 19.754 31.8714 18.8333C30.9245 18.4476 29.925 18.1495 28.8904 17.9566C29.3814 18.7895 29.7847 19.6838 30.0828 20.622C31.021 20.9288 31.9153 21.3234 32.7482 21.8144C34.116 22.6123 35.3347 23.6381 36.3518 24.8481C36.8603 25.453 37.3163 26.0931 37.7108 26.777C38.9032 28.8111 39.5783 31.1697 39.5783 33.686C39.5783 35.1502 39.3504 36.5794 38.912 37.9121C38.6139 38.8415 38.2193 39.7358 37.7283 40.5775C36.4833 42.7169 34.6684 44.5055 32.4413 45.7242C32.003 45.9697 31.547 46.1889 31.0736 46.3818C30.8193 46.487 30.5563 46.5835 30.302 46.6712C30.0828 46.7501 29.8636 46.8202 29.6444 46.8816C29.5217 46.9167 29.3989 46.9517 29.2762 46.9868C29.1183 47.0306 28.9518 47.0657 28.7939 47.1008C28.715 47.1183 28.6361 47.1359 28.5572 47.1534C28.4081 47.1797 28.2591 47.206 28.1188 47.2323C27.9347 47.2674 27.7418 47.2849 27.5577 47.3112C27.4086 47.3287 27.2596 47.3463 27.1193 47.3638C27.0404 47.3638 26.9702 47.3726 26.8913 47.3814C26.7335 47.3901 26.5669 47.4077 26.4003 47.4077C26.2162 47.4077 26.0321 47.4164 25.8479 47.4164C25.6638 47.4164 25.4797 47.4164 25.2956 47.4077C25.1378 47.4077 24.9712 47.3901 24.8046 47.3814C24.7257 47.3814 24.6555 47.3814 24.5766 47.3638C24.4276 47.3463 24.2873 47.3375 24.1382 47.3112C23.9541 47.2849 23.7612 47.2586 23.5771 47.2323C23.428 47.206 23.2877 47.1797 23.1387 47.1534C23.0598 47.1359 22.9809 47.1183 22.902 47.1008C22.3934 46.9868 21.8849 46.8465 21.3939 46.6799C21.1309 46.5923 20.8766 46.4958 20.6223 46.3906C20.1576 46.1977 19.6929 45.9785 19.2545 45.7418C17.0188 44.523 15.2038 42.7256 13.9676 40.5863C13.4853 39.7534 13.0908 38.859 12.7839 37.9296C12.3543 36.5882 12.1175 35.1678 12.1175 33.6948C12.1175 31.1784 12.8014 28.8199 13.9851 26.7857C14.3796 26.1106 14.8356 25.4618 15.3353 24.8656C16.3524 23.6556 17.5711 22.6298 18.9389 21.8319C19.7718 21.3409 20.6662 20.9376 21.6043 20.6395C21.9112 19.7014 22.3057 18.807 22.7967 17.9741C21.7621 18.1758 20.7714 18.4651 19.8157 18.8509C17.5711 19.7627 15.5721 21.1743 13.9676 22.9454C13.4239 23.5504 12.9242 24.1905 12.4683 24.8656C10.7848 27.3995 9.80284 30.4419 9.80284 33.7036C9.80284 34.7382 9.89929 35.764 10.0922 36.7548C10.2851 37.7806 10.5832 38.7714 10.969 39.7183C12.4595 43.4008 15.2915 46.4607 19.0091 48.1968C19.123 48.2494 19.237 48.302 19.3598 48.3633C19.4737 48.416 19.5965 48.4686 19.7192 48.5124C21.6482 49.3103 23.7086 49.7136 25.8216 49.7136C27.9347 49.7136 29.9951 49.3103 31.924 48.5124C32.1169 48.4335 32.3011 48.3546 32.4852 48.2669C32.5378 48.2406 32.5904 48.2231 32.6342 48.1968C36.3606 46.452 39.1926 43.4008 40.6743 39.7183C41.0601 38.7714 41.3494 37.7718 41.5511 36.746C41.744 35.7552 41.8404 34.7382 41.8404 33.6948C41.8404 30.4332 40.8585 27.3907 39.175 24.8568L39.2101 24.8481Z" fill="#F9FEFF"/>
<path d="M75.5264 38.6222C72.4051 38.6222 69.7221 37.9383 67.4951 36.5705C65.2681 35.2028 63.5584 33.3001 62.3659 30.8539C61.1735 28.4077 60.5773 25.5757 60.5773 22.3491C60.5773 19.1226 61.1735 16.2906 62.3659 13.8444C63.5584 11.3981 65.2681 9.49552 67.4951 8.12774C69.7221 6.75996 72.3963 6.07607 75.5264 6.07607C79.13 6.07607 82.1286 6.97916 84.531 8.77656C86.9334 10.574 88.6168 13.0026 89.59 16.0538L84.3205 17.5093C83.7156 15.4664 82.681 13.8707 81.2167 12.7221C79.7525 11.5735 77.8587 10.9948 75.5352 10.9948C73.4397 10.9948 71.6949 11.4683 70.292 12.4064C68.898 13.3446 67.8458 14.6685 67.1444 16.3695C66.443 18.0704 66.0835 20.0607 66.0747 22.3491C66.0747 24.6375 66.4254 26.6278 67.1269 28.3288C67.8283 30.0297 68.8804 31.3449 70.2833 32.2918C71.6861 33.23 73.4397 33.7035 75.5352 33.7035C77.8674 33.7035 79.7613 33.1248 81.2167 31.9674C82.681 30.8101 83.7156 29.2231 84.3205 27.189L89.59 28.6444C88.6168 31.6956 86.9334 34.1243 84.531 35.9217C82.1286 37.7191 79.13 38.6222 75.5264 38.6222Z" fill="#F9FEFF"/>
<path d="M104.145 38.6222C101.769 38.6222 99.6906 38.1049 97.8932 37.0791C96.0958 36.0532 94.7017 34.6241 93.6934 32.8004C92.6851 30.9767 92.1853 28.8812 92.1853 26.5051C92.1853 23.9449 92.6763 21.7179 93.6583 19.8328C94.6403 17.9477 96.0081 16.4835 97.7617 15.4401C99.5152 14.3967 101.541 13.8794 103.838 13.8794C106.266 13.8794 108.336 14.4493 110.037 15.5804C111.738 16.7202 113 18.3159 113.824 20.3852C114.648 22.4544 114.955 24.8918 114.754 27.6975H109.563V25.7861C109.546 23.2435 109.098 21.3847 108.222 20.2098C107.336 19.0349 105.951 18.4562 104.057 18.4562C101.918 18.4562 100.322 19.1138 99.2785 20.4378C98.2351 21.7617 97.7178 23.6994 97.7178 26.2421C97.7178 28.6181 98.2351 30.4506 99.2785 31.757C100.322 33.0634 101.839 33.7122 103.838 33.7122C105.127 33.7122 106.24 33.4229 107.17 32.853C108.099 32.2831 108.818 31.4501 109.326 30.3717L114.491 31.9324C113.596 34.0454 112.211 35.685 110.335 36.8599C108.458 38.0348 106.398 38.6134 104.136 38.6134L104.145 38.6222ZM96.0695 27.7063V23.7608H112.193V27.7063H96.0695Z" fill="#F9FEFF"/>
<path d="M128.142 38.6222C125.985 38.6222 124.109 38.0786 122.504 36.9914C120.9 35.9042 119.655 34.4312 118.769 32.5637C117.884 30.6961 117.445 28.5919 117.445 26.2509C117.445 23.9099 117.893 21.7617 118.778 19.903C119.672 18.0442 120.926 16.58 122.566 15.5015C124.197 14.4231 126.126 13.8882 128.335 13.8882C130.545 13.8882 132.43 14.4318 133.946 15.5015C135.455 16.58 136.603 18.0529 137.383 19.9205C138.164 21.788 138.558 23.9011 138.558 26.2596C138.558 28.6182 138.164 30.6874 137.383 32.5637C136.603 34.44 135.437 35.913 133.894 37.0002C132.342 38.0874 130.431 38.631 128.142 38.631V38.6222ZM128.949 33.9315C130.352 33.9315 131.483 33.6071 132.342 32.967C133.201 32.327 133.832 31.4239 134.227 30.2665C134.622 29.1092 134.823 27.7677 134.823 26.2509C134.823 24.734 134.622 23.375 134.227 22.2264C133.832 21.0778 133.21 20.1835 132.368 19.5347C131.527 18.8859 130.448 18.5703 129.115 18.5703C127.713 18.5703 126.555 18.9122 125.643 19.6049C124.731 20.2887 124.056 21.2181 123.627 22.3843C123.197 23.5504 122.978 24.8392 122.978 26.2596C122.978 27.68 123.188 28.9952 123.618 30.1525C124.048 31.3099 124.696 32.2393 125.582 32.9232C126.468 33.6071 127.59 33.9402 128.949 33.9402V33.9315ZM134.832 37.9647V21.525H134.183V6.72493H139.453V37.9734H134.832V37.9647Z" fill="#F9FEFF"/>
<path d="M143.793 37.9734V14.537H148.413V20.2449L147.852 19.5084C148.142 18.7281 148.527 18.0179 149.01 17.369C149.492 16.729 150.079 16.1942 150.754 15.7733C151.333 15.3788 151.973 15.0719 152.675 14.8527C153.376 14.6247 154.095 14.4932 154.831 14.4406C155.568 14.388 156.287 14.4231 156.979 14.537V19.4207C156.287 19.2191 155.489 19.1577 154.586 19.2278C153.683 19.298 152.867 19.5522 152.14 19.9906C151.412 20.3852 150.824 20.8762 150.369 21.4899C149.913 22.0949 149.579 22.7876 149.36 23.5591C149.141 24.3307 149.036 25.1724 149.036 26.0667V37.9822H143.784L143.793 37.9734Z" fill="#F9FEFF"/>
<path d="M169.289 38.6222C166.948 38.6222 164.897 38.0961 163.152 37.0352C161.407 35.9743 160.048 34.5189 159.084 32.6601C158.119 30.8013 157.637 28.662 157.637 26.2508C157.637 23.8397 158.128 21.639 159.11 19.7802C160.092 17.9214 161.46 16.4835 163.213 15.4401C164.967 14.3967 166.992 13.8794 169.289 13.8794C171.587 13.8794 173.7 14.4055 175.453 15.4664C177.207 16.5185 178.566 17.9828 179.53 19.8415C180.503 21.7003 180.986 23.8397 180.986 26.2508C180.986 28.662 180.495 30.8276 179.521 32.6864C178.548 34.5452 177.18 36.0006 175.427 37.044C173.673 38.0961 171.63 38.6134 169.289 38.6134V38.6222ZM169.289 33.721C171.376 33.721 172.919 33.0283 173.936 31.6343C174.953 30.2402 175.453 28.4515 175.453 26.2508C175.453 24.0501 174.936 22.165 173.91 20.8148C172.884 19.4645 171.341 18.7894 169.289 18.7894C167.887 18.7894 166.729 19.1051 165.826 19.7363C164.923 20.3676 164.257 21.2444 163.818 22.3579C163.38 23.4802 163.17 24.7778 163.17 26.2508C163.17 28.5217 163.687 30.3366 164.721 31.6869C165.756 33.0371 167.282 33.7122 169.289 33.7122V33.721Z" fill="#F9FEFF"/>
<path d="M84.1891 53.6853V46.7324H88.4853V47.276H84.7415V49.9151H87.9067V50.4587H84.7415V53.1504H88.4853V53.694H84.1891V53.6853Z" fill="#F9FEFF"/>
<path d="M91.6505 53.8343C91.1596 53.8343 90.7387 53.7116 90.4055 53.4661C90.0636 53.2206 89.8093 52.8962 89.6252 52.4753C89.4498 52.0544 89.3534 51.5897 89.3534 51.0637C89.3534 50.5376 89.4411 50.0817 89.6164 49.6696C89.7918 49.2575 90.046 48.9243 90.3792 48.6876C90.7124 48.4509 91.1157 48.3281 91.5892 48.3281C92.0626 48.3281 92.4835 48.4509 92.8167 48.6876C93.1498 48.9243 93.4041 49.2487 93.5707 49.6696C93.7373 50.0904 93.825 50.5551 93.825 51.0724C93.825 51.5897 93.7373 52.0632 93.5707 52.4753C93.4041 52.8874 93.1498 53.2206 92.8254 53.4661C92.501 53.7116 92.1065 53.8343 91.633 53.8343H91.6505ZM91.6856 53.2995C92.0714 53.2995 92.3958 53.203 92.6588 53.0101C92.9131 52.8172 93.1148 52.5454 93.2375 52.2123C93.369 51.8791 93.4304 51.4933 93.4304 51.0724C93.4304 50.6516 93.369 50.2658 93.2375 49.9326C93.106 49.5995 92.9131 49.3364 92.6588 49.1523C92.4046 48.9682 92.0802 48.8717 91.6944 48.8717C91.3086 48.8717 90.9754 48.9682 90.7124 49.1611C90.4581 49.354 90.2652 49.617 90.1337 49.9502C90.011 50.2833 89.9496 50.6604 89.9496 51.0812C89.9496 51.5021 90.011 51.8791 90.1425 52.221C90.274 52.563 90.4669 52.826 90.7212 53.0189C90.9754 53.2118 91.2998 53.317 91.6769 53.317L91.6856 53.2995ZM93.4304 53.6853V49.6696H93.3866V46.7324H93.9389V53.6853H93.4304Z" fill="#F9FEFF"/>
<path d="M97.2883 53.808C96.9989 53.808 96.7447 53.7642 96.5167 53.6853C96.2887 53.6064 96.0958 53.4836 95.9292 53.3346C95.7627 53.1855 95.6224 53.0014 95.5172 52.791C95.4119 52.5805 95.3243 52.3526 95.2717 52.1071C95.219 51.8616 95.1927 51.5985 95.1927 51.3267V48.4772H95.7539V51.1865C95.7539 51.5109 95.789 51.809 95.8503 52.0632C95.9205 52.3175 96.0169 52.5367 96.1484 52.7208C96.28 52.9049 96.4465 53.0365 96.6482 53.1329C96.8499 53.2294 97.0866 53.2732 97.3584 53.2732C97.6302 53.2732 97.8845 53.2206 98.0949 53.1241C98.3053 53.0277 98.4719 52.8874 98.6034 52.7121C98.7349 52.5367 98.8402 52.3263 98.9015 52.0808C98.9717 51.8353 98.998 51.5722 98.998 51.2829L99.4364 51.3355C99.4364 51.8966 99.3399 52.3613 99.147 52.7296C98.9541 53.0978 98.6999 53.3696 98.3755 53.545C98.0511 53.7204 97.6828 53.808 97.2795 53.808H97.2883ZM99.0594 53.6853V52.5104H99.0067V48.4684H99.5679V53.6853H99.0594Z" fill="#F9FEFF"/>
<path d="M103.04 53.8343C102.523 53.8343 102.075 53.7204 101.725 53.4836C101.365 53.2469 101.093 52.9313 100.909 52.5104C100.725 52.0895 100.629 51.6161 100.62 51.0812C100.62 50.5289 100.725 50.0466 100.909 49.6346C101.093 49.2225 101.374 48.8981 101.725 48.6701C102.084 48.4421 102.523 48.3282 103.04 48.3282C103.557 48.3282 103.987 48.4509 104.373 48.6964C104.758 48.9419 105.021 49.2751 105.17 49.6959L104.627 49.8976C104.495 49.5732 104.285 49.3189 104.004 49.1436C103.724 48.9682 103.399 48.8718 103.031 48.8718C102.619 48.8718 102.277 48.9682 102.014 49.1523C101.751 49.3365 101.549 49.5995 101.418 49.9327C101.286 50.2658 101.216 50.6429 101.207 51.0812C101.216 51.7476 101.374 52.2824 101.681 52.6858C101.988 53.0891 102.435 53.2907 103.031 53.2907C103.399 53.2907 103.724 53.2031 103.996 53.0365C104.267 52.8699 104.478 52.6156 104.618 52.2912L105.17 52.4753C104.969 52.9137 104.688 53.2469 104.32 53.4836C103.952 53.7116 103.522 53.8256 103.031 53.8256L103.04 53.8343Z" fill="#F9FEFF"/>
<path d="M107.687 53.8343C107.284 53.8343 106.95 53.7642 106.687 53.6239C106.424 53.4836 106.223 53.2907 106.091 53.0628C105.96 52.826 105.889 52.5805 105.889 52.3C105.889 52.0019 105.951 51.7564 106.074 51.5547C106.196 51.353 106.363 51.1952 106.573 51.0725C106.784 50.9497 107.012 50.862 107.257 50.8007C107.547 50.7393 107.853 50.6779 108.187 50.6341C108.52 50.5902 108.835 50.5464 109.134 50.5113C109.432 50.4762 109.677 50.4412 109.87 50.4149L109.668 50.5376C109.677 49.9765 109.572 49.5556 109.353 49.2838C109.125 49.012 108.739 48.8717 108.169 48.8717C107.775 48.8717 107.45 48.9594 107.187 49.1435C106.933 49.3189 106.749 49.5995 106.652 49.9677L106.082 49.8099C106.205 49.3364 106.442 48.977 106.801 48.7227C107.161 48.4684 107.626 48.3457 108.187 48.3457C108.669 48.3457 109.072 48.4421 109.397 48.6262C109.721 48.8104 109.949 49.0734 110.081 49.4153C110.133 49.5556 110.168 49.7134 110.194 49.8976C110.212 50.0817 110.221 50.2658 110.221 50.4587V53.7116H109.712V52.3438L109.896 52.3876C109.739 52.8611 109.467 53.2206 109.072 53.4748C108.678 53.7291 108.213 53.8519 107.678 53.8519L107.687 53.8343ZM107.713 53.3258C108.064 53.3258 108.38 53.2644 108.643 53.1329C108.906 53.0014 109.125 52.826 109.291 52.5981C109.458 52.3701 109.563 52.0983 109.607 51.7827C109.642 51.6073 109.66 51.4232 109.66 51.2215C109.66 51.0199 109.66 50.8708 109.66 50.7744L109.905 50.9322C109.695 50.9585 109.449 50.9848 109.151 51.0111C108.853 51.0374 108.564 51.0725 108.257 51.1163C107.95 51.1601 107.678 51.2127 107.433 51.2741C107.284 51.318 107.126 51.3793 106.977 51.4582C106.828 51.5372 106.696 51.6424 106.591 51.7827C106.486 51.9229 106.442 52.0983 106.442 52.3087C106.442 52.4665 106.477 52.6244 106.556 52.7822C106.635 52.94 106.766 53.0715 106.95 53.1767C107.135 53.282 107.38 53.3346 107.696 53.3346L107.713 53.3258Z" fill="#F9FEFF"/>
<path d="M110.896 48.977V48.4685H114.245V48.977H110.896ZM114.245 53.6853C113.965 53.7467 113.693 53.773 113.421 53.7555C113.149 53.7379 112.912 53.6766 112.702 53.5713C112.492 53.4661 112.334 53.2995 112.229 53.0716C112.141 52.8874 112.097 52.7033 112.08 52.5192C112.071 52.3351 112.062 52.1159 112.062 51.8791V47.0305H112.623V51.8704C112.623 52.0896 112.623 52.2737 112.623 52.414C112.623 52.5543 112.658 52.6858 112.72 52.8085C112.834 53.0277 113.018 53.168 113.272 53.2119C113.526 53.2557 113.842 53.2469 114.236 53.1943V53.6941L114.245 53.6853Z" fill="#F9FEFF"/>
<path d="M115.341 47.4163V46.7061H115.894V47.4163H115.341ZM115.341 53.6853V48.4685H115.894V53.6853H115.341Z" fill="#F9FEFF"/>
<path d="M119.48 53.8343C118.962 53.8343 118.524 53.7204 118.164 53.4836C117.805 53.2469 117.524 52.9225 117.34 52.5104C117.147 52.0983 117.06 51.6161 117.06 51.0725C117.06 50.5289 117.156 50.0466 117.349 49.6346C117.542 49.2225 117.822 48.8981 118.182 48.6701C118.541 48.4421 118.98 48.3282 119.488 48.3282C119.997 48.3282 120.444 48.4421 120.812 48.6789C121.172 48.9156 121.452 49.2312 121.636 49.6433C121.821 50.0554 121.917 50.5289 121.917 51.0637C121.917 51.5986 121.821 52.0983 121.628 52.5104C121.435 52.9225 121.163 53.2469 120.795 53.4749C120.426 53.7028 119.997 53.8256 119.48 53.8256V53.8343ZM119.48 53.2907C120.093 53.2907 120.549 53.0803 120.856 52.6682C121.163 52.2561 121.312 51.7213 121.312 51.0637C121.312 50.4061 121.163 49.8625 120.856 49.4592C120.549 49.0559 120.093 48.863 119.48 48.863C119.067 48.863 118.726 48.9594 118.454 49.1436C118.182 49.3277 117.98 49.5907 117.849 49.9239C117.717 50.2571 117.647 50.6341 117.647 51.0637C117.647 51.7301 117.805 52.2737 118.112 52.677C118.419 53.0803 118.883 53.282 119.48 53.282V53.2907Z" fill="#F9FEFF"/>
<path d="M122.969 53.6853V48.4684H123.478V49.6433H123.53V53.6853H122.969ZM126.783 53.6853V50.976C126.783 50.6516 126.748 50.3535 126.687 50.0992C126.617 49.845 126.52 49.6258 126.389 49.4416C126.257 49.2575 126.09 49.126 125.889 49.0296C125.687 48.9331 125.45 48.8893 125.179 48.8893C124.907 48.8893 124.653 48.9419 124.442 49.0383C124.232 49.1348 124.065 49.2751 123.934 49.4504C123.802 49.6258 123.697 49.8362 123.635 50.0817C123.565 50.3272 123.539 50.5902 123.539 50.8796L123.101 50.827C123.101 50.2658 123.197 49.8011 123.39 49.4329C123.583 49.0646 123.837 48.8016 124.162 48.6262C124.486 48.4509 124.854 48.3632 125.258 48.3632C125.547 48.3632 125.801 48.407 126.029 48.486C126.257 48.5649 126.45 48.6876 126.617 48.8367C126.783 48.9857 126.923 49.1698 127.029 49.3803C127.134 49.5907 127.222 49.8187 127.274 50.0642C127.327 50.3097 127.353 50.5727 127.353 50.8445V53.694H126.792L126.783 53.6853Z" fill="#F9FEFF"/>
<path d="M133.298 53.8343C132.789 53.8343 132.342 53.7467 131.956 53.5713C131.562 53.3959 131.237 53.1505 130.965 52.8348C130.694 52.5192 130.492 52.1334 130.36 51.695C130.229 51.2566 130.15 50.7568 130.15 50.222C130.15 49.503 130.273 48.8718 130.518 48.3282C130.764 47.7845 131.114 47.3637 131.579 47.0568C132.044 46.7587 132.623 46.6009 133.298 46.6009C133.973 46.6009 134.578 46.7675 135.025 47.0919C135.481 47.4163 135.796 47.8547 135.981 48.3808L135.428 48.5473C135.27 48.1177 135.007 47.7758 134.648 47.5215C134.288 47.2672 133.841 47.1357 133.315 47.1357C132.745 47.1357 132.272 47.2672 131.895 47.5215C131.518 47.7758 131.237 48.144 131.044 48.6087C130.851 49.0734 130.755 49.6083 130.746 50.2045C130.746 50.8094 130.834 51.3355 131.027 51.8002C131.22 52.2649 131.509 52.6244 131.886 52.8874C132.272 53.1505 132.745 53.282 133.315 53.282C133.859 53.282 134.306 53.1768 134.648 52.9663C134.99 52.7559 135.253 52.449 135.419 52.0545C135.586 51.6599 135.682 51.204 135.691 50.6779H133.964V50.1694H136.27C136.279 50.2483 136.287 50.3272 136.287 50.4061C136.287 50.485 136.287 50.5464 136.287 50.5815C136.287 51.1952 136.182 51.7476 135.963 52.2386C135.744 52.7296 135.419 53.1154 134.981 53.3959C134.543 53.6765 133.973 53.8168 133.298 53.8168V53.8343Z" fill="#F9FEFF"/>
<path d="M137.261 53.6852V48.4684H137.769V49.7222L137.646 49.5556C137.708 49.4065 137.778 49.2663 137.866 49.1435C137.953 49.0208 138.05 48.9156 138.137 48.8366C138.278 48.7051 138.436 48.6087 138.628 48.5473C138.821 48.4859 139.005 48.4421 139.19 48.4333C139.382 48.4246 139.549 48.4333 139.707 48.4772V49.0032C139.505 48.9506 139.286 48.9419 139.049 48.9769C138.821 49.0032 138.602 49.1084 138.4 49.275C138.225 49.4329 138.094 49.6082 138.015 49.8099C137.936 50.0115 137.883 50.2307 137.857 50.4499C137.831 50.6691 137.822 50.8883 137.822 51.1075V53.694H137.261V53.6852Z" fill="#F9FEFF"/>
<path d="M142.662 53.8343C142.144 53.8343 141.706 53.7204 141.347 53.4836C140.987 53.2469 140.715 52.9225 140.522 52.5104C140.329 52.0983 140.233 51.6161 140.233 51.0725C140.233 50.5289 140.329 50.0466 140.522 49.6346C140.715 49.2225 140.996 48.8981 141.355 48.6701C141.715 48.4421 142.153 48.3282 142.662 48.3282C143.17 48.3282 143.617 48.4421 143.986 48.6789C144.345 48.9156 144.626 49.2312 144.81 49.6433C144.994 50.0554 145.09 50.5289 145.09 51.0637C145.09 51.5986 144.994 52.0983 144.801 52.5104C144.608 52.9225 144.336 53.2469 143.968 53.4749C143.6 53.7028 143.17 53.8256 142.653 53.8256L142.662 53.8343ZM142.662 53.2907C143.275 53.2907 143.74 53.0803 144.038 52.6682C144.336 52.2561 144.494 51.7213 144.494 51.0637C144.494 50.4061 144.345 49.8625 144.038 49.4592C143.731 49.0559 143.275 48.863 142.662 48.863C142.25 48.863 141.908 48.9594 141.636 49.1436C141.364 49.3277 141.162 49.5907 141.031 49.9239C140.899 50.2571 140.829 50.6341 140.829 51.0637C140.829 51.7301 140.987 52.2737 141.294 52.677C141.601 53.0803 142.057 53.282 142.662 53.282V53.2907Z" fill="#F9FEFF"/>
<path d="M148.15 53.808C147.861 53.808 147.607 53.7642 147.379 53.6853C147.151 53.6064 146.958 53.4836 146.791 53.3346C146.625 53.1855 146.484 53.0014 146.379 52.791C146.274 52.5805 146.186 52.3526 146.134 52.1071C146.081 51.8616 146.055 51.5985 146.055 51.3267V48.4772H146.616V51.1865C146.616 51.5109 146.651 51.809 146.712 52.0632C146.783 52.3175 146.879 52.5367 147.01 52.7208C147.142 52.9049 147.309 53.0365 147.51 53.1329C147.712 53.2294 147.949 53.2732 148.22 53.2732C148.492 53.2732 148.747 53.2206 148.957 53.1241C149.167 53.0277 149.334 52.8874 149.465 52.7121C149.597 52.5367 149.702 52.3263 149.764 52.0808C149.834 51.8353 149.86 51.5722 149.86 51.2829L150.298 51.3355C150.298 51.8966 150.202 52.3613 150.009 52.7296C149.816 53.0978 149.562 53.3696 149.238 53.545C148.913 53.7204 148.545 53.808 148.142 53.808H148.15ZM149.921 53.6853V52.5104H149.869V48.4684H150.43V53.6853H149.921Z" fill="#F9FEFF"/>
<path d="M151.78 56V48.4684H152.289V52.4841H152.341V56H151.789H151.78ZM154.06 53.8256C153.586 53.8256 153.192 53.7028 152.867 53.4573C152.543 53.2118 152.297 52.8786 152.122 52.4665C151.947 52.0545 151.868 51.581 151.868 51.0637C151.868 50.5464 151.956 50.0729 152.122 49.6608C152.289 49.2488 152.543 48.9243 152.876 48.6788C153.209 48.4333 153.621 48.3194 154.104 48.3194C154.586 48.3194 154.98 48.4421 155.314 48.6788C155.647 48.9156 155.901 49.2488 156.076 49.6608C156.252 50.0729 156.339 50.5376 156.339 51.0549C156.339 51.5722 156.252 52.0457 156.068 52.4665C155.892 52.8786 155.629 53.2118 155.287 53.4573C154.945 53.7028 154.533 53.8256 154.042 53.8256H154.06ZM154.025 53.2907C154.411 53.2907 154.726 53.1943 154.98 52.9926C155.235 52.791 155.428 52.5279 155.559 52.1947C155.691 51.8616 155.752 51.4758 155.752 51.0549C155.752 50.6341 155.691 50.2571 155.559 49.9239C155.428 49.5907 155.243 49.3277 154.98 49.1348C154.726 48.9419 154.402 48.8454 153.998 48.8454C153.595 48.8454 153.297 48.9419 153.034 49.126C152.78 49.3101 152.587 49.5732 152.455 49.9063C152.324 50.2395 152.262 50.6253 152.262 51.0462C152.262 51.467 152.324 51.8528 152.455 52.186C152.578 52.5192 152.78 52.791 153.034 52.9838C153.288 53.1767 153.621 53.2732 154.007 53.2732L154.025 53.2907Z" fill="#F9FEFF"/>
</svg>
