<svg width="74" height="102" viewBox="0 0 74 102" fill="none" xmlns="http://www.w3.org/2000/svg">
<path d="M54.5304 24.102L53.0261 22.5975L47.3789 28.2447L45.2527 26.1191L43.7484 27.6236L47.3789 31.2537L54.5304 24.102Z" fill="#055D6B"/>
<path d="M0.196655 0.883057V101.117H73.0992V24.4052H70.9715V98.9893H2.32438V3.01078H70.9715V15.5397H73.0992V0.883057H0.196655Z" fill="#055D6B"/>
<path d="M73.0992 18.72H70.9715V21.4973H73.0992V18.72Z" fill="#055D6B"/>
<path d="M4.21313 82.3848V95.5058H59.6569L69.0829 86.493V8.7309H47.1103C47.224 8.10918 47.2865 7.47001 47.2865 6.81595V5.11377H26.0093V6.81595C26.0093 7.47001 26.0716 8.10918 26.1851 8.7309H4.21313V78.8523H6.34086V10.8586H26.8093C28.4041 14.7253 32.2125 17.4546 36.6479 17.4546C41.0834 17.4546 44.8916 14.7253 46.4863 10.8586H66.955V84.797H57.953V90.6837H60.0807V86.9247H65.5524L58.803 93.3781H6.34086V82.3848H4.21313ZM36.6479 15.3268C32.0974 15.3268 28.3698 11.7376 28.1475 7.24149H45.148C44.9256 11.7376 41.198 15.3268 36.6479 15.3268Z" fill="#055D6B"/>
<path d="M41.5417 8.73096H31.7542V10.8587H41.5417V8.73096Z" fill="#055D6B"/>
<path d="M22.6647 32.4666V48.7351H37.9503V46.6074H24.7925V32.4666H22.6647Z" fill="#055D6B"/>
<path d="M29.5601 25.8074V25.8085H22.6637V29.6782H24.7914V27.9362H29.5601V40.093H39.4357V27.9362H40.3551C40.7481 30.4348 42.1847 32.5908 44.2035 33.943V46.6065H41.1657V48.7343H46.3312V34.986C47.2144 35.2809 48.1583 35.4428 49.1396 35.4428C54.0433 35.4428 58.0328 31.4533 58.0328 26.5496C58.0328 21.6456 54.0433 17.6561 49.1396 17.6561C44.4854 17.6561 40.6576 21.2505 40.2795 25.8083H39.4355V25.8072H29.5601V25.8074ZM37.308 37.965H31.6878V27.936H37.308V37.965ZM49.1396 19.7838C52.8701 19.7838 55.9051 22.819 55.9051 26.5496C55.9051 30.2801 52.8701 33.3151 49.1396 33.3151C45.409 33.3151 42.3741 30.2801 42.3741 26.5496C42.3741 22.819 45.409 19.7838 49.1396 19.7838Z" fill="#055D6B"/>
<path d="M19.1457 58.2207V56.093H12.4642V67.2103H23.5816V59.4356L26.1593 56.8577L24.655 55.3531L18.8987 61.1093L17.082 59.2928L15.5777 60.7971L18.8987 64.1183L21.4539 61.5633V65.0826H14.592V58.2207H19.1457Z" fill="#055D6B"/>
<path d="M12.4642 83.4487H23.5816V75.6742L26.1593 73.0963L24.655 71.5916L18.8987 77.3477L17.082 75.5312L15.5777 77.0355L18.8987 80.3569L21.4539 77.8019V81.321H14.592V74.4593H19.1457V72.3316H12.4642V83.4487Z" fill="#055D6B"/>
<path d="M59.0171 61.1816H29.9041V63.3094H59.0171V61.1816Z" fill="#055D6B"/>
<path d="M59.0171 57.3425H29.9041V59.4703H59.0171V57.3425Z" fill="#055D6B"/>
<path d="M59.0171 76.1704H29.9041V78.2981H59.0171V76.1704Z" fill="#055D6B"/>
<path d="M59.0171 72.3315H29.9041V74.4593H59.0171V72.3315Z" fill="#055D6B"/>
</svg>
