<svg width="87" height="87" viewBox="0 0 87 87" fill="none" xmlns="http://www.w3.org/2000/svg">
<path d="M78.9323 86.6925H7.26567C3.31325 86.6925 0.098999 83.4782 0.098999 79.5258V25.7758C0.098999 21.8234 3.31325 18.6091 7.26567 18.6091H43.099C43.5742 18.6091 44.0299 18.7979 44.3659 19.1339C44.7019 19.4699 44.8907 19.9256 44.8907 20.4008C44.8907 20.876 44.7019 21.3317 44.3659 21.6677C44.0299 22.0037 43.5742 22.1925 43.099 22.1925H7.26567C5.28946 22.1925 3.68233 23.7996 3.68233 25.7758V79.5258C3.68233 81.502 5.28946 83.1091 7.26567 83.1091H78.9323C80.9085 83.1091 82.5157 81.502 82.5157 79.5258V25.7758C82.5157 23.7996 80.9085 22.1925 78.9323 22.1925C78.4572 22.1925 78.0014 22.0037 77.6654 21.6677C77.3294 21.3317 77.1407 20.876 77.1407 20.4008C77.1407 19.9256 77.3294 19.4699 77.6654 19.1339C78.0014 18.7979 78.4572 18.6091 78.9323 18.6091C82.8847 18.6091 86.099 21.8234 86.099 25.7758V79.5258C86.099 83.4782 82.8847 86.6925 78.9323 86.6925Z" fill="#055D6B"/>
<path d="M78.9323 79.5258H18.0157V25.7758H35.9323C36.4075 25.7758 36.8632 25.9645 37.1992 26.3005C37.5352 26.6365 37.724 27.0922 37.724 27.5674C37.724 28.0426 37.5352 28.4983 37.1992 28.8343C36.8632 29.1703 36.4075 29.3591 35.9323 29.3591H21.599V75.9424H75.349V29.3591H71.7657C71.2905 29.3591 70.8348 29.1703 70.4988 28.8343C70.1628 28.4983 69.974 28.0426 69.974 27.5674C69.974 27.0922 70.1628 26.6365 70.4988 26.3005C70.8348 25.9645 71.2905 25.7758 71.7657 25.7758H78.9323V79.5258ZM14.4323 75.9424H0.098999V29.3591H14.4323V75.9424ZM3.68233 72.3591H10.849V32.9424H3.68233V72.3591Z" fill="#055D6B"/>
<path d="M31.3457 50.0708L36.0739 35.2053L68.3096 2.97145C71.0168 0.262447 75.7378 0.262447 78.445 2.97145C79.7873 4.31609 80.5411 6.13837 80.5411 8.03828C80.5411 9.93819 79.7873 11.7605 78.445 13.1051L46.2111 45.3408L31.3457 50.0708ZM39.2254 37.1224L36.8604 44.5542L44.2923 42.1892L75.9116 10.5735C77.3091 9.17599 77.3091 6.90416 75.9116 5.50666C74.5571 4.15216 72.1975 4.15216 70.843 5.50666L39.2254 37.1224ZM1.89069 43.6924H12.6407V47.2758H1.89069V43.6924ZM1.89069 58.0258H12.6407V61.6091H1.89069V58.0258Z" fill="#055D6B"/>
<path d="M74.643 16.1652C74.4077 16.1654 74.1747 16.1192 73.9573 16.0291C73.7399 15.939 73.5425 15.8069 73.3763 15.6402L65.7743 8.03821C65.6079 7.87186 65.476 7.67438 65.386 7.45704C65.2959 7.23969 65.2496 7.00675 65.2496 6.7715C65.2496 6.53625 65.2959 6.3033 65.386 6.08596C65.476 5.86862 65.6079 5.67114 65.7743 5.50479C65.9406 5.33844 66.1381 5.20649 66.3555 5.11646C66.5728 5.02644 66.8057 4.9801 67.041 4.9801C67.2762 4.9801 67.5092 5.02644 67.7265 5.11646C67.9439 5.20649 68.1414 5.33844 68.3077 5.50479L75.9097 13.1068C76.1611 13.3571 76.3325 13.6763 76.4021 14.0241C76.4717 14.3719 76.4364 14.7325 76.3006 15.0602C76.1649 15.3879 75.9349 15.6679 75.6398 15.8646C75.3446 16.0614 74.9977 16.166 74.643 16.1652ZM64.5094 26.3007C64.2741 26.3009 64.041 26.2547 63.8236 26.1646C63.6063 26.0745 63.4088 25.9423 63.2427 25.7757L55.6406 18.1737C55.4743 18.0073 55.3423 17.8098 55.2523 17.5925C55.1623 17.3752 55.1159 17.1422 55.1159 16.907C55.1159 16.6717 55.1623 16.4388 55.2523 16.2214C55.3423 16.0041 55.4743 15.8066 55.6406 15.6402C55.807 15.4739 56.0044 15.3419 56.2218 15.2519C56.4391 15.1619 56.6721 15.1156 56.9073 15.1156C57.1426 15.1156 57.3755 15.1619 57.5929 15.2519C57.8102 15.3419 58.0077 15.4739 58.174 15.6402L65.7761 23.2423C66.0274 23.4925 66.1988 23.8118 66.2684 24.1596C66.338 24.5074 66.3027 24.868 66.167 25.1957C66.0313 25.5234 65.8012 25.8034 65.5061 26.0001C65.211 26.1968 64.8641 26.3014 64.5094 26.3007ZM45.2525 45.5575C45.0172 45.5577 44.7842 45.5115 44.5668 45.4214C44.3494 45.3313 44.152 45.1992 43.9858 45.0325L36.3838 37.4305C36.0478 37.0945 35.8591 36.6389 35.8591 36.1638C35.8591 35.6887 36.0478 35.233 36.3838 34.8971C36.7197 34.5611 37.1754 34.3724 37.6505 34.3724C38.1256 34.3724 38.5813 34.5611 38.9172 34.8971L46.5192 42.4991C46.7706 42.7494 46.942 43.0686 47.0116 43.4164C47.0812 43.7642 47.0459 44.1248 46.9101 44.4525C46.7744 44.7802 46.5444 45.0602 46.2493 45.2569C45.9541 45.4537 45.6072 45.5583 45.2525 45.5575ZM30.5573 52.6507C30.2026 52.6515 29.8557 52.5469 29.5606 52.3501C29.2654 52.1534 29.0354 51.8734 28.8997 51.5457C28.764 51.2181 28.7287 50.8574 28.7983 50.5096C28.8679 50.1618 29.0392 49.8426 29.2906 49.5923L32.8363 46.0466C33.1722 45.7107 33.6279 45.5219 34.103 45.5219C34.5781 45.5219 35.0338 45.7107 35.3697 46.0466C35.7057 46.3826 35.8944 46.8382 35.8944 47.3133C35.8944 47.7884 35.7057 48.2441 35.3697 48.58L31.824 52.1258C31.6578 52.2924 31.4604 52.4245 31.243 52.5146C31.0256 52.6047 30.7926 52.651 30.5573 52.6507Z" fill="#055D6B"/>
</svg>
