<svg width="99" height="93" viewBox="0 0 99 93" fill="none" xmlns="http://www.w3.org/2000/svg">
<path d="M25.9421 76.9411H4.7469C3.60838 76.9411 3.22684 76.9411 3.22684 74.8783V69.9713C3.22684 69.5654 3.06561 69.1762 2.77863 68.8892C2.49165 68.6023 2.10243 68.441 1.69657 68.441C1.29072 68.441 0.901495 68.6023 0.614515 68.8892C0.327535 69.1762 0.166311 69.5654 0.166311 69.9713V74.8783C0.0509702 75.53 0.0851382 76.1994 0.266237 76.8359C0.447336 77.4725 0.770637 78.0596 1.21175 78.553C1.65286 79.0464 2.20026 79.4331 2.81264 79.6841C3.42503 79.935 4.08642 80.0436 4.7469 80.0017H25.9421C26.3479 80.0017 26.7372 79.8404 27.0241 79.5535C27.3111 79.2665 27.4723 78.8772 27.4723 78.4714C27.4723 78.0655 27.3111 77.6763 27.0241 77.3893C26.7372 77.1024 26.3479 76.9411 25.9421 76.9411ZM1.69657 65.154C2.10243 65.154 2.49165 64.9928 2.77863 64.7058C3.06561 64.4188 3.22684 64.0296 3.22684 63.6238V13.0394L49.5428 13.1189V38.6335C49.5428 39.0394 49.704 39.4286 49.991 39.7156C50.278 40.0026 50.6672 40.1638 51.0731 40.1638C51.4789 40.1638 51.8682 40.0026 52.1551 39.7156C52.4421 39.4286 52.6034 39.0394 52.6034 38.6335V13.1189C52.611 12.2913 52.2896 11.4946 51.71 10.9038C51.1303 10.3131 50.3398 9.97671 49.5122 9.96864H4.5245L11.5229 4.05162H56.0026C56.6519 4.05162 57.2747 4.30957 57.7339 4.76874C58.193 5.22791 58.451 5.85068 58.451 6.50004V37.5542C58.451 37.96 58.6122 38.3493 58.8992 38.6362C59.1862 38.9232 59.5754 39.0844 59.9813 39.0844C60.3871 39.0844 60.7763 38.9232 61.0633 38.6362C61.3503 38.3493 61.5115 37.96 61.5115 37.5542V6.50004C61.5115 5.03897 60.9311 3.63775 59.898 2.60462C58.8649 1.57149 57.4636 0.991089 56.0026 0.991089H10.9639C10.6023 0.99087 10.2524 1.11883 9.97632 1.35223L0.886555 9.05252C0.671666 9.27291 0.503694 9.53459 0.39279 9.82173C0.250731 10.0499 0.172517 10.312 0.166311 10.5807V63.6299C0.16793 64.0347 0.329868 64.4223 0.616673 64.708C0.903478 64.9936 1.29178 65.154 1.69657 65.154Z" fill="#055D6B"/>
<path d="M55.5455 38.0868C55.9514 38.0868 56.3406 37.9255 56.6276 37.6386C56.9146 37.3516 57.0758 36.9624 57.0758 36.5565V10.0503C57.0742 8.84493 56.5952 7.68928 55.7436 6.8362C54.8921 5.98311 53.7373 5.50205 52.5319 5.49827L14.2835 5.4187C13.8776 5.4187 13.4884 5.57993 13.2014 5.86691C12.9145 6.15389 12.7532 6.54311 12.7532 6.94896C12.7532 7.35482 12.9145 7.74404 13.2014 8.03102C13.4884 8.318 13.8776 8.47923 14.2835 8.47923L52.534 8.5588C52.929 8.55988 53.3076 8.71743 53.5867 8.99697C53.8659 9.2765 54.0229 9.65525 54.0234 10.0503V36.5565C54.0234 36.9609 54.1835 37.3489 54.4687 37.6357C54.754 37.9224 55.1411 38.0846 55.5455 38.0868ZM76.6224 67.2189C76.2165 67.2189 75.8273 67.3801 75.5403 67.6671C75.2533 67.9541 75.0921 68.3433 75.0921 68.7492V81.4728C75.095 81.7715 75.0249 82.0663 74.8881 82.3318C74.027 83.9743 69.9463 89.3384 53.6235 89.3384C37.3007 89.3384 33.22 83.9804 32.3488 82.3359C32.2122 82.071 32.1422 81.7769 32.1447 81.4789V69.398C32.1447 68.9921 31.9835 68.6029 31.6965 68.3159C31.4096 68.029 31.0203 67.8677 30.6145 67.8677C30.2086 67.8677 29.8194 68.029 29.5324 68.3159C29.2454 68.6029 29.0842 68.9921 29.0842 69.398V81.4728C29.0799 82.2668 29.2675 83.05 29.631 83.756C31.0062 86.3533 36.0765 92.3989 53.6235 92.3989C71.1705 92.3989 76.2388 86.3594 77.6038 83.7641C77.9702 83.0584 78.1593 82.2741 78.1547 81.4789V68.7492C78.1547 68.548 78.115 68.3489 78.038 68.1631C77.961 67.9773 77.8481 67.8085 77.7057 67.6664C77.5634 67.5243 77.3945 67.4116 77.2086 67.3348C77.0227 67.258 76.8235 67.2186 76.6224 67.2189Z" fill="#055D6B"/>
<path d="M97.0565 54.1198L56.5718 40.5963C56.2627 40.4923 55.9281 40.4923 55.619 40.5963L10.0151 55.2175C9.71055 55.3177 9.44515 55.5109 9.25621 55.7699C9.06727 56.0289 8.96432 56.3406 8.96184 56.6611C8.95936 56.9817 9.05749 57.295 9.2424 57.5568C9.42731 57.8187 9.6897 58.016 9.99262 58.1209L52.636 72.534C52.7937 72.5873 52.9591 72.6148 53.1256 72.6156C53.3009 72.6153 53.4748 72.5849 53.6398 72.5258L84.9409 61.3487V68.694C83.8857 69.0126 82.9608 69.6615 82.3022 70.5453C81.6436 71.4291 81.2862 72.5009 81.2825 73.6031V76.6881C81.2825 78.0561 81.8259 79.3681 82.7932 80.3354C83.7606 81.3027 85.0725 81.8461 86.4405 81.8461C87.8085 81.8461 89.1205 81.3027 90.0878 80.3354C91.0551 79.3681 91.5985 78.0561 91.5985 76.6881V73.599C91.5957 72.5068 91.2457 71.4438 90.5991 70.5636C89.9525 69.6833 89.0428 69.0315 88.0014 68.7022V60.2551L97.083 57.013C97.383 56.906 97.6421 56.7081 97.8242 56.4468C98.0064 56.1855 98.1025 55.874 98.0991 55.5555C98.0957 55.237 97.9931 54.9275 97.8054 54.6702C97.6178 54.4128 97.3546 54.2204 97.0524 54.1198H97.0565ZM88.5298 76.6881C88.5298 77.2444 88.3088 77.7779 87.9155 78.1713C87.5221 78.5646 86.9886 78.7856 86.4324 78.7856C85.8761 78.7856 85.3426 78.5646 84.9492 78.1713C84.5559 77.7779 84.3349 77.2444 84.3349 76.6881V73.599C84.3349 73.3236 84.3891 73.0508 84.4945 72.7963C84.5999 72.5419 84.7544 72.3106 84.9492 72.1159C85.144 71.9211 85.3752 71.7666 85.6297 71.6612C85.8842 71.5558 86.1569 71.5015 86.4324 71.5015C86.7078 71.5015 86.9805 71.5558 87.235 71.6612C87.4895 71.7666 87.7207 71.9211 87.9155 72.1159C88.1103 72.3106 88.2648 72.5419 88.3702 72.7963C88.4756 73.0508 88.5298 73.3236 88.5298 73.599V76.6881ZM86.2528 57.6312L53.7847 54.1279C53.5824 54.1013 53.3767 54.1153 53.1799 54.1693C52.9831 54.2233 52.7991 54.316 52.6387 54.4422C52.4783 54.5683 52.3447 54.7253 52.2459 54.9038C52.147 55.0824 52.0849 55.2789 52.0631 55.4818C52.0413 55.6847 52.0603 55.8899 52.1191 56.0854C52.1778 56.2808 52.275 56.4625 52.405 56.6199C52.535 56.7772 52.6951 56.9069 52.876 57.0014C53.0569 57.0959 53.2548 57.1533 53.4582 57.1701L79.6339 59.994L53.1093 69.4693L15.3751 56.7131L56.076 43.6548L91.8862 55.6174L86.2528 57.6312Z" fill="#055D6B"/>
</svg>
