<?xml version="1.0" encoding="UTF-8"?><svg id="uuid-227f7dea-af45-42b3-aa95-0977e9d471c8" xmlns="http://www.w3.org/2000/svg" viewBox="0 0 2000 302.86"><defs><style>.uuid-b81637ea-9bac-49de-9e51-23d8d4b7f30a,.uuid-72b08ed6-b9b6-45e7-b84a-ce6fd4f0d67c{fill:#022a31;}.uuid-72b08ed6-b9b6-45e7-b84a-ce6fd4f0d67c{isolation:isolate;opacity:.1;}</style></defs><path class="uuid-b81637ea-9bac-49de-9e51-23d8d4b7f30a" d="M1027.93,218.59c269.92,59.61,453.31,81.42,612.07,84.27H0v-54.16c178.94-74.96,377.29-96.31,464.34-100.95,243.15-20.76,465.21,49.12,563.59,70.84Z"/><path class="uuid-b81637ea-9bac-49de-9e51-23d8d4b7f30a" d="M2000,269.06v33.8h-286.02c21.01-.37,41.74-1.04,62.35-1.97,129.75-5.84,198.53-25.13,223.67-31.83Z"/><path class="uuid-72b08ed6-b9b6-45e7-b84a-ce6fd4f0d67c" d="M2000,225.47v77.39h-286.02c-24.2,.43-48.78,.46-73.98,0H0V93.41c131.11-25.65,266.45-37.99,396.27-37.99,235.23,0,386.69,40.02,511.41,70.85,515.35,127.38,757.01,128.46,1091.76,99.25,.19-.02,.38-.03,.56-.05Z"/></svg>